<svg xmlns="http://www.w3.org/2000/svg" viewBox="0 0 756.96 473.36"><defs><style>.cls-1{fill:#a0616a;}.cls-2{fill:#623c97;}.cls-3{fill:#2f2e41;}.cls-4{fill:#3f3d56;}.cls-5{fill:#ccc;}</style></defs><g id="Layer_2" data-name="Layer 2"><g id="ed1cb2a2-9ed7-4833-8d03-c78f60f09f28"><path class="cls-1" d="M654.23,315.88a10.06,10.06,0,0,1,3.31-13.83,9.81,9.81,0,0,1,1.59-.79l-1.42-35.71,15.89,9.6-1.08,32.43a10.11,10.11,0,0,1-18.29,8.3Z"/><path class="cls-2" d="M675.45,292.73,661.31,295a4.5,4.5,0,0,1-5.15-3.74.43.43,0,0,0,0-.11l-6-45-29.55-40.44a13.57,13.57,0,0,1,3-19c.22-.17.46-.33.69-.48h0A13.58,13.58,0,0,1,643,190.35l30.17,47.22,6,50.18a5.23,5.23,0,0,1,0,1A4.49,4.49,0,0,1,675.45,292.73Z"/><polygon class="cls-1" points="626.73 459.86 614.47 459.86 608.63 412.57 626.73 412.58 626.73 459.86"/><path class="cls-3" d="M605.71,456.36h23.64v14.89H590.82A14.89,14.89,0,0,1,605.71,456.36Z"/><polygon class="cls-1" points="678.45 438.88 669.29 447.03 635.14 413.36 647.02 403.55 678.45 438.88"/><path class="cls-3" d="M660.42,450.23l17.67-15.71h0L688,445.64h0l-28.79,25.61h0A14.9,14.9,0,0,1,660.42,450.23Z"/><path class="cls-1" d="M503.52,189.46A10.06,10.06,0,0,1,515.6,197a10.25,10.25,0,0,1,.25,1.75l34.32,9.93-14.12,12-30.44-11.27a10.11,10.11,0,0,1-2.09-20Z"/><circle class="cls-1" cx="610.55" cy="130.63" r="24.56"/><path class="cls-3" d="M628.23,451l-17.06-1.37a4.49,4.49,0,0,1-4.14-4.33l-4.77-143.84a4.49,4.49,0,0,1,3.88-4.6l34-4.75a4.5,4.5,0,0,1,5.08,3.83,4.56,4.56,0,0,1,0,1.38l-13,76.25a3.45,3.45,0,0,0-.05.64l.94,72.24a4.5,4.5,0,0,1-4.44,4.56h-.42Z"/><path class="cls-3" d="M650.08,433.76l-58.62-65.24a4.5,4.5,0,0,1-1.12-3.49l7.4-69.4a4.49,4.49,0,0,1,4.77-4l36,2.4a4.49,4.49,0,0,1,4,5.93L620.9,363.71a3.47,3.47,0,0,0,.8,3.55l49.79,51.61a4.5,4.5,0,0,1-.12,6.36,4.71,4.71,0,0,1-.83.64l-14.82,8.75A4.51,4.51,0,0,1,650.08,433.76Z"/><path class="cls-2" d="M606.15,170.36s15-13,22-6c0,0,32.5,20.5,18.5,76.5,0,0,12,54,7,56s-55.5,9.5-59.5,3.5S588.15,202.36,606.15,170.36Z"/><path class="cls-2" d="M518.78,216.9l2.33-14.12a4.49,4.49,0,0,1,5.17-3.71l.11,0L571,207.64l47.69-15.26a13.57,13.57,0,0,1,17.07,8.8c.09.26.16.54.23.81h0a13.58,13.58,0,0,1-9.84,16.49l-54.33,13.71L522.32,222a4.92,4.92,0,0,1-.92-.29A4.49,4.49,0,0,1,518.78,216.9Z"/><path class="cls-3" d="M621.09,150.55c2.24-5.19,4.14-12.11-.16-15.78-2.5-2.13-6.1-2.14-9.37-2.4-9.22-.75-18.71-5-23.21-13.07s-2-20.08,6.51-23.73c5.73-2.45,12.3-.78,18.29.92l18,5.11c5.35,1.51,11,3.19,14.82,7.2,6.14,6.4,5.68,17.21.8,24.62s-12.22,15.13-20.63,17.94Z"/><path class="cls-4" d="M756,473.36H508a1,1,0,1,1,0-2H756a1,1,0,0,1,0,2Z"/><path class="cls-4" d="M494,0H7A7,7,0,0,0,0,7V367a7,7,0,0,0,7,7H494a7,7,0,0,0,7-7V7A7,7,0,0,0,494,0Zm5,367a5,5,0,0,1-5,5H7a5,5,0,0,1-5-5V7A5,5,0,0,1,7,2H494a5,5,0,0,1,5,5Z"/><rect class="cls-4" x="1" y="28.04" width="499" height="2"/><circle class="cls-4" cx="18" cy="15" r="6"/><circle class="cls-4" cx="35.25" cy="15" r="6"/><circle class="cls-4" cx="52.5" cy="15" r="6"/><path class="cls-4" d="M301.82,311.3a1,1,0,0,1-1-1v-41a1,1,0,0,1,2,0v41A1,1,0,0,1,301.82,311.3Z"/><path class="cls-4" d="M300.45,253.3a1,1,0,0,1-.5-.13l-56.82-33.11a1,1,0,0,1,1-1.72L301,251.44a1,1,0,0,1,.36,1.37A1,1,0,0,1,300.45,253.3Z"/><path class="cls-4" d="M186.82,253.3a1,1,0,0,1-1-1,1,1,0,0,1,.5-.87l56.81-33.1a1,1,0,1,1,1,1.73l-56.81,33.1A1,1,0,0,1,186.82,253.3Z"/><path class="cls-4" d="M359.45,303.3a1,1,0,0,1-.5-.13l-56.82-33.1a1,1,0,0,1-.35-1.37,1,1,0,0,1,1.36-.36L360,301.44a1,1,0,0,1,.36,1.37A1,1,0,0,1,359.45,303.3Z"/><path class="cls-4" d="M245.82,303.3a1,1,0,0,1-1-1,1,1,0,0,1,.5-.87l56.81-33.1a1,1,0,1,1,1,1.73l-56.81,33.1A1,1,0,0,1,245.82,303.3Z"/><path class="cls-4" d="M243.82,202.3a1,1,0,0,1-1-1l-.09-36.39a1,1,0,0,1,1-1h0a1,1,0,0,1,1,1l.09,36.38a1,1,0,0,1-1,1h0Z"/><path class="cls-5" d="M256.76,221.22H230.7a4.51,4.51,0,0,1-4.5-4.5V203.34a4.51,4.51,0,0,1,4.5-4.5h26.06a4.51,4.51,0,0,1,4.5,4.5v13.38A4.51,4.51,0,0,1,256.76,221.22Z"/><path class="cls-4" d="M213.64,153.2H158.2a1,1,0,0,1,0-2h55.44a1,1,0,0,1,0,2Z"/><path class="cls-4" d="M243.73,138.92a1,1,0,0,1-1-1V103.3a1,1,0,1,1,2,0v34.62A1,1,0,0,1,243.73,138.92Z"/><path class="cls-4" d="M136.64,153.2a1,1,0,0,1-.51-.14L82.31,121.17a1,1,0,0,1,1-1.73l53.82,31.9a1,1,0,0,1-.51,1.86Z"/><path class="cls-4" d="M82.82,185.1a1,1,0,0,1-.51-1.86l53.82-31.9a1,1,0,0,1,1,1.72L83.33,185A1,1,0,0,1,82.82,185.1Z"/><path class="cls-5" d="M154.2,169.33H140.82a4.51,4.51,0,0,1-4.5-4.5V138.78a4.51,4.51,0,0,1,4.5-4.5H154.2a4.49,4.49,0,0,1,4.5,4.5v26.05A4.5,4.5,0,0,1,154.2,169.33Z"/><path class="cls-5" d="M256.76,106H230.7a4.52,4.52,0,0,1-4.5-4.5V88.11a4.52,4.52,0,0,1,4.5-4.5h26.06a4.52,4.52,0,0,1,4.5,4.5V101.5A4.52,4.52,0,0,1,256.76,106Z"/><path class="cls-5" d="M79.2,138.33H65.82a4.51,4.51,0,0,1-4.5-4.5V107.78a4.51,4.51,0,0,1,4.5-4.5H79.2a4.49,4.49,0,0,1,4.5,4.5v26.05A4.5,4.5,0,0,1,79.2,138.33Z"/><path class="cls-5" d="M79.2,201.33H65.82a4.51,4.51,0,0,1-4.5-4.5V170.78a4.51,4.51,0,0,1,4.5-4.5H79.2a4.49,4.49,0,0,1,4.5,4.5v26.05A4.5,4.5,0,0,1,79.2,201.33Z"/><path class="cls-4" d="M329.26,153.2H273.82a1,1,0,0,1,0-2h55.44a1,1,0,0,1,0,2Z"/><path class="cls-4" d="M350.82,153.2a1,1,0,0,1-.51-1.86l53.82-31.9a1,1,0,0,1,1.37.35,1,1,0,0,1-.35,1.38l-53.82,31.89A1,1,0,0,1,350.82,153.2Z"/><path class="cls-4" d="M404.64,185.1a1,1,0,0,1-.51-.14l-53.82-31.9a1,1,0,0,1,1-1.72l53.82,31.9a1,1,0,0,1-.51,1.86Z"/><path class="cls-5" d="M346.64,169.33H333.26a4.5,4.5,0,0,1-4.5-4.5V138.78a4.49,4.49,0,0,1,4.5-4.5h13.38a4.51,4.51,0,0,1,4.5,4.5v26.05A4.51,4.51,0,0,1,346.64,169.33Z"/><path class="cls-5" d="M421.64,138.33H408.26a4.5,4.5,0,0,1-4.5-4.5V107.78a4.49,4.49,0,0,1,4.5-4.5h13.38a4.51,4.51,0,0,1,4.5,4.5v26.05A4.51,4.51,0,0,1,421.64,138.33Z"/><path class="cls-5" d="M421.64,201.33H408.26a4.5,4.5,0,0,1-4.5-4.5V170.78a4.49,4.49,0,0,1,4.5-4.5h13.38a4.51,4.51,0,0,1,4.5,4.5v26.05A4.51,4.51,0,0,1,421.64,201.33Z"/><path class="cls-5" d="M198.76,272.22H172.7a4.51,4.51,0,0,1-4.5-4.5V254.34a4.51,4.51,0,0,1,4.5-4.5h26.06a4.51,4.51,0,0,1,4.5,4.5v13.38A4.51,4.51,0,0,1,198.76,272.22Z"/><path class="cls-5" d="M314.57,272.22H288.52a4.51,4.51,0,0,1-4.5-4.5V254.34a4.51,4.51,0,0,1,4.5-4.5h26.05a4.5,4.5,0,0,1,4.5,4.5v13.38A4.5,4.5,0,0,1,314.57,272.22Z"/><path class="cls-5" d="M261.57,321.22h-26a4.51,4.51,0,0,1-4.5-4.5V303.34a4.51,4.51,0,0,1,4.5-4.5h26a4.5,4.5,0,0,1,4.5,4.5v13.38A4.5,4.5,0,0,1,261.57,321.22Z"/><path class="cls-5" d="M372.57,321.22H346.52a4.51,4.51,0,0,1-4.5-4.5V303.34a4.51,4.51,0,0,1,4.5-4.5h26.05a4.5,4.5,0,0,1,4.5,4.5v13.38A4.5,4.5,0,0,1,372.57,321.22Z"/><path class="cls-5" d="M314.57,321.22H288.52a4.51,4.51,0,0,1-4.5-4.5V303.34a4.51,4.51,0,0,1,4.5-4.5h26.05a4.5,4.5,0,0,1,4.5,4.5v13.38A4.5,4.5,0,0,1,314.57,321.22Z"/><path class="cls-2" d="M275.4,169.6H212.06a4.51,4.51,0,0,1-4.5-4.5V139.3a4.51,4.51,0,0,1,4.5-4.5H275.4a4.51,4.51,0,0,1,4.5,4.5v25.8A4.51,4.51,0,0,1,275.4,169.6Z"/></g></g></svg>