<svg id="Layer_1" data-name="Layer 1" xmlns="http://www.w3.org/2000/svg" width="280" height="280" viewBox="0 0 280 280"><defs><style>.cls-1{font-size:12px;font-family:MyriadPro-Regular, Myriad Pro;}.cls-2{letter-spacing:0em;}.cls-3{fill:#fff;}.cls-4{fill:#eabf1d;}.cls-5{fill:#040404;}.cls-6{fill:#fdfdfd;}</style></defs><text class="cls-1" transform="translate(241.53 154.24)">THANI<tspan x="0" y="14.4">N</tspan><tspan class="cls-2" x="7.9" y="14.4">A</tspan><tspan x="15.19" y="14.4">MPI</tspan></text><circle class="cls-3" cx="140" cy="140" r="140"/><path class="cls-4" d="M91.11,194c.06,1.81-1.19,3-1.19,4.64-.73.82-.74,1.93-1,2.89-1,3.11-2.36,6-3.49,9.07-2.33,6.3-3.45,13.73-8.46,18.2a8.75,8.75,0,0,1-4.11,1.79,38.86,38.86,0,0,1-12.73.3c-2.29-.25-4.61-.21-6.85-1-3.13-1.09-6.36-1.9-8.72-4.5A6,6,0,0,1,43.37,224c-1-2.37-2.73-4.33-4-6.54s-1.43-4.63-1.76-7a55.61,55.61,0,0,1,.9-19.92,37,37,0,0,1,5.85-13.58,64.35,64.35,0,0,0,4.17-5.79l.38.09c-.18-1.41.88-1.32,1.76-1.47.15,0,.27-.25.4-.38l.2-.13c.12-.13.39-.16.3-.44l0,0c.53.16.88-.25,1.28-.46,1.69-.88,3.37-1.8,5-2.71a7.56,7.56,0,0,0,3.19-.8c2-.1,4-.65,6-.08a16.09,16.09,0,0,0,9-.24c.49.47,1,.26,1.6.17,1.72-.3,3.44-.6,5.17-.86,1-.16,2.15.16,3.14-.43,1.32.57,2.46,0,3.62-.56,1-.11,2-.46,3-.67a34.43,34.43,0,0,0,7.15-2.08c1.18-.4,2.51-.5,3.4-1.56a2.78,2.78,0,0,0,2-.66l3.06-1c.27-.09.61,0,.75-.35a5.58,5.58,0,0,0,3.12-1.09,2.35,2.35,0,0,0,1.48-.39,6.2,6.2,0,0,0,2.81-.8,7.87,7.87,0,0,0,2.57-.94c1.11-.19,2.28-.16,3.17-1a8.19,8.19,0,0,0,2.83-.71c1-.31,2.07-.33,2.89-1.07l4.3-1a6.49,6.49,0,0,0,3.07-.57l4.21-.44a41.92,41.92,0,0,1,8.23-.07l3.35.8a13.91,13.91,0,0,1,4.35,1.43l3.17.92a8.06,8.06,0,0,0,2.78,1.18A5.38,5.38,0,0,0,164,153.9a27.39,27.39,0,0,0,6.51,2.35,2.93,2.93,0,0,0,1.75.76l2.57.89,2.59,1.12c.39.15.78.26,1.16.44a9.12,9.12,0,0,0,3.64,1.14c.79.9,1.91.87,2.95,1a5.77,5.77,0,0,0,2,.36,5.7,5.7,0,0,0,3.12.79c1.65.78,3.48.74,5.21,1.16s3.46.44,5.17.84a19.12,19.12,0,0,0,5.29.32,2.36,2.36,0,0,1,1.75.44c1,1,2.36,1,3.62,1.35a1.61,1.61,0,0,0,1.23.5l5.67,3.21a1.09,1.09,0,0,0,.76.64c.11,1,1,1.29,1.66,1.81,1.5,1.23,2.6,2.84,3.95,4.19A48.94,48.94,0,0,1,234.94,192c1.15,2.54,1.22,5.33,1.76,8a24.85,24.85,0,0,1-.68,11.55c-.9,3.29-2,6.68-4.77,9.17a35.13,35.13,0,0,0-3.76,4.74,18.12,18.12,0,0,1-9.32,6.13c-3.54,1.07-7.07,2.08-10.85,1.8a27.11,27.11,0,0,1-4.76-.74c-2.89-.75-5.06-3.07-6.9-5.47a6.47,6.47,0,0,0-.49-.85c-1.12-1.43-5.17-9.35-5.62-11.28a41,41,0,0,0-1.58-5.56c-1.42-3.66-1.57-7.51-2-11.32v-3c-1.27.72-6.13,4.37-8,5.33-1.62.84-18,10.94-38.67,10.94-11.31,0-27.3-3.45-32.15-5.88A64.1,64.1,0,0,1,91.11,194ZM46.67,221.83l.31.48c1.15.6,1.73,2,3.19,2.2A.62.62,0,0,0,51,225l3.07.9c.18.38.53.23.82.27a4.29,4.29,0,0,0,2.42.59c.32.14.62.49,1,0h.38a.65.65,0,0,0,1,.06c.52.35,1.1.06,1.64.18a.8.8,0,0,0,1.21.05c1,0,1.87.4,2.84.22a1.16,1.16,0,0,0,1.14,0l.89,0h1.31L69,227c.35.19.57,0,.79-.25.94,0,1.92.24,2.79-.36.49-.07,1-.12,1.1-.76,1.27-.29,1.16-1.58,1.7-2.39.53-.27.6-.83.8-1.3l1.24-2.83c.34-.27.27-.65.25-1a5,5,0,0,0,1.45-2.69c0-.24.75-.12.27-.58.29-.81,1.08-1.43.91-2.4.39-.08.54-.27.3-.65a5.82,5.82,0,0,0,1.07-2.58.13.13,0,0,1,0-.19c.26-.83,1-1.5.88-2.46.2-1,1-1.62,1.37-2.5a.88.88,0,0,0,0-.28,7.26,7.26,0,0,0,.61-2.29c0-.32.57-.47.3-.9l0,0c.26.1.21-.13.26-.25l.67-2.14a.84.84,0,0,0,.23-.8c.21-.71.72-1.35.59-2.16A21.67,21.67,0,0,1,88.65,192c.23-.24.06-.43-.1-.6-.86-.94-1.72-1.86-2.59-2.79L81,184a2.76,2.76,0,0,0-1.66-1.74,43.93,43.93,0,0,0-3.11-3.43c-.07-1.33-1.23-1.82-2-2.61-.08-.22-.05-.53-.42-.51l-.2-.21c-.27-1.29-2.07-3.32-3.68-4.13-.52-.79-1.43-1.09-2.12-1.66-1.29-.73-2.65-.35-4-.21-.83.08-5.72.78-7.18,1.57-2.09.63-4.11,1.37-5.23,3.46A4.79,4.79,0,0,0,50,175.8c-1.77,2.09-2.79,4.63-4.23,6.92a12.4,12.4,0,0,0-2.23,5.89L43.18,190a7,7,0,0,0-1.07,3.73c-.22.23-.14.47,0,.7l-.07.68c-.33.13-.28.4-.23.66a8.71,8.71,0,0,0-.57,3.85c-.19.25-.48.51-.05.8a.19.19,0,0,1,0,.18c-.35.27-.21.51,0,.74a4.8,4.8,0,0,0,0,3.28.64.64,0,0,0,0,1,5.87,5.87,0,0,0,.29,3.63c0,.22-.34.46.05.64a10.25,10.25,0,0,0,.8,4.06c-.13.59-.15,1.14.55,1.39a1.36,1.36,0,0,0,.67,1c-.11.44,0,.7.5.76l2.07,3.25a1.49,1.49,0,0,0,.6,1.57ZM215,228.15c.43-.07.94.23,1.28-.27h0c.36-.14.82.16,1.1-.28.93-.22,2-.21,2.59-1.14.61.2.94-.21,1.3-.58.71-1.22,2.18-1.61,3-2.73a1,1,0,0,0,.77-1c.77-1.16,2.13-1.9,2.38-3.42,1-.4,1.42-1.28,2-2.06s1.28-1.23,1.15-2.24c.58-.1.71-.45.56-1,.39-1,1.14-1.91,1.1-3.08a.47.47,0,0,0,0-.77,5,5,0,0,0,.57-2.4.76.76,0,0,0,0-1.11,6.28,6.28,0,0,0,.21-2.92c.08-.37.17-.74-.22-1,0-.51.33-1-.06-1.5l0-1-.22-1.37c.4-.54,0-.86-.33-1.19a4.24,4.24,0,0,0-.62-2.51,2.48,2.48,0,0,0-1.08-2.35c0-.28.06-.62-.07-.84a67.31,67.31,0,0,0-4.2-6.71c-1.58-2.07-3.73-3.61-5.21-5.76a7.71,7.71,0,0,0-3.41-3.08c-.41-1.23-1.61-1.43-2.57-1.93a4.33,4.33,0,0,0-3.64-.82c-.92.13-1.88-.28-2.78.18l-1.93.13a1.23,1.23,0,0,0-1.36.49,25,25,0,0,0-2.37,3.73c-.71,1.18-1.92,2-2.34,3.4l-.33.59c-.94.24-1.3,1-1.69,1.78-.3,0-.57,0-.39.46-.76.62-1.72,1-2,2.12a1.3,1.3,0,0,0-1.29,1.13c-.48.4-1.16.62-1.21,1.39a.67.67,0,0,0-.62.55c-.53.39-1.22.65-1.21,1.48-.4,0-.73.08-.76.57-.91.22-1.19,1.18-1.94,1.61-.55.32.07.62.17.92-.32.35-.06.6.13.86l.19,1.47.61,3.25.08,1.67c0,1.23.45,2.43.26,3.69a1.28,1.28,0,0,0,.52,1.24l0,.58a6.57,6.57,0,0,0,.81,2.7c.73,1.36.67,3,1.5,4.35.12.78-.2,1.67.54,2.3.51.41.45,1.21,1.08,1.54l1.74,3.84c.71.57.57,1.69,1.43,2.17.15.48,0,1.11.62,1.37.67.6,1,1.64,2.09,1.72l0,0c-.05.19,0,.28.21.34.22.93,1,1.17,1.76,1.41a6.2,6.2,0,0,0,2.53.65c.16.34.36.57.74.21a5.75,5.75,0,0,0,3.1.26,1.91,1.91,0,0,0,1.16,0l.09,0h.1c.34,0,.68.11.92-.23C212.7,228.79,214,228.92,215,228.15Z"/><path class="cls-5" d="M127.85,150.5c-.82.74-1.91.76-2.89,1.07-.53-3.32-1.06-6.64-1.31-10-.22-2.84-.51-5.68-.71-8.52q-.6-8.54-1.13-17.06a10.42,10.42,0,0,1,.1-2.43c.12-.7-.1-1.15-.92-.65-1.2.75-2.38,1.51-3.6,2.21-.47.27-1.08.65-1.5,0s.21-1,.65-1.34a43.16,43.16,0,0,1,8.83-5.33,8.78,8.78,0,0,1-5-3.39c-.12-.15-.24,0-.34.07l0,0c.41-.61-.23-.8-.49-1.07a27.58,27.58,0,0,1-8.28-16.26,15.67,15.67,0,0,1,4-12.62c1.15-1.36,1.31-1.76.2-3.16-1.92-2.44-3.24-5.24-4.89-7.83a24.94,24.94,0,0,0-6.35-6.88c-2.34-1.7-4.9-1.44-7.41-.42a4.76,4.76,0,0,1-3.31.49c1,1.1,1.76,1.91,2.5,2.74,2.59,2.92,4.55,6.35,7.32,9.13,1.32,1.31,2.61,2.65,4,3.94s1.51,2.41.6,3.3-2.08.67-3.37-.55A62.6,62.6,0,0,1,95.57,65.2a35.38,35.38,0,0,0-6-6.71c-2.26-2-3.72-4.67-5.38-7.15-.5-.73-.46-1.49.74-1.51.39,0,.7.09.76-.52A3.59,3.59,0,0,1,88,46.43c3.5-1.56,7-3.25,11-3.42A4.56,4.56,0,0,1,103,49.59a34.64,34.64,0,0,1-2.26,3.31c3-.33,5.26,1.15,7.28,2.92a31.41,31.41,0,0,1,7.3,9.41,24.46,24.46,0,0,0,3.08,4.27,3.93,3.93,0,0,1,1.12,3c-.08.73.12.87.8.89a16.13,16.13,0,0,1,6.43,2c3.17,1.5,4.26,3.92,5.36,6.79A42.34,42.34,0,0,1,135.29,95c.21,4.14-1.39,7.86-3.25,11.45a3.67,3.67,0,0,1-1.78,1.58c-.79.4-1.91.35-1.92,1.85,0,1-1.22,1.19-2.14,1.26-2.91.23-3.11.31-3,3.15s.6,5.44.92,8.16c.43,3.62.92,7.23,1.4,10.84s.78,7.54,1.31,11.3C127.15,146.6,127.4,148.57,127.85,150.5ZM113.74,86.27a14.32,14.32,0,0,0,1.47,6.28,41.31,41.31,0,0,0,8.32,11.63A6,6,0,0,0,128,105.7a2.23,2.23,0,0,0,2.11-1.42,20.16,20.16,0,0,0,1.38-13.53c-.89-3.83-2.72-7.33-3.69-11.13-.47-1.82-2.32-2.77-3.47-4.15s-5.83-.3-7.19,1.18A13.24,13.24,0,0,0,113.74,86.27Zm-20.11-29c-.95-1.51-.13-2.28,1-3.23a26.41,26.41,0,0,0,5.41-5.85c.8-1.21.13-2.35-1.3-2.42a11,11,0,0,0-3.09.31c-2.81.67-5.69,1.19-8.06,3a1.84,1.84,0,0,0-.21,2.58c1.54,1.83,3.38,3.34,5,5C92.73,57,93,57.45,93.63,57.31Z"/><path class="cls-5" d="M101.33,152.46a18.29,18.29,0,0,0-5-7.33c-.36-.3-.53-.73-1.11-.68-.8.06-.31.83-.63,1.15-2.3-.69-4.54-1.9-7-.73s-2.76,3.7-3.82,6.06c-.26-.82.16-2.93-8.71-5.36a18,18,0,0,0-3.11-.29c-4.94-.44-9.84-.57-14.69.82a3.5,3.5,0,0,0-2,1.4c-.27.39-.75.75-.41,1.38s.92.47,1.46.38c.15.43-.3.36-.47.46A6,6,0,0,0,53,153.4a11.29,11.29,0,0,0-.28,4.09c0,.83-.21,1-1,1a17.18,17.18,0,0,0-4,.2C42,160,36.22,160.06,30.45,160.48a19.1,19.1,0,0,0-3.7.2,1.07,1.07,0,0,1-1-.05l.8-.21c2-1.13,4.23-1.55,6.33-2.35,4.48-1.72,8.78-3.93,13.47-5.1a16.64,16.64,0,0,0,6-2.58,3.07,3.07,0,0,0,1.31-3.25,2.89,2.89,0,0,0-2.2-2.18,11.56,11.56,0,0,0-4.87-.79,38.08,38.08,0,0,1-6.4-.4L30,143.29a13.18,13.18,0,0,1-4.82-1c9.43-2.82,18.83-3.92,28.39-5.17a4.74,4.74,0,0,0,.35,2.66c.35,1,.05,2.59,1.73,2.92a123.13,123.13,0,0,0,13.93,1.81,48.93,48.93,0,0,1,8.76,1,24.4,24.4,0,0,0,4.35.63,2,2,0,0,0,2.31-1.7c.17-1.15-.65-1.77-1.73-2.08a8.71,8.71,0,0,0-2.26-.29,12.16,12.16,0,0,1-1.7-.13,46.09,46.09,0,0,0-7.24-.68c-2.85,0-5.71-.15-8.57-.26-.32,0-.93.18-.77-.46.44-1.86.58-4.09,2.4-5.07a16.44,16.44,0,0,1,10.68-2,33,33,0,0,1,10,3,1.8,1.8,0,0,0,2.53-.56,1.91,1.91,0,0,0-.62-2.65,2.74,2.74,0,0,0-.84-.52,47.86,47.86,0,0,0-12.82-2.94c-2.19-.15-4,.84-6,1.43a18.51,18.51,0,0,0-5.58,2.56,33.23,33.23,0,0,0-1-3.48c-1.08-2.16-3.32-2.37-4.77-.45a9.12,9.12,0,0,0-1.49,2.4c-.08.24-.14.75-.58.7-1.22-.15-2.36.59-3.69.3,2.34-1.93,4.68-3.74,6.25-6.28,1.71-2.77,1.67-5.65-.17-7.35a12.19,12.19,0,0,0-4-2.73,31.74,31.74,0,0,0-18-1.33c-2.29.51-4.59.93-5.87,3.26a1,1,0,0,1-.44.35,8.3,8.3,0,0,0-5.45,8.12c-.11,4.17,1.48,6.42,5.48,7.69a27.65,27.65,0,0,0,7.68,1c-3.1.86-6.27,1.32-9.35,2.16a14.49,14.49,0,0,0-5,2.24,4,4,0,0,0-1.34,3.58c.06,1.2,1.25,1.47,2.28,1.8,2.94.93,6,.94,9,1.25l7.4.19a6.71,6.71,0,0,0,1,.13c2,.11,4,.18,6,.31a4.69,4.69,0,0,1,2.33.45,3.2,3.2,0,0,1-.56.34c-5.93,1.91-11.56,4.58-17.31,7-2.95,1.22-6.14,1.9-8.84,3.69-1,.66-2.72,1.12-1.48,3,.14.2-.12.18-.19.27-.68.86,0,1.35.62,1.32,1.54-.09,3,.44,4.55.31,4.4-.39,8.82-.55,13.24-.77,4.89-.25,9.68-1.56,14.61-1.18a.47.47,0,0,0,.29,0c.78-.48,1.25,0,1.79.49s1.8.93,1.53,1.79c-.2.66-1.39.73-2.21.91s-1.85.86-2.65.7c-1-.2-1.18-1.47-1.69-2.3-.23-.37-.55-1-1.11-.62s-.33.93,0,1.39c.47.7,1,1.38,1.46,2.09l-3.25,1.24c-.82.32-1.43.23-1.81-.7a7.77,7.77,0,0,0-1-1.71c-.18-.25-.29-.86-.81-.53s-.1.65.1.94c.42.64.86,1.26,1.29,1.89a1.83,1.83,0,0,0,2.29.87c2-.62,4.14-1.08,6.53-1.68a9.31,9.31,0,0,0-2.49,2.11c.53.16.88-.25,1.28-.46,1.69-.88,3.37-1.8,5-2.71.62-2.05,2-1.15,3.19-.8,2-.1,4-.65,6-.08a16.09,16.09,0,0,0,9-.24,31.55,31.55,0,0,0,6.12-5,13.89,13.89,0,0,1,1.4-2.64A34.36,34.36,0,0,0,86,163.41c1.32.57,2.46,0,3.62-.56a12.62,12.62,0,0,1-1.92-13.59,3,3,0,0,1,3.16-2,6.21,6.21,0,0,0,2.26-.18c1.22-.37,2.34-.16,2.47,1.38.14,1.74,1.34,2.93,2.1,4.34a17.17,17.17,0,0,1,2.08,7.26c1.18-.4,2.51-.5,3.4-1.56A32.15,32.15,0,0,0,101.33,152.46Zm-43.47-21c.23-.37.5-.89,1.09-.76s.52.77.52,1.05c0,1.67,1,3.2.66,4.9a8.38,8.38,0,0,1-.21,2.38c-.63,1.83-.78,2-2.74,1.68-1.47-.22-1.55-1.22-1.65-2.43C55.33,135.66,56.56,133.56,57.86,131.48Zm-25.25,1.16A8.84,8.84,0,0,1,27.43,131a2.58,2.58,0,0,1-1.15-1.86,19.66,19.66,0,0,1,0-5.68A3.26,3.26,0,0,1,29,120.93a4.67,4.67,0,0,0,1.63-.42c3.4-1.9,7.18-1.78,10.85-2.2,3.91.3,7.78.55,11.27,2.56,2.26,1.29,2.64,2.8,1,4.85a15.55,15.55,0,0,1-9.71,5.9A62.29,62.29,0,0,1,32.61,132.64Zm46,25.39a12.28,12.28,0,0,1-9.91,4.5c-2.89-.1-5.8.17-8.64-.59a7.27,7.27,0,0,1-4.74-3.27c-1.07-1.81-.71-5.86.71-7.38a3,3,0,0,1,1.2-.72c.41-.14.94-.21.85-.75s-.59-.51-1-.5a4.38,4.38,0,0,1-.62-.08c1.45-.87,3.14-.64,4.66-.69a62.67,62.67,0,0,1,13,.48c2.55.44,4.2,2.09,5.55,4.08A4.55,4.55,0,0,1,78.59,158Z"/><path class="cls-5" d="M76.76,96.31a8.21,8.21,0,0,1,6-4.08,22,22,0,0,1,5.59-.54.93.93,0,0,1,.42.07c5.15,2.95,10.85,5,14.87,9.76,3.26,3.86,5.1,8,4.64,13.13-.48,5.39-6.29,8-9.89,6.7-.48-.17-1-.29-1.59-.47a10,10,0,0,1-.19,4.13c-1.48,4.11-4.23,5.46-8.7,4.41-3.23-.76-6.17-2.34-9.4-3.1-5.05-1.18-10.06-2.5-15-4.06a4.79,4.79,0,0,0-1.39-.25c-1.9,0-2.64-.45-1.66-2.84A30.29,30.29,0,0,1,67.35,109c.48-.47.89-1,1.38-1.46a1.28,1.28,0,0,1,1.9-.06,1.14,1.14,0,0,1-.12,1.86,53.6,53.6,0,0,0-4.83,4.46,21.88,21.88,0,0,0-3.32,5.44c5,1.36,10,1.8,14.82,3.42a37.81,37.81,0,0,1,2.14-4.8,18.41,18.41,0,0,0,1.67-4,5.9,5.9,0,0,1,.53-1.31c.47-.87,1.18-1.29,2.11-.76s.8,1.35.38,2.12c-.76,1.41-1.57,2.8-2.38,4.18s-1.66,2.73-2.5,4.08c-.3.49-.23.85.35,1,3.34.54,6.35,2.16,9.66,2.8,2.36.46,3.22.17,4.17-2,.5-1.17,1.24-2.27,1.16-3.67,0-.49-.14-.67-.49-.85a15.63,15.63,0,0,1-3.89-3.11c-2.41-2.46-5.29-4.36-7.74-6.78s-3.82-5.27-5.5-8.05c-.78-1.29-.29-2.89-.33-4.35l0,0c.45-.18.3-.57.3-.9Zm28.51,16.75a10.1,10.1,0,0,0-.5-3.31C103,104.53,99,101.32,94.51,98.58c-2.38-1.44-5.08-2.32-7.16-4.3a2.92,2.92,0,0,0-2.69-.71,15.84,15.84,0,0,0-3.08,1.23c-3.12,1.23-3.22,3.93-2,6.09a30.31,30.31,0,0,0,4.78,6.84c2.3,2.36,5.28,3.86,7.55,6.28a14.2,14.2,0,0,0,6.82,4.14,4.9,4.9,0,0,0,2.89.32C104.44,117.56,105.14,116.64,105.27,113.06Z"/><path class="cls-5" d="M241.6,150.23a36.35,36.35,0,0,0,4.94,1.07,78.27,78.27,0,0,1,11.2,1.82c2.49.57,5,.88,7.47,1.66,1.87.6,2.8,1.64,2.79,3.15a2.84,2.84,0,0,1-2.33,3.14,79.58,79.58,0,0,1-8,1.41,68.14,68.14,0,0,1-9,1.27c-2.19.1-4.38.09-6.57.18a21.41,21.41,0,0,0-3.92.18,5.33,5.33,0,0,1-2.69,0,1.76,1.76,0,0,1-1.52-1.94,1.82,1.82,0,0,1,1.84-1.66,44.29,44.29,0,0,1,6.71-.31,77.3,77.3,0,0,0,18.07-1.79c.59-.11,1.19-.17,2-.28-3.83-1.33-7.68-1.83-11.45-2.68-3-.68-6-1.26-8.89-2.16-.23-.07-.5-.26-.67-.19-1.89.8-3.24-.37-4.7-1.22s-1.58-2.25-.33-3.22a7.13,7.13,0,0,1,4.36-1.83,6,6,0,0,0,1.91-.5c6.4-2.33,12.32-5.69,18.35-8.81,1.42-.74,2.39-2,3.89-3a8.42,8.42,0,0,0-4.35.32c-6,1.56-12.1,2.54-18.18,3.66-2.73.51-5.39,1.35-8.15,1.76-.78.11-1.36.12-1.58-.67s.4-1.2,1.08-1.4c2.61-.75,5.09-1.9,7.77-2.47,2-.44,3.94-1.31,6-1.62,5-.77,9.79-2.65,14.9-2.79,1,0,1.93,0,2.33,1.11.1.3.3.28.53.34,1.57.36,2,1.45,1.26,3a12.62,12.62,0,0,1-5.15,5.19c-5.75,3.66-11.67,7-18.45,8.46A1.59,1.59,0,0,0,241.6,150.23Z"/><path class="cls-5" d="M207.1,151.58c.53.53,1.13.35,1.67.35,3.54,0,7.07.09,10.6,0,4.32-.15,8.32,1.2,12.32,2.45,1.19.37,2.52,1.08,2.5,2.76,0,1.36-1.1,2.61-2.88,3.14a30.08,30.08,0,0,1-5.76.92c0,.13,0,.25.08.29.38.34,1.32-.12,1.28.57s-1,.67-1.51.72a73.08,73.08,0,0,0-8.61,1.2c-.18,0-.39,0-.52.49h9.06c.32,0,.79-.09.83.34s-.43.54-.82.52c-4.48-.16-9-.33-13.47-.65,2.15-.5,4.23-1.2,6.61-1.89-1.37-.45-2.4,0-3.45.06a42.07,42.07,0,0,0-10.94,1.32,1.81,1.81,0,0,1-2.15-1,1.75,1.75,0,0,1,.49-2.3,5.58,5.58,0,0,1,3.48-1.09c5.64-.33,11.16-1.71,16.83-1.82a45.8,45.8,0,0,0,5.41-.75c-1.23-.4-2.15-.72-3.09-1a15.85,15.85,0,0,0-4.89-.8c-3.77.07-7.54,0-11.31,0a35.75,35.75,0,0,1-4.27-.29c-2.59-.33-3.5-2.5-1.86-4.55a18.32,18.32,0,0,1,6.66-5.06A48.69,48.69,0,0,0,222.68,136a3.11,3.11,0,0,0,.26-.4c-2.48,0-4.68,1-7,1.49-5.18,1.16-10.25,2.77-15.38,4.13-.81.22-1.7-.08-2.47.47-.26.18-.51-.12-.71-.33-.35-.37,0-.6.15-.85,1.06-1.46,2.79-1.75,4.3-2.3,5.29-1.95,10.74-3.41,16.18-4.86a55.89,55.89,0,0,1,6.82-1.19,2.23,2.23,0,0,1,2.56,1.13,2.52,2.52,0,0,1-.59,3c-4.16,3.38-7.42,7.86-12.33,10.34a34.06,34.06,0,0,0-6.93,4.41A6,6,0,0,0,207.1,151.58Z"/><path class="cls-5" d="M49.7,109.79a41.69,41.69,0,0,0,9,.79c1.56-.07,2.4.63,2.45,1.77s-.91,1.91-2.45,2c-4.27.23-8.39-.91-12.6-1.26-1.41-.12-2.82-.44-4.24-.44-3.82,0-7.63-.08-11.45-.31a2.4,2.4,0,0,1-2.18-2.75c0-1.18,1.1-1.52,1.93-1.5,4.26.12,8.37-1,12.59-1.28,5.12-.34,10.22-.92,15.36-.81a8.11,8.11,0,0,0,1.67-.34,33.59,33.59,0,0,0-9.2-2.47c-4.26-.69-8.29-2.28-12.5-3.17a2,2,0,0,1-1.69-2.53,2.08,2.08,0,0,1,2.82-1.18c6.05,2.07,12.3,3.32,18.48,4.88a37.51,37.51,0,0,1,8.26,3.3,2.1,2.1,0,0,1,1.39,2A2.5,2.5,0,0,1,66,108.78a6.64,6.64,0,0,1-2.72.7c-4,.11-7.9.35-11.86.21A16,16,0,0,0,49.7,109.79Z"/><path class="cls-5" d="M158.53,151.61l-3.17-.92c-.52-4.1-1-8.2-1.18-12.33-.29-5.07-.82-10.12-1.06-15.19-.17-3.72-.09-7.45,0-11.17a8.2,8.2,0,0,1,.08-3c.19-.5-.39-.36-.67-.45-1.41-.48-2.89-.75-4.27-1.36-.59-.26-.8-.52-.6-1s.63-.52,1.18-.29a24.63,24.63,0,0,0,5.56,1.33.51.51,0,0,0,.82,0l-.58-.28c-.67-.34-1.27-.82-1-1.65s1.06-.44,1.64-.46a3.28,3.28,0,0,1,1,.12c.57.18.75,0,.77-.58.13-4.87,1.41-9.59,1.89-14.41s1.28-9.9,1.25-14.9c0-.56.23-1.25-.81-1.16a.63.63,0,0,1-.56-.82,1.09,1.09,0,0,1,1.13-.89c3.22.71,6.53.5,9.75,1.13a2.25,2.25,0,0,1,1,.54,1.82,1.82,0,0,1,.56,2.51,1.66,1.66,0,0,1-2.41.48c-1.91-1.3-4.1-1.58-6.29-2.09a41,41,0,0,0,0,5.08,43.65,43.65,0,0,1-.25,9.56c-.44,5-1.35,9.89-1.34,14.9,0,.84.22,1.1,1,1.11.56,0,1.13.24,1.69.24,1.37,0,1.7.87,1.66,2-.05,1.3-1,1.69-2.09,1.61a27.57,27.57,0,0,1-3.22-.59c-.12,0-.31,0-.34,0s.08.17.19.21c.05.35.42.33.63.5s.68.61.46,1.07-.74.48-1.24.35c-1.58-.38-3-1.3-4.67-1.41,0-.12-.11-.25-.24-.15s0,.22,0,.34c.16,1.84.45,3.67.46,5.51a116.24,116.24,0,0,0,1.12,14.43,62.63,62.63,0,0,1,.53,7.1A122.76,122.76,0,0,0,158.53,151.61Z"/><path class="cls-5" d="M172.62,110.32c-.65.94-1.29,1.51-2.16,1.09s-.9-1.29-.8-2.12c.31-2.53.69-5.05,1-7.59.57-5.27,1.8-10.44,2.18-15.74.23-3.11.77-6.19,1.18-9.29a1.1,1.1,0,0,1,1-1c.8-.11.9.52,1.12,1.19.56-1.42,1.51-1,2.31-.53C186,80.35,190,87.1,191.29,95.2c.71,4.31.94,9-1,13.21a51.27,51.27,0,0,1-4.51,7.71,4.51,4.51,0,0,1-5.21,1.22c-2.11-1-4.33-1.92-6-3.67A7.51,7.51,0,0,1,172.62,110.32ZM176.36,77c-.44,6.17-.63,12.18-1.49,18.15-.54,3.79-.83,7.61-1.45,11.4a2.91,2.91,0,0,0,.41,2.66,18,18,0,0,0,6.81,5.24,2.38,2.38,0,0,0,1.64,0c1.55-.41,1.65-1.94,2.37-3a20.92,20.92,0,0,0,3.18-15.37,28.64,28.64,0,0,0-8.77-16.65C178.22,78.67,177.23,78,176.36,77Z"/><path class="cls-5" d="M235.38,83.28c-.24,8.12-1.26,15.1-5.5,21.2-2.2,3.16-5,5.25-9.16,5a3,3,0,0,1-2.16-.89c-2.82-2.84-5.63-5.68-6.26-9.9-.07-.44-.3-.64-.84-.75-1.36-.27-1.85-1.4-1-2.43,2.06-2.37,3.17-5.26,4.62-8,2.16-4,4.25-8.12,6.56-12.07,1.52-2.59,3.62-4.84,4.77-7.68a.81.81,0,0,1,1-.47.79.79,0,0,1,.74.74c0,.29-.06.71.49.4.77-.45,1.24,0,1.82.49,3,2.27,3.65,5.64,4.25,9A23,23,0,0,1,235.38,83.28ZM228,69.44c-1,3.87-3.91,6.61-5.28,10.2a103.32,103.32,0,0,1-7.25,14.41c-.93,1.63-2,2.82-.32,4.46,0,0,0,.08.05.13a16.21,16.21,0,0,0,4.64,6.86,2.18,2.18,0,0,0,1.54.58c2.65,0,4.34-1.52,5.64-3.53,3.32-5.15,4.63-10.91,4.85-17a62.77,62.77,0,0,0-.62-9.39A9.87,9.87,0,0,0,228,69.44Z"/><path class="cls-5" d="M98.56,77.23C98.8,83.17,93.34,87.47,87,85a23.89,23.89,0,0,1-10.12-7.61c-1.52-1.94-3.08-3.85-4.57-5.81A17,17,0,0,1,69.09,63c-.37-3.11,1.94-8.33,6.52-8.85.94-.11,1.84.36,2.81.25a5.18,5.18,0,0,0,2.79-.67c1-.72,2,.38,2.63,1.09a51,51,0,0,0,4.43,4,11.64,11.64,0,0,1,2.59,3.19c1.84,3.31,4.35,6.2,6.12,9.57C97.93,73.46,98.81,75.28,98.56,77.23ZM90.91,82a2.81,2.81,0,0,0,1.94-.52,5.72,5.72,0,0,0,1.58-7c-2-3.78-4.51-7.22-6.85-10.79-1.61-2.46-4.32-3.94-5.83-6.41-1-1.63-2.23-1.7-3.76-1.63-3.58.17-6.84,3.73-6.33,7.23a15.68,15.68,0,0,0,2.61,6.5c1.24,1.84,3.09,3.11,4.3,4.92,2.33,3.51,5.74,5.56,9.48,7.18A7.86,7.86,0,0,0,90.91,82Z"/><path class="cls-5" d="M128.93,43.21c0-6.48,2.93-10.73,8.37-12.37a5.64,5.64,0,0,1,6.18,2c.34.49,1.66.88.73,1.72-.76.69-1.15-.39-1.65-.8-1.85-1.5-5-1.07-7.26,1s-3.76,4.54-3.5,7.84c.59,7.56,2.37,14.7,6.69,21.07,1.47,2.15,3.72,2.7,6,3,1,.15,1.5-1.06,1.81-1.93a20.59,20.59,0,0,0,1.23-8.63c-.43-5.06-.92-10.12-1.68-15.14a42,42,0,0,0-1-4.42,5.1,5.1,0,0,1-.18-1.68c0-.57-.28-1.39.53-1.6s1.34.38,1.76,1a11.08,11.08,0,0,1,1.4,4.12,75.36,75.36,0,0,1,1.82,12.79c.14,2.42.23,4.84.24,7.26a23,23,0,0,1-1.85,8.39c-1,2.6-2.9,3.25-5.66,2.75-4.92-.89-7.54-4.19-9.73-8.3s-2.67-8.63-4-13A16.74,16.74,0,0,1,128.93,43.21Z"/><path class="cls-5" d="M151,149.26l-3.35-.8c-.12-1.28-.22-2.57-.36-3.85a98.46,98.46,0,0,0-2.48-13.51,58.53,58.53,0,0,1-1.58-8.65c-.32-3.31-.51-6.62-.77-9.94-.08-.91.44-2.17-.36-2.64s-1.86-.12-2.82-.12c-2.25,0-2.88.38-3.75,2.53a28.58,28.58,0,0,0-2,10.64q-.06,7,.35,14a103.44,103.44,0,0,0,1.35,12,6.49,6.49,0,0,1-3.07.57c-1-5.73-1.05-11.55-1.38-17.33a66.84,66.84,0,0,1,.23-8.72,37.57,37.57,0,0,1,2.54-12.25,8.4,8.4,0,0,1,1.78-2.85,3.79,3.79,0,0,1,5.11-.55c.36.22.81.28,1.17.49.73.43,1.87-.06,2.31.74.78,1.42,1.75,2.76,1.89,4.5a106.7,106.7,0,0,0,2.11,15.64c.93,4,1.74,8,2.35,12.1C150.66,143.94,150.77,146.61,151,149.26Z"/><path class="cls-5" d="M188,53.25c.57,6.18-1.49,11.7-4.38,17-1.73,3.15-5.26,4.39-8.76,3.91s-5.07-2.66-6-5.71c-2-6.79-1.57-13.62-.07-20.38A20.24,20.24,0,0,1,172.79,40c3.13-4,8.15-3.68,10.76.72a3.12,3.12,0,0,0,1.69,1.66,3.11,3.11,0,0,1,1.82,2.22,14.51,14.51,0,0,1,1,6.52A17.12,17.12,0,0,0,188,53.25Zm-3-.37a31.1,31.1,0,0,0-.34-5.39c-.38-1.71-.49-3.45-1.69-5.1-2-2.78-6.13-3.32-8.09-.49a23,23,0,0,0-3.78,10,45.54,45.54,0,0,0,.53,14.59c.34,1.82.76,3.68,2.74,4.52a5.32,5.32,0,0,0,6.71-2.09c1.62-2.39,2.21-5.18,3.16-7.83S185,55.64,185.06,52.88Z"/><path class="cls-5" d="M195.19,76.42a45.8,45.8,0,0,1,4.89-6.89c2-2.45,3.3-5.41,5-8.1a61.37,61.37,0,0,1,5.52-7.07,1.66,1.66,0,0,1,2.74,1.86,19.08,19.08,0,0,1-3,4.48c-2.68,2.9-4.36,6.43-6.51,9.66a23.81,23.81,0,0,1-2.6,3.39,21.59,21.59,0,0,0-3.74,6,6.61,6.61,0,0,1-1.25,1.89c-.85.88-1.84,1.56-3,1a3.08,3.08,0,0,1-2-3c.19-5.27,0-10.55.76-15.81a68.47,68.47,0,0,0,.4-11.55,31.13,31.13,0,0,1,.26-5.71c.05-.27.17-.54.22-.81.13-.7.45-1.14,1.23-1.1s1,.46,1.13,1.07a17.08,17.08,0,0,1,.51,4.08c0,3,.06,6.09,0,9.13,0,2.8-.41,5.58-.71,8.36a11,11,0,0,0-.05,2.43C195.21,72,195,74.18,195.19,76.42Z"/><path class="cls-5" d="M145,101.16c.46-2,1.08-4,1.36-6,.71-5.07,1.77-10.06,3-15,.4-1.66.53-3.38.8-5.07a5.21,5.21,0,0,1,1.25-2.83,1.5,1.5,0,0,1,2-.34,1.77,1.77,0,0,1,.86,2c-1.1,7.48-3.6,14.66-4.77,22.13a73.64,73.64,0,0,1-2,8.1c-.47,1.73-1.5,2.41-3.36,2.49a1.79,1.79,0,0,0-.7,0c-.54.27-1.09.46-1.52-.1s-.23-1,.34-1.43c.24-.17,0-.41-.09-.62A148.9,148.9,0,0,1,136.36,86c-.89-3.46-1.68-6.94-2.49-10.43-.16-.68.16-1.41-.26-2.09-.2-.33.15-.64.49-.72a.91.91,0,0,1,1.18.52A31.54,31.54,0,0,1,136.65,77a31,31,0,0,0,1.46,4.56c1.74,4,2.44,8.41,4,12.49C143.08,96.41,144,98.77,145,101.16Z"/><path class="cls-5" d="M164,153.9a5.38,5.38,0,0,1-2.66-1.11c-.63-5.37-1.14-10.75-1.45-16.15a38.62,38.62,0,0,1,4.07-20.5c1.09-2.1,2.49-3.77,5.13-3.81a3.6,3.6,0,0,1,1.73.55c.71.35,1.1,1.56,2.25.87.07,0,.45.21.53.4,1.52,3.47,3.13,6.91,3,10.86a173.37,173.37,0,0,1-1.36,19,86.2,86.2,0,0,1-1.55,9,41.05,41.05,0,0,1-1.42,3.93,2.89,2.89,0,0,1-1.75-.77c1.46-3.12,1.78-6.47,2.1-9.85.6-6.2,1-12.4,1.22-18.63.09-3.26.13-6.43-1-9.51-.41-1.12-.51-2.44-1.35-3.31-1.06-1.12-3.72-.91-5.06,1a22.63,22.63,0,0,0-2.72,5.86,35.34,35.34,0,0,0-1.5,10.29,100.74,100.74,0,0,0,.41,11.53C162.89,147.07,163.49,150.48,164,153.9Z"/><path class="cls-5" d="M185.14,161.61c-1-.14-2.16-.11-2.95-1a53.55,53.55,0,0,0,.91-5.31,85.74,85.74,0,0,0,0-14,11.08,11.08,0,0,0-1.08-4.65c-.14-.26-.26-.55-.6-.5s-.22.43-.27.68c-.22,1-.19,2-.35,3-1.09,6.41-2.25,12.81-3.39,19.21l-2.59-1.12c1.21-6.63,2.48-13.26,3.62-19.91.57-3.29,1.58-6.5,2-9.8a16.41,16.41,0,0,0,.16-4.32,3.74,3.74,0,0,1,.26-1.37c.13-.42.33-.79.89-.73s.48.58.52,1c0,.18,0,.38,0,.57,1.59-.26,4.84,1.83,5.34,3.53a12.16,12.16,0,0,1,.65,5.17,4.75,4.75,0,0,1-3.16,3.83c-.46.18-1.05.17-.58,1a18.11,18.11,0,0,1,2,8,64.31,64.31,0,0,1-1.13,16A4.17,4.17,0,0,1,185.14,161.61Zm-2.86-37.14a31.25,31.25,0,0,1-.82,8.83c-.08.28-.27.72.28.91a3.94,3.94,0,0,0,3.79-1.28A5.71,5.71,0,0,0,182.28,124.47Z"/><path class="cls-5" d="M118.88,57.91a26.49,26.49,0,0,1,3.45,5.89,7.08,7.08,0,0,0,8.25,3.83c.48-.14.47-.54.63-.84s.54-.76,1-.55a1,1,0,0,1,.67,1.24c-.62,3-1.32,3.58-4.4,3.59-4.64,0-8.06-2.21-9.68-6.48-1-2.55-2.74-4.63-3.85-7.1-2.52-5.64-5.15-11.22-6.39-17.33-.19-.9-1-1.59-.82-2.64.2-1.3,1.09-1.83,2.18-1.09.55.38.91.19,1.41,0,2.5-.79,5.07-1.34,7.52-2.3a1.51,1.51,0,0,1,2.08,1.9,1,1,0,0,1-1.13.86c-2.85-.19-5.49.74-8.19,1.39-.57.14-.54.37-.4.76,1.88,5.23,3.64,10.51,6,15.55.59,1.25,1.17,1.79,2.65,1.06,1.92-.94,4.11-1.26,6-2.26a.66.66,0,0,1,1,.27.84.84,0,0,1-.3,1.24A13.23,13.23,0,0,1,122.75,57C121.52,57.3,120.29,57.58,118.88,57.91Z"/><path class="cls-5" d="M57.87,72.45c5.67,2.82,10.23,6.92,15.46,10,2.17,1.26,4.2,2.78,6.27,4.21A11.36,11.36,0,0,1,81.25,88a2,2,0,0,1,.26,2.81,1.91,1.91,0,0,1-2.82,0,60.08,60.08,0,0,0-6.74-5c-5.3-3.61-10.47-7.39-15.59-11.25a1.34,1.34,0,0,0-1.89.06,25,25,0,0,0-4.26,4.59A14.71,14.71,0,0,1,49,80.56a1.11,1.11,0,0,1-1.51.23,1.18,1.18,0,0,1-.35-1.64c1.36-2.93,2.76-5.82,5.68-7.62a73.39,73.39,0,0,0,8.16-6.45,10.67,10.67,0,0,1,2.48-1.64,1.66,1.66,0,0,1,2.29.49,1.78,1.78,0,0,1-.44,2.32,16.92,16.92,0,0,1-2.35,2.08C61.06,69.44,59.78,71.21,57.87,72.45Z"/><path class="cls-5" d="M213.28,117.63c-3.73-.53-7.68-4.39-6.93-9.19.18-1.11.88-2,1.87-2,2.83,0,5.8-.08,7.85,2.39a11.6,11.6,0,0,1,2.92,6.46,4,4,0,0,1-1.28,3.32,29.83,29.83,0,0,1-5.55,4.46,22.9,22.9,0,0,0-5.41,5,91.94,91.94,0,0,1-8.36,8.39,1.79,1.79,0,0,1-2.69,0,1.93,1.93,0,0,1-.09-2.72,7.68,7.68,0,0,1,1.54-1.47c3.81-2.89,6.86-6.57,10.3-9.84a39.36,39.36,0,0,1,4.21-3.18A4.15,4.15,0,0,0,213.28,117.63Zm-2.78-8.16c-1.32,0-1.44.09-1.27,1.31.28,2,2.65,4.32,4.61,4.35a3.57,3.57,0,0,0,2.36-.67c.36-.35-.5-1.12-.9-1.66s-.74-1-1.09-1.48A4.18,4.18,0,0,0,210.5,109.47Z"/><path class="cls-5" d="M76.52,97.14c-1,.08-1.41.92-1.94,1.54-1.3,1.51-2.49,3.11-3.74,4.67a5.6,5.6,0,0,1-1,1,1.23,1.23,0,0,1-1.7,0c-.44-.44-.3-1-.07-1.57s1.49-1.09.85-1.88c-.38-.47-1.38-.47-2.11-.63-4.58-1-8.85-3-13.38-4.08a51.33,51.33,0,0,1-12.28-5c-.42-.23-.64-.22-.87.27a8.46,8.46,0,0,0-1.1,2.26.72.72,0,0,1-.82.62c-.42,0-.56-.37-.62-.81a7.18,7.18,0,0,1,.89-3.81,13.85,13.85,0,0,1,3.2-5.12,9.6,9.6,0,0,1,1-.77c.75-.52,1.51-.62,2.11.21a1.37,1.37,0,0,1-.32,2c-.64.57-1.3,1.11-1.94,1.68s-.64,1,.28,1.34c4.34,1.43,8.55,3.16,13,4.36,4.83,1.31,9.74,2.32,14.53,3.74.93.27,1.49.21,2-.7A5.83,5.83,0,0,1,73.81,95a1.73,1.73,0,0,1,1.92-.53,1.65,1.65,0,0,1,1,1.81l0,0c-.34.22-.63.46-.3.9Z"/><path class="cls-5" d="M108.23,156.85l-3.06,1c-2.55-5.37-5.24-10.66-8-15.95-1.62-3.16-2.69-6.6-4-9.91-.45-1.13.27-1.9.93-2.61.26-.27.69-.27,1.06.21A37.1,37.1,0,0,1,97.83,133c1.68,2.75,4,5,5.6,7.84,2.17,4,4.57,7.83,6.88,11.73.58,1,1.19,1.93,1.79,2.89A5.58,5.58,0,0,1,109,156.5l-5.36-9.61c-.1-.19-.19-.38-.28-.57l-4-7.18-.37-.38c-.15.25-.11.44.18.54a38,38,0,0,0,4,7.19c0,.23,0,.49.31.55C104.66,150.49,106.73,153.53,108.23,156.85Z"/><path class="cls-5" d="M205.81,97.75a8.33,8.33,0,0,0-4,.66,1,1,0,0,1-1.4-.49c-.3-.6.16-1,.69-1.19,2-.82,4.25-1.06,6.34-1.81,1.27-.45,2.45,1.52,1.88,3a13.15,13.15,0,0,1-2,3.08c-1.91,2.49-3,5.55-5,7.9-3.82,4.46-6.4,9.78-10.29,14.17-.35.4-.26.59,0,.94a13,13,0,0,1,1.2,1.76,1.64,1.64,0,0,1-.62,2.36,1.68,1.68,0,0,1-2.51-.48,47.62,47.62,0,0,0-4.44-5.73c-.33-.4-.68-.78-.3-1.39a1.32,1.32,0,0,1,1.27-.73c.19,0,.43,0,.56,0,1.87,1.34,2.77,0,3.71-1.3,2.94-4,5.65-8.22,8.87-12,1.87-2.24,2.87-5.14,4.88-7.33C205,98.76,205.35,98.31,205.81,97.75Z"/><path class="cls-5" d="M255.08,118.17c-2.24-2.35-1.71-5.35-1.76-8.2a2.3,2.3,0,0,1,1.56-2.46,3,3,0,0,1,3.43,1.11c1.7,2.24,1.88,4.8,1.54,7.44a2.73,2.73,0,0,0,0,1.36,2.23,2.23,0,0,1-1.79,3,2.21,2.21,0,0,0-.79.29c-3.67,2.53-8.06,3.74-11.69,6.34-2.46,1.76-5,3.46-7.38,5.3-1.56,1.19-3.33,2-5,3a1.66,1.66,0,0,1-2.41-.43,1.69,1.69,0,0,1,.44-2.3,2.58,2.58,0,0,1,.55-.45c2.68-1.44,5.11-3.26,7.64-4.94,1.3-.87,2.54-1.83,3.81-2.75C246.9,121.86,251.1,120.34,255.08,118.17Zm3.15-3.28c.29-1.58-.51-3-1.38-4.32a1.1,1.1,0,0,0-.66-.46c-.32-.06-.33.33-.33.51,0,2-.32,4,.9,5.85.32.48.56.68,1.21.49.84-.25.36-.69.31-1.09S258.25,115.3,258.23,114.89Z"/><path class="cls-5" d="M223.85,115.75c0-.55-.21-1.22.6-1.38s1,.47,1.27,1.06c0,0,.05.08.07.13.92,2.52,1.06,2.63,3,.8,3.25-3.1,7-5.56,10.37-8.49a84.84,84.84,0,0,0,9.13-9.25c.29-.34.84-.77.65-1.15s-.94-.58-1.5-.6a13.22,13.22,0,0,1-3.3-.59c-.47-.14-.94-.33-.86-.94s.72-.52,1.14-.47a27.87,27.87,0,0,1,6,.89c1.7.56,2,2.07.93,3.6a63.52,63.52,0,0,1-13.68,14.24,31.55,31.55,0,0,0-6.2,5.46,4.41,4.41,0,0,1-1.19,1c-1.17.65-2.06,1.28-1.48,2.91a1.52,1.52,0,0,1-1.2,2,1.77,1.77,0,0,1-2.25-1.27,22.89,22.89,0,0,1-1.17-5.37C224.06,117.45,223.94,116.6,223.85,115.75Z"/><path class="cls-5" d="M162.28,69.62c-2.61.32-5.46-1.93-6.52-5-.7-2-1.73-4-2-6.15-.26-1.85.09-3.71-.37-5.55-.79-3.07-.15-6.12.36-9.17a29.74,29.74,0,0,1,1.23-5.07,10.93,10.93,0,0,1,2.91-4.13,2,2,0,0,1,1.4-.62c2.89.16,5.89-.06,8.34,2,.5.42.88.9.56,1.43s-.87,0-1.34-.11a17.31,17.31,0,0,0-7-.56c-.46.05-.75.51-1.06.88-1.87,2.17-2,4.85-2.24,7.47-.11,1.09-.41,2.14-.53,3.21a8,8,0,0,0,.18,3.53c.88,2.66.41,5.59,1.49,8.2.87,2.12,1.33,4.46,3.31,6a7.93,7.93,0,0,0,2.11,1.12c.61.22.93.28,1.18-.41.16-.46.5-.85,1.09-.56s.38.85.28,1.26C165.12,69.22,164.48,69.63,162.28,69.62Z"/><path class="cls-5" d="M120,105.12a5.13,5.13,0,0,1-1,5.21c-.1.09-.23.24-.34.24-3.51,0-7.07.15-9.42-3.29-1-1.41-2.09-2.71-3.1-4.09-2.81-3.86-5.34-7.86-6.57-12.56a17.28,17.28,0,0,1-.45-5.94c.36-4.07,5.64-6.37,8.89-4a5.19,5.19,0,0,1,.87.94c.26.33.35.7,0,1a.65.65,0,0,1-1-.17c-1-1.55-2.59-1-3.69-.66a3.71,3.71,0,0,0-2.53,3.29c-.48,4.38,1.26,8,3.47,11.55a76.14,76.14,0,0,0,6.35,8.4,6.07,6.07,0,0,0,5.35,2.4c.92-.06,1.64-.19,1.88-1.29a1.29,1.29,0,0,1,1.33-1Z"/><path class="cls-5" d="M122.13,152.28c-.89.84-2.06.81-3.17,1-3.82-10.74-6.5-21.82-9.8-32.72a2.89,2.89,0,0,0-1.77,1,.89.89,0,0,1-1.35.22c-.6-.53-.13-1,.11-1.37a4.46,4.46,0,0,1,1.09-1.12A29.47,29.47,0,0,1,112.8,116a3.21,3.21,0,0,1,1.39-.21,1,1,0,0,1,.92.76c.12.34-.25.61-.51.79-1.29.91-2.4,2.1-4,2.52,2.25,2.4,2.92,5.42,3.69,8.38,1.14,4.36,2.58,8.63,3.83,12.95A54.48,54.48,0,0,0,122.13,152.28Z"/><path class="cls-5" d="M116.39,154.22a6.2,6.2,0,0,1-2.81.8,100,100,0,0,0-5.18-12.32c-2-4.24-4-8.49-5.91-12.8-.82-1.88-1.95-3.64-2.31-5.73-.15-.83-.33-1.59.48-2,1-.47,1.42.37,1.86,1.07a75.29,75.29,0,0,1,5.42,11.62c1.35,3.32,3,6.5,4.57,9.68A63.59,63.59,0,0,1,116.39,154.22Z"/><path class="cls-5" d="M202.46,88.58c-1.47,0-2-1.2-1.32-2.7a33.32,33.32,0,0,1,2.62-3.73,36,36,0,0,0,3.41-5.56,23.34,23.34,0,0,1,4.26-6c2-2.37,3-5.34,4.6-8,.41-.69.8-1.4,1.27-2s.81-1,1.55-.51a1.21,1.21,0,0,1,.57,1.7c-2.14,4-3.37,8.47-6.46,11.88-2.28,2.52-3.34,5.69-5.1,8.48a46.63,46.63,0,0,1-4.12,5.79A1.51,1.51,0,0,1,202.46,88.58Z"/><path class="cls-5" d="M190.23,162.76a5.7,5.7,0,0,1-3.12-.79c.71-2.92,1.07-5.92,1.95-8.82.95-3.15,2.5-6.06,3.55-9.17.36-1,.8-2.09.06-3.22a.93.93,0,0,1,.47-1.33c.61-.3,1,.13,1.31.53,1.1,1.47,2.05,3.06,3.27,4.46.56.65,1.19,1.23,1.75,1.88,1.07,1.26,1.2,2.76.28,3.74-.62.66-1.36.75-1.67-.18-.66-2.05-2.35-3.42-3.37-5.67-.86,2.66-1.64,5-2.38,7.36-.33,1-.53,2.1-.88,3.12s.06,1.42,1,1.49,1.71,0,2.57.05a4.82,4.82,0,0,1,1.27.1c.86.25,1.5.76,1.18,1.77s-1.27.92-1.91.6c-1.45-.72-3-.8-4.63-1.35Z"/><path class="cls-5" d="M218.93,171.22a1.09,1.09,0,0,1-.76-.64,9.36,9.36,0,0,0,3.54-1.69c1-.74.86-1.36-.27-1.86a9.19,9.19,0,0,0-2.63-.38,11.65,11.65,0,0,0-6.31.72,1.61,1.61,0,0,1-1.23-.5c2.24-1.53,4.76-1.62,7.34-1.36.94.09,1.86.29,2.79.44s1.62.36,1.85,1.28a2,2,0,0,1-1,2.45A14.25,14.25,0,0,1,218.93,171.22Z"/><path class="cls-5" d="M51.05,169.37c-.13.13-.25.35-.4.38-.88.15-1.94.06-1.76,1.47l-.38-.09c-.17-.34-.33-.67-.49-1a.9.9,0,0,1,.32-1.12.81.81,0,0,1,1,0A1.75,1.75,0,0,0,51.05,169.37Z"/><path class="cls-5" d="M51.55,168.8c.09.28-.18.31-.3.44C51.25,169,51.31,168.85,51.55,168.8Z"/><path class="cls-5" d="M43.53,188.61c1.31-.59,2.51-.88,3.65.48a5.24,5.24,0,0,0,2.1,1.16,6.81,6.81,0,0,1,3.15,3.19,1.08,1.08,0,0,1,.23.94c-.19.49-.54.86.26,1.3.44.24-.31.76-.49,1.17-.35.84-.75,1.57.79,1.59,1,0,2,.69,2.33-.87a.43.43,0,0,1,.24.61c-.08.22-.24.41-.07.75.42,0,.9,0,1.36,0a1.47,1.47,0,0,0,1.44-.73c.22-.49-.59-.58-.9-.9-.94-.94-1.92-1.86-2.81-2.85a1.83,1.83,0,0,1-.27-2.13c.37-.64,1.12-.41,1.8-.38,2.1.09,3.39,1.46,4.61,2.83s.72,2.43-1,3.36a2.72,2.72,0,0,0-1.26,2.09c0,.68-.21.93-.86,1a25.49,25.49,0,0,0-9.05,2.67,7.14,7.14,0,0,0-3.5,2.95c-.34.68-.65.57-.91,0-.68-1.45-1.83-1.63-3.21-1.27a.64.64,0,0,1,0-1,3.33,3.33,0,0,1,3.46.54c.18.16.35.39.55.07.7-1.07,2-1.53,2.84-2.54l-6.82-1.35c-.25-.23-.39-.47,0-.73a27.7,27.7,0,0,0,4.33.88c1.31.18,2.83.92,3.89.5,2.08-.83,4.24-1.35,6.59-2.06a16.4,16.4,0,0,0-4-.86c-1.07,0-.83-.41-.71-.92.21-.89.51-1.75.79-2.7-1.47.25-1.58.27-1.52.59.29,1.45-.68,1-1.27.8-2.42-.76-4.82-1.6-7.22-2.41-.14-.23-.22-.47,0-.7,1.41.13,2.73.84,4.66.84-2-1.23-3.49-2.42-3.59-4.57Zm7.26,6.13c.12,0,.67.09.94-.37s-.08-.81-.31-1.17A6,6,0,0,0,49,190.92a19.54,19.54,0,0,1-3.53-2.07c-.71-.54-1.14-.22-1.36.51a2.92,2.92,0,0,0,1.13,3.16A8.52,8.52,0,0,0,50.79,194.74Zm8.74,2.33a.72.72,0,0,0,1-.38,1.31,1.31,0,0,0-.27-1.45A6.65,6.65,0,0,0,56,192.61c-.25,0-.46-.43-.74-.12a.81.81,0,0,0,0,.94A7.81,7.81,0,0,0,59.53,197.07Z"/><path class="cls-5" d="M81,184c-.59.4-1.82.1-1.59,1.46,0,.19-.33.24-.54,0a5.21,5.21,0,0,0-.72-.69c-.7-.49-1.35-.65-1.61.46a1.29,1.29,0,0,0-.08.28c-.19,1.26-1.92,2.6.74,3.7l-.6.16-1.25-.8c.09,1-.44,1.84.3,2.61.17.18.18.33,0,.45a.7.7,0,0,1-.92,0c-1.09-1.07-2.48-1.86-2.07-3.89.27-1.28.47-2.87-1-3.93-.23,1.16-.45,2.26-.66,3.37-.09.48-.28,1.12-.74,1s-.37-.71-.25-1.2q.67-2.69,1.24-5.39c.33-1.56,1.16-1.88,2.47-.91.19.14.36.3.76.64a17.26,17.26,0,0,1-.26-5.11c.78.79,1.94,1.28,2,2.61.07.41.14.83.22,1.24a2.61,2.61,0,0,0,2.89,2.19A2.76,2.76,0,0,1,81,184Zm-6.77,4.4,1.53-3.5c.41-.93.5-1.77-.82-2.29.57,1.41-1.58,1.26-1.28,2.34a10.54,10.54,0,0,1,.52,3S74.23,188.08,74.27,188.4Zm-2.41-6c-.18.61.24,1,1.1,1.07.44,0,1.06.08,1-.6a2.18,2.18,0,0,0-1.47-2.07C71.89,180.62,72,181.55,71.86,182.36Z"/><path class="cls-5" d="M231.57,194.64l-.63.51c-.09-.1-.18-.15-.19-.22-.09-.53.63-1.13,0-1.58a1.86,1.86,0,0,0-1.9.1,15.55,15.55,0,0,0-4.5,3.43,1,1,0,0,0-.36,1c.1.27.88.26.36.77a1,1,0,0,1-1.21,0,.86.86,0,0,1-.54-1,4.78,4.78,0,0,1,1.43-2.22l.3-.39c-.24-.14-.41,0-.52.18-.29,0-.57,0-.86,0-1.69,0-2-.27-2-2,0-.34,0-.67,0-1-2.08.11-2.37-.26-2.05-2.32.4-2.62,1.71-5,2.34-7.5.14-.56.52-.44.71-.19a31.52,31.52,0,0,0,2.43,2.2.93.93,0,0,1,.34,1c-.2.47-.53.49-.81.07-.09-.14,0-.43-.1-.54-.52-.54-1.08-1-1.73-1.66a25.92,25.92,0,0,0-1.39,4.34c-.3.93,1,.64,1.1,1.34-.51.49-.93-.75-1.43,0s-.18,1.29-.27,1.94.28.6.62.78c.54.29.53-.21.67-.43a12.46,12.46,0,0,1,2.12-2.67c1.26-1.12,3.2-1.35,4-.46s.68,3-.53,4.22c-.46.45-.88.93-1.55,1.64,1.86-.63,3.23-1.87,5-1.65A2.48,2.48,0,0,1,231.57,194.64Zm-9.73-1.73c-.07,1.38.48,1.81,1.67,1.15a7.65,7.65,0,0,0,3.61-4.29c.44-1.25-.07-1.79-1.37-1.6C224.08,188.42,221.93,191,221.84,192.91Z"/><path class="cls-5" d="M56.68,171.07c1.6.15,3.19-.43,4.81,0a8.92,8.92,0,0,1,2,.72c.74.4,1.34.88,1.28,1.85a1.81,1.81,0,0,1-1.53,1.65c-3,.59-5.83,2.06-9,1.67-.43-.05-1-.23-1,.6s.49.75,1,.72c2.2-.13,4.25-1,6.43-1.24s4.07-.31,6.11-.46c.32,0,.55.12.77.52a11.9,11.9,0,0,1-4.32.55c-3.21.06-6.26,1.1-9.45,1.23-1,.05-.08,1.19-.88,1.7-.6-2-.67-4.13-1.45-6.05C52.57,172.44,54.59,171.7,56.68,171.07Zm-2.06,5.19a26.44,26.44,0,0,0,7.64-1.95c.53-.19,1.25-.45,1.23-1s-.79-.91-1.38-1.06a13.41,13.41,0,0,0-7.92.61,3.07,3.07,0,0,0-1.3,1.07c-.32.4-.77.87-.39,1.38s.61,1.12,1.41.93A2.81,2.81,0,0,1,54.62,176.26Z"/><path class="cls-5" d="M193.7,188.55c2.1.73,3,1.88,2.9,4,0,.63.08.82.76,1a9.28,9.28,0,0,1,4.72,2.45c.78.85,1.14,1.72.37,2.76h0c-.52.42-1.36.46-1.28,1.54.05.66-.82.86-1.41.92-2.34.21-4.55-.55-6.79-1.06-.53-.12-.31-.48-.24-.79.21-.78.43-1.55.64-2.33.1-.39.26-.84.72-.67s.14.54,0,.85c-.89,2.86-.65,2.16,1.63,2.6l.43,0c.51.1,1.11.33,1.22-.48.08-.64.58-1.33-.41-1.83a4.62,4.62,0,0,1-2.74-2.89c-.1-.38-.41-.47-.74-.59a3.7,3.7,0,0,1-2.44-2.91c0-.49.36-.58.76-.57a2.67,2.67,0,0,0,2.28,2.82c.95,0,1.65-.31,1.66-1.45a2.77,2.77,0,0,0-2.73-2.85A.67.67,0,0,1,193.7,188.55Zm2.83,5.74c-.52.11-1.05-.19-1.27.3s.25.86.63,1.13a14.28,14.28,0,0,0,4.46,2c.34.09.88.31,1.17-.13s-.09-.92-.42-1.2A9.45,9.45,0,0,0,196.53,194.29Zm1.85,4.27c.25.51-.61,1.27.37,1.48.54.11,1.35.06,1.34-.62C200.07,198.48,199,198.76,198.38,198.56Z"/><path class="cls-5" d="M196,187.2a18.64,18.64,0,0,0,2.19,2.59c.26.31,1,.64.44,1.1s-.77-.32-1.06-.62c-1-1-1.58-2.25-2.67-3.11A1.3,1.3,0,0,1,196.2,186,8.61,8.61,0,0,0,200,187.5l-1.83-3.59c-.18-.42.09-.45.39-.46.89,1.38,1.85,2.73,2.66,4.16.43.77.17,1.91,1.46,2.35-1.4-.21-1.71.48-1.49,1.47a6,6,0,0,0,3,4.09c.18.1.42.28.54-.09l-.14.18.18.08-.08-.24a7.91,7.91,0,0,1-.1-6.08c.21-.58.56-.89,1.15-.81.33.05,1-.11.67.66-.28,0-.57,0-.76.28-.87,1.24-.61,4.83.43,5.91.3.31.63.7,1.08.59s.3-.71.32-1.09a9.93,9.93,0,0,0-1.1-4.75c-.16-.34-.46-.64,0-1,1,.09,1.08,1.07,1.4,1.7a8.63,8.63,0,0,1,.82,4.54c-.06.87-.36,1.55-1.41,1.58a6.45,6.45,0,0,1-6.41-4,3.51,3.51,0,0,1-.16-3.38c.32-.55,0-.59-.35-.76-1.37-.62-2.73-1.26-4.1-1.9-.11,0-.3-.08-.33,0S195.87,187.16,196,187.2Z"/><path class="cls-5" d="M224.18,223.16a22.58,22.58,0,0,1-5.87-4.11,1.31,1.31,0,0,0-.58-.38c-.4-.1-1.3.51-1.1-.38.14-.67,1-1.26,1.71-1.6.17-.08.33.14.31.36-.06.68.61.72.93,1.14a5.62,5.62,0,0,1,1.41-4.62,2,2,0,0,1,2.16-.79c2.63.26,5.28.24,7.89.72.15.51,0,.86-.56,1-2.7-.12-5.4-.25-8.11-.34-.94,0-1.89,1.14-2,2.36,0,1.05.83,1.28,1.51,1.33,2.07.16,4.15.26,6.08-.77a1.66,1.66,0,0,1,1.33-.34c-.58.78-1,1.66-2,2.06a9.51,9.51,0,0,1-7.53-.52c1.33,1.94,3.37,2.76,5.15,3.94A1,1,0,0,1,224.18,223.16Z"/><path class="cls-5" d="M232.75,207.25a21,21,0,0,0-5.53.36,32.38,32.38,0,0,1-3.26.31c-.47,0-1.24-.12-1.18-.55.23-1.79-.84-.81-1.41-.7a16.18,16.18,0,0,1-3.25.3c-.87,0-1.87-.26-2.14,1.05a.44.44,0,0,1-.69.23.6.6,0,0,1-.32-.72,10.93,10.93,0,0,0,.34-2.59c2,1.57,4.17.72,6.37.7-.31-.65-.88-.75-1.28-1.15a3,3,0,0,1,3,1.49l9.41-3.75c.39.25.3.62.22,1l-7.74,3.49.08.24,7.45-.81A.76.76,0,0,1,232.75,207.25Z"/><path class="cls-5" d="M217.6,175.9l-4.51.41c1.43.16,2.79.57,4.17.82.46.08,1,.24,1,.69s-.6.44-1,.46c-1.76.11-3.44-.51-5.16-.72a48.14,48.14,0,0,1-4.92-.7c-1.53-.34-2.83.34-4.18.82a25,25,0,0,1,2.37-3.73,1.23,1.23,0,0,1,1.36-.49,12.17,12.17,0,0,1-.88,2.61l9.38-1-6.57-1.7c.9-.46,1.86-.05,2.78-.18A8,8,0,0,0,215,174C216,174.47,217.19,174.67,217.6,175.9Z"/><path class="cls-5" d="M201,226.43c0-1.13-.27-2.24-.15-3.4a3.71,3.71,0,0,1,1.66-3.12c.82-.47,1.81,0,3.18,1.27.41-.34-.36-1.19.42-1.24.56,0,.73.67.92,1.16a54.16,54.16,0,0,0,3.42,8.18,1.91,1.91,0,0,1-1.16,0,36.27,36.27,0,0,1-2.24-5,20,20,0,0,1-.86,4.76c-.38.36-.58.13-.74-.21,1.17-2.7.74-5.93-1-7.56-1-1-1.9-.84-2.36.51-.76,2.24-.13,4.35.83,6.4-.77-.24-1.54-.48-1.76-1.41,0-.16.07-.36-.21-.34Z"/><path class="cls-5" d="M232.14,210.42c-2.29-.16-4.55.42-6.83.33a19.72,19.72,0,0,0-3.27.52.53.53,0,0,0-.33.24c-1,2-2.65,1.12-4.05.84a10.35,10.35,0,0,1-3.47-1.07c-.34-.21-.76-.3-.62-.76s.64-.52,1.08-.39c1,.31,2,.68,3.08,1a5.29,5.29,0,0,0,1.26.14c.43,0,.62-.12.39-.59a1.76,1.76,0,0,1-.12-.69c0-.64.05-1.29.7-1.57s1.1.15,1.49.58.58.75.88,1.15c.43-.23.4-2,1.52-.41.27.38,1.56.17,2.35.05a31.44,31.44,0,0,1,6-.12A.47.47,0,0,1,232.14,210.42Zm-11.92-1.34c-.13.93-.27,1.67.48,2.11.28.16.53-.2.6-.47C221.51,209.92,221,209.57,220.22,209.08Z"/><path class="cls-5" d="M50.17,224.51a29.86,29.86,0,0,1,2.31-5.57c.45-.69-.09-1.05-.35-1.49s-.47-.89.09-1.21.78.09,1.12.5c.7.82,1,2.13,2.47,2.16.38,0,.52.71.65,1.18.59,2.24,1.21,4.46,1.81,6.69-.34.45-.64.1-1,0q-.8-2.58-1.61-5.16l-.28,0-.53,4.55c-.29,0-.64.11-.82-.27l.81-6.15c0-.12,0-.23,0-.34l-.2.18a1.35,1.35,0,0,0-1.61.86c-.74,1.5-1.49,3-2.09,4.55A.62.62,0,0,1,50.17,224.51Z"/><path class="cls-5" d="M61.26,227a18,18,0,0,1-.25-3.67,2.37,2.37,0,0,1,1.26-2.49c.95-.4,1.59.5,2.21,1.12a3.32,3.32,0,0,1,.35.61c.12-.34.15-.42.17-.5.09-.46-.71-1.08,0-1.34s.84.62,1,1.08a30.41,30.41,0,0,0,2.63,5.45H67.34l-1.29-2.45-.23.08.63,2.39a1.16,1.16,0,0,1-1.14,0,9.76,9.76,0,0,0-2-4.69c-.59-.63-1.09-.47-1.12.28-.06,1.4-.33,2.83.26,4.19A.8.8,0,0,1,61.26,227Z"/><path class="cls-5" d="M190.35,200.93c.41.45,2,.19.9,1.61-.26.34.37.59.84.42a19.85,19.85,0,0,1,4.52-1c.83-.09,1.54.34,2.33.16a.44.44,0,0,1,.47.56.69.69,0,0,1-.75.52,14.78,14.78,0,0,0-4.09.31,5.09,5.09,0,0,0-2.72,1.35l5.23.36a11,11,0,0,0,1.15,0c.47,0,.92.11.88.65s-.45.56-.88.52l-5.54-.43-1.56-.11a1.28,1.28,0,0,1-.52-1.24C190.8,203.36,190.34,202.16,190.35,200.93Z"/><path class="cls-5" d="M41.47,209.24a138.87,138.87,0,0,1,13.66-5.18c.53-.18,1.07-.34,1.61-.47.33-.08.71-.11.82.33a.65.65,0,0,1-.47.78c-.6.23-1.23.42-1.83.67-4.47,1.83-9.16,3-13.74,4.51C41.13,209.7,41.43,209.46,41.47,209.24Z"/><path class="cls-5" d="M232.52,198.34a3,3,0,0,0-2.72-.39c-2,.66-4.25,1.1-5.39,3.31-.49,1-.19,1.11.72,1.12a10.82,10.82,0,0,0,7.61-2.67l0,1c-2.39,2.16-5.27,2.67-8.35,2.51-1.34-.07-1.56-.43-1.11-1.7a5,5,0,0,1,3.11-3.23c1.9-.73,3.67-1.81,5.83-1.16C232.54,197.48,232.92,197.8,232.52,198.34Z"/><path class="cls-5" d="M69,227c-.46-1.82-.9-3.65-1.38-5.47-.14-.52-.3-1.1.27-1.36s1,.11,1.27.62A5.87,5.87,0,0,0,71,223c0-1-.83-1.51-1.11-2.26-.15-.38-.88-.79-.31-1.16s.92.32,1.16.73a27.23,27.23,0,0,1,2.61,4.84,2.88,2.88,0,0,0,.3.47c-.1.64-.61.69-1.1.76a13.84,13.84,0,0,0-3.5-3.59,14.56,14.56,0,0,0,.71,3.95C69.54,227,69.32,227.22,69,227Z"/><path class="cls-5" d="M42.32,213.94a12.28,12.28,0,0,1,4-4.16,3.62,3.62,0,0,1,.58-.41c.88-.37,1.9-.86,2.65-.08a2.34,2.34,0,0,1,.1,2.56c-1.08,2.56-2.66,4.61-5.59,5.2-.46-.06-.61-.32-.5-.76,2.91-.36,4.17-2.46,5.19-4.85.21-.51.45-1,0-1.43s-.91.05-1.29.25a10.47,10.47,0,0,0-4.56,5.07C42.17,215.08,42.19,214.53,42.32,213.94Z"/><path class="cls-5" d="M86.53,195.29c-.31.06-.6.32-1,.05.27-.41,1.21-.61.74-1.32a1.47,1.47,0,0,0-1.8-.46,10.63,10.63,0,0,0-3.2,1.44c-.88.69-1.49,1.51-.54,2.62-1.2.19-1.3.1-1.37-1a2.21,2.21,0,0,1,.83-2c1.84-1.35,3.78-2.51,6.38-1.73a11.59,11.59,0,0,1-.58-4.26c.87.93,1.73,1.85,2.59,2.79.16.17.33.36.1.6A21.67,21.67,0,0,0,86.53,195.29Z"/><path class="cls-5" d="M210.62,229.26c0-2.58-1.09-5-1.49-7.48-.09-.56-.46-1.19.1-1.53.73-.44,1,.29,1.38.8a35.22,35.22,0,0,0,5.65,6.83c-.34.5-.85.2-1.28.27-1.79-1.39-3-3.29-4.56-5-.24,1.12.41,2,.58,3s.36,1.94.54,2.92C211.3,229.37,211,229.29,210.62,229.26Z"/><path class="cls-5" d="M73.84,175.71c-.43,1.47-3.1,1.69-4.4.3a7.33,7.33,0,0,1-1.82-4.34,3.23,3.23,0,0,1,.22-2c.69.57,1.6.87,2.12,1.66.05,2.84,1,3.87,3.68,4.13Z"/><path class="cls-5" d="M79.09,215.44c-1.47-.35-1.58-.62-1.08-2.68a16.74,16.74,0,0,1-6.18-1.83c-.38-.18-1-.44-.7-1s.86-.45,1.36-.2A12.82,12.82,0,0,0,76,211c.45.08.7.2.71-.37,0-.78.38-1.17,1.16-1s.67.92.61,1.52c0,.4-.47.74-.18,1.27.64-.61,1.3-1.24,2.28-.65.23.38.08.57-.31.65-1.1-.27-1.65.24-1.84,1.29-.15.78.14,1.15.93,1.11C79.84,215.32,79.08,215.2,79.09,215.44Z"/><path class="cls-5" d="M42,195.11c1.8,1.7,4.33,2.08,6.33,3.44.38.25,1,.29.87.92s-.77.57-1.25.57a28.2,28.2,0,0,0-6.8.38c-.43-.29-.14-.55.05-.8l5.86-.86c-1.79-1.22-3.77-1.71-5.29-3C41.76,195.51,41.71,195.24,42,195.11Z"/><path class="cls-5" d="M219.91,226.47a67.52,67.52,0,0,1-5-5c-.61-.58-1.66-1.52-1.11-2.14s1.27.53,1.82,1c2,1.74,3.49,4,5.63,5.53C220.85,226.26,220.52,226.67,219.91,226.47Z"/><path class="cls-5" d="M200.61,181.08a8.27,8.27,0,0,0,2.44-.77c.29.57-.15.55-.35.65-1.56.71-1.54.69-.57,2.17a25.84,25.84,0,0,1,1.57,2.69c.35.73.47,1.59,1.6,1.37a.43.43,0,0,1,.49.41c0,.46-.34.51-.66.59a9.94,9.94,0,0,1-3.28-.39c1.86-.41,1.07-1.41.73-2.24a24.55,24.55,0,0,0-2.3-3.89Z"/><path class="cls-5" d="M84.51,201.51a6,6,0,0,1-2.92.36c-1.3-.29-1.63-1-1-2.13a5.29,5.29,0,0,1,5.35-2.29.84.84,0,0,1-.23.8c-1.73-.58-2.88.49-4.07,1.44a1,1,0,0,0-.39,1c.11.4.59.4,1,.48,1,.2,1.72-.47,2.61-.57C85.08,201,84.55,201.19,84.51,201.51Z"/><path class="cls-5" d="M216.22,227.89c.26-.92-.47-1.47-.86-2.11-1-1.61-2.05-3.15-3-4.74-.22-.34-.75-.79-.19-1.19s.85.15,1.09.54a71.32,71.32,0,0,1,4.1,7.22C217,228.05,216.58,227.75,216.22,227.89Z"/><path class="cls-5" d="M46.11,220.3a54.82,54.82,0,0,1,3.93-6c.21-.27.34-.69.71-.49s.25.65,0,1c-1.07,1.55-2.16,3.09-3.2,4.67a3.33,3.33,0,0,0-.86,2.45A1.49,1.49,0,0,1,46.11,220.3Z"/><path class="cls-5" d="M58.65,226.77c-.17-1.83-.36-3.66-.5-5.5,0-.36-.23-1,.44-1,.52,0,.39.53.43.9l.6,5.63A.65.65,0,0,1,58.65,226.77Z"/><path class="cls-5" d="M75.35,223.27a11.8,11.8,0,0,1-2.92-3.22c-.18-.34-.49-.71-.13-1s.77.11,1,.4c.48.57.84,1.26,1.37,1.78.37.38.64,1.18,1.46.75C76,222.44,75.88,223,75.35,223.27Z"/><path class="cls-5" d="M189.66,196c.73.53,1.44,1.07,2.18,1.59.54.38.95.8.67,1.53l-2.24.13C190.07,198.18,189.87,197.1,189.66,196Z"/><path class="cls-5" d="M82.53,206.58c-.37,0-.75,0-1.11-.11a.75.75,0,0,1-.64-.67.74.74,0,0,1,.48-.79c.87-.43,1.76-.81,2.64-1.21a.88.88,0,0,1,0,.28C83.54,205,82.73,205.6,82.53,206.58Z"/><path class="cls-5" d="M198.27,223.34c.11-1.32.22-2.64.32-4,0-.33,0-.76.43-.76s.47.49.43.86c-.18,1.75-.37,3.49-.56,5.23C198.25,224.45,198.42,223.82,198.27,223.34Z"/><path class="cls-5" d="M195.1,217.33c.29-.32.29-1.06.91-.86.44.14.58.67.61,1.17a16.72,16.72,0,0,1,.22,3.53Z"/><path class="cls-5" d="M189.34,193.68l3.53.94c.44.12.91.38.79.83-.18.62-.84.41-1.19.24a15.35,15.35,0,0,0-3-1.15C189.28,194.28,189,194,189.34,193.68Z"/><path class="cls-5" d="M77.39,219.14c-.65-.54-1.33-1-1.93-1.63-.36-.34-.74-.75-.41-1.34l0,0c1.42-.1,1.67,1.38,2.61,1.93C77.66,218.49,77.73,218.87,77.39,219.14Z"/><path class="cls-5" d="M81.64,209.23c-1-.1-1.64.1-1.47,1.32,0,.28-.08.75-.5.69s-.23-.5-.18-.78a8,8,0,0,0,.14-2.34l0,0c.58.05.1-.87.85-.75-.25,1-.07,1.75,1.22,1.63A.13.13,0,0,0,81.64,209.23Z"/><path class="cls-5" d="M193.48,213.49a2.87,2.87,0,0,1,2,2.23c-.62.45-1-1.29-1.46.07C193.28,215.16,193.6,214.27,193.48,213.49Z"/><path class="cls-5" d="M191.17,206.44c1.22.62.87,1.7.81,2.7A6.57,6.57,0,0,1,191.17,206.44Z"/><path class="cls-5" d="M84.78,200.64l.26-.25C85,200.51,85,200.74,84.78,200.64Z"/><path class="cls-5" d="M46.67,221.83c.34,0,.31.25.31.48Z"/><path class="cls-5" d="M65.4,207.69c-.2.11-.58.21-.58.33,0,1.43-.5,2.91.45,4.25-.74.39-1.24-.17-1.83-.43.87-.61.75-3.88-.26-5.29l-.81,4.89c-.88-1-.21-2-.07-2.87.27-1.67.32-1.74-1.31-1.32-3,.78-5.83,2.13-8.85,2.93-1.07.29.3,1.19-.06,1.78-.95-.57-1.73-2.8-1.26-3.72.14-.26.3-.51.66-.38a.45.45,0,0,1,.26.69,1,1,0,0,0,0,1c3-1.06,5.9-2.49,9.22-3.45-1.5-.82-3.36-1.15-2.73-3.22.49-1.64,2.07-.4,3.08-1-.11-.82-1.54-1.21-.83-2.35.29-.46.48-1,1.12-.9s.61.52.59,1c0,.69.61.77,1,1.1.59.55,1.21,1.06,1.94,1.71l-.82-4.59a3.7,3.7,0,0,1,3.24.21H65c.07,1.84,1.07,3.27,1.51,5.13.85-1.08.86-2.22,1.55-3,.32-.38.61-1.14,1.12-.8s1.58.48,1.58,1.6a6,6,0,0,1-1.11,2.82,12.81,12.81,0,0,1,1.92-.09c.44,0,1.25-.18,1.12.66a.89.89,0,0,1-1.31.77c-.11-.55.57-.28.59-.74a4.36,4.36,0,0,0-3.85,1.14c-.19.19-.3.33-.54.26a.37.37,0,0,1-.24-.56c.5-.64-.05-.94-.35-1.32-.69.59-1-1.62-1.93-.21-.28.42-.73-.15-.91-.54a4.58,4.58,0,0,0-1.93-2c-.22.95.58,1.19,1,1.63s.87.82.63,1.58a2.49,2.49,0,0,0,1.5,3.4Zm-3.85-2.44c.5-.1,1.18.18,1.37-.48s-.39-.83-.75-1.11a11.69,11.69,0,0,0-1.8-1.15c-.52-.25-1.18-.32-1.51.31a1.14,1.14,0,0,0,.45,1.61A6.24,6.24,0,0,0,61.55,205.25ZM70,201.16c-.15-.23.12-.77-.5-.79-.36,0-.73-.13-1,.31a5,5,0,0,0-.72,2.72c0,.52.38.88.83.42A4.12,4.12,0,0,0,70,201.16Zm-8.83-.46c.7-.36.83-.82.62-1.36-.06-.16-.29-.42-.55-.17C60.74,199.61,61,200.1,61.15,200.7Z"/><path class="cls-5" d="M70.67,216.56l-1-1.86c-.26-.51-.75-1-.36-1.64s.94.09,1.41-.09a.28.28,0,0,0,.35.27c.06,0,.09-.11.14-.16-.16-.1-.3-.35-.51-.07,0-.68-1.51-1-.59-1.76.74-.64,1.26.41,1.69.76a38.91,38.91,0,0,1,3,3.05c.36.37,0,.8.22,1.14l0,0-4.4-1.55c.44.92.82,1.63,1.12,2.37.21.53.38,1.2-.13,1.59s-1,0-1.54-.3A9.05,9.05,0,0,1,68,215.67a3.88,3.88,0,0,0-1-1.06c.13,1.29.59,2.49.12,3.76-.23.6-.43,1.31-1,1.41s-1.22-.45-1.5-1.1c-.62-1.47-1.42-2.89-1-4.6.17-.65.41-1.19,1.09-1.35s1.07.42,1.49.88c.27.3.16,1,.88.84.15-.22,0-.31-.18-.37.07-.43-.39-1,.16-1.26s.74.45,1.09.73c1,.87,1.37,2.3,2.38,3.21a.78.78,0,0,0,.53.7C71.13,217.05,70.86,216.82,70.67,216.56Zm-5,2.52a4,4,0,0,0-.44-5.09.7.7,0,0,0-.49-.2c-.36.08-.3.42-.33.69C64.25,216.17,65.22,217.53,65.7,219.08Z"/><path class="cls-5" d="M66.12,188.67a6.57,6.57,0,0,1,2.11,6.3c-.29,1.39-1.15,1.68-2.22.82-1.6-1.3-2.29-5.46-.92-7,.65-.7.2-.82,0-1.27-1.35-2.41-2-4.92-.6-7.53.45-.86,1-1.92,2.19-1.69a2.71,2.71,0,0,1,2.44,2.39,10.76,10.76,0,0,1,0,4.79A4.06,4.06,0,0,1,66.12,188.67Zm2.31-5.55c.22-.86-.22-1.82-.26-2.81a1.19,1.19,0,0,0-1-1.17,1.37,1.37,0,0,0-1.59.57c-1.62,2.07-.8,5.57.43,7.34.41.6,1,.34,1.39-.19A5.07,5.07,0,0,0,68.43,183.12Zm-2.84,6c-.43,2.2-.61,4.09.65,5.83.19.26.44.55.81.45a.77.77,0,0,0,.5-.78A6.3,6.3,0,0,0,65.59,189.13Z"/><path class="cls-5" d="M60.58,216.5c.64-1.16.34-2.18.44-3.15,0-.39,0-.88.53-.86s.36.58.35.91c-.08,1.67-.17,3.33-.3,5,0,.31.22.83-.43.87-.48,0-.64-.27-.8-.65a17.71,17.71,0,0,1-1.44-5c-.73.86-.68,2-1.19,2.82-.22.38-.29,1.08-.94.74s-.1-.75.08-1.08a42.39,42.39,0,0,0,1.88-4.75,15.63,15.63,0,0,0-4.55,3.15c-.11.11-.25.28-.05.48s.9.37.34.78c-.33.25-.67-.25-.91-.52-.42-.49-1-.92-.86-1.87.61.5,1.15.63,1.57-.15.76-1.44,2.62-1.75,3.38-3.26.23-.47.68.08.87.33a7.66,7.66,0,0,1,1.61,4A18,18,0,0,0,60.58,216.5Z"/><path class="cls-5" d="M48.31,186.34c2.3,1.32,3.68,3.48,5.93,4.52.21.1.56.29.33.64s-.57.09-.84-.07A11.88,11.88,0,0,1,50.41,189a18.54,18.54,0,0,0-2.89-2.33c-.43-.34-1.06-.71-.76-1.38.36-.82,1-.23,1.48-.11a23.66,23.66,0,0,1,5,2.09c.4.2.75.58,1.39.45-.67-2-2.51-3.16-3.42-5a1.09,1.09,0,0,1,1.52.51c1.29,1.83,2.62,3.63,3.9,5.46.22.31.62.69.16,1.13a.86.86,0,0,1-1.18,0,42.11,42.11,0,0,0-4.78-2.77A4.2,4.2,0,0,0,48.31,186.34Zm6.53,1.84c0-.09.1-.17.09-.24s-.1-.14-.16-.2a1.58,1.58,0,0,0-.09.31S54.78,188.13,54.84,188.18Z"/><path class="cls-5" d="M73.05,200.32a.87.87,0,0,1-.65-.53c-.43-.77-1.18-1.29.23-2.17A8.57,8.57,0,0,0,75.7,194a5.87,5.87,0,0,0,.85-2.55c0-1.8,2.11-3.79,3.85-4.15,1-.21,2,.8,1.87,2.56-.15,2.11-2.34,4.17-4.41,4.58a3.36,3.36,0,0,0-2.54,1.54,24.48,24.48,0,0,1-1.38,2.15A5.29,5.29,0,0,0,73.05,200.32Zm8.42-11.06c0-1.29-.41-1.53-1.58-.94a4.37,4.37,0,0,0-2.61,4c0,1.13.42,1.52,1.48,1.11A6.43,6.43,0,0,0,81.47,189.26Z"/><path class="cls-5" d="M75.07,204.67c-.37,0-.75.06-.95-.27a22.36,22.36,0,0,1-1.11-2c-.51-1,.59-1.22,1-1.74.76-1,1.63-1.86,2.45-2.78a1.83,1.83,0,0,1,1.88-.67c.66.21.7,1,.67,1.61a8.07,8.07,0,0,1-2.8,5.42A1.39,1.39,0,0,1,75.07,204.67Zm2.86-7.12c-1.3,1.61-2.15,3.3-3.58,4.5-.73.61-.28,1.07.1,1.55s1,.28,1.31-.13a11.14,11.14,0,0,0,2-3.08A4.06,4.06,0,0,0,77.93,197.55Z"/><path class="cls-5" d="M65.38,207.72c1,.45,1,.44,1.42-.35a1.78,1.78,0,0,1,1.62-1,9,9,0,0,1,2.42.23c.55.15,1.32.18,1.29.85A1.74,1.74,0,0,1,71,208.94a6.25,6.25,0,0,1-2.7.18c.09.84,1.18,1.11.94,2.12-1-.67-1.79-1.64-3-2-.09,1.13,1.08,2,.56,3.15-.72-1.47-1.81-2.82-1.37-4.67Zm4-.63c-.47.44-1.71-.33-1.7.56s1.24.77,2,.81a3,3,0,0,0,.84-.1c.27-.07.54-.19.54-.55a.58.58,0,0,0-.61-.63Zm-1.68,2.09.39.15a1.5,1.5,0,0,0,.09-.22,2.42,2.42,0,0,0-.35-.12S67.76,209.11,67.71,209.18Z"/><path class="cls-5" d="M70.27,196.13a19.19,19.19,0,0,0,2-4.23c.12-.36.24-1,.83-.72s.26.73.09,1.08c-.79,1.6-1.61,3.19-2.44,4.78-.33.64-1,1-1.17.12a16.89,16.89,0,0,1-.3-7.35l.43,0Z"/><path class="cls-5" d="M60.75,188c-.71,1-2,.69-2.87,1.35-.2.15-.42-.45-.21-.6.86-.63.23-1.29,0-1.89-.55-1.8-1.66-3.36-2.27-5.16-.39-1.17-1.18.28-1.83-.16a5,5,0,0,1,3-1.35c.29-.05.61-.07.66.31s-.27.33-.5.32c-1,0-.7.58-.47,1,1,1.85,2,3.66,2.92,5.52C59.58,188.15,60.3,187.39,60.75,188Z"/><path class="cls-5" d="M58.75,180c1-1.09,2.5-1.26,3.84-1.67.23-.07.43.19.43.46s-.25.38-.5.36c-1.54-.09-1.1.76-.8,1.6a51.84,51.84,0,0,0,2.16,5.5c.25.51.39,1.08-.2,1.32s-.78-.32-1-.77A50.45,50.45,0,0,1,61,181C60.47,179.36,60.33,179.33,58.75,180Z"/><path class="cls-5" d="M79.63,208.12c-2.15.31-4.29-.57-6.45,0-.4.09-.4-.3-.42-.58a2.73,2.73,0,0,1,.41-1.81c1.23,1.43,3,1,4.56,1.14,1,.09,1-.26,1.37-.1a1,1,0,0,1,.48,1.43Z"/><path class="cls-5" d="M60.38,191.31c.22-.7.41-1.38.64-2,.17-.48.59-.45,1-.32a.83.83,0,0,1,.51.92c0,.2-.06.4-.31.22-.68-.5-.56.15-.59.43a5.77,5.77,0,0,0,2,4.65,1.85,1.85,0,0,0,.36.23c.24.17.95-.6.8.35-.12.71-.72.65-1.25.57a1.14,1.14,0,0,1-.51-.24C61.44,194.86,61,193.07,60.38,191.31Z"/><path class="cls-5" d="M202.45,198.73c.59.15.68-.54,1.14-.65s1.29-.35,1.4.21c.32,1.67,2.26,1.58,2.86,3.27.23-.93.41-1.49.5-2.06.31-2,.34-2,2.31-2a24.86,24.86,0,0,1-2.33-7.23c-.05-.37-.29-.85.19-1s.63.38.72.81a25,25,0,0,0,1.85,5.11,19.57,19.57,0,0,0,.7-3.94c.08-.45,0-1.13.58-1.11s.39.65.34,1.1c-.19,2-.34,3.94-.43,5.94a32.9,32.9,0,0,0,2.7-5.41c.29-.83-.83-.49-.81-1.24,1.59,0,2.62,1.06,3.81,1.78a.5.5,0,0,1,.05.49.41.41,0,0,1-.63,0c-1.65-1.71-1.77-.1-2.17,1-.46,1.23-.94,2.46-1.43,3.68-.16.4-.4.74,0,1.12.25.21.54.58.14.83s-.57-.2-.84-.4c-.7-.49-1-1.57-2.12-1.49,0,.45.88.73.28,1.19s-.47-.4-.79-.49c-.7-.21-1.46-.56-1.3.75a2,2,0,0,1-.07.85c-.34,1.13-.6,2.19,1.23,2-.2.62-.55.54-.88.51s-.49-.23-.54.17a1.05,1.05,0,0,0,.19.95c.21.19.43.12.64,0,0,0,.07-.07.11-.1,2.49-1.33,2.49-1.33,4.47.47l-.05-.05c.12,1.6-1.21,3-3.14,3.21-.45.05-.91,0-1.56,0,.64,1.06,1.55,1.58,1.95,2.51a1.41,1.41,0,0,1,0,1.48c-.43.6-1,.29-1.82.23.65-.53,1.61-.6,1-1.43s-1.16-1.68-2.23-1.85c-.26,0-.44.38-.34.79s.11,1,.19,1.55c.16,1.14-.4,1.65-1.49,1.73a1.62,1.62,0,0,1-1.79-1.18c-.21-.5,0-1.16-.66-1.49-.57.32-.51,1.26-1.41,1.4-.18-1,.77-1.67.68-2.62-.63-.15-1.08.27-1.61.39s-1.15.85-1.27-.43c-.05-.46-.67-.23-1-.14-1.71.5-3.38,1.14-5.11,1.53-1.1.25-1,.76-.67,1.47.23.55.49,1.08.79,1.74-1.51-.58-2.77-3.34-2.26-4.65.17-.43.62-.7.81-.23.42,1,1,.49,1.61.35,2.61-.65,5.21-1.32,7.82-2,.34-.08.65-.14.82-.49-.91-.47-2.07-.28-2.86-1.15-.52-.59-1.13-1.16-.76-2a2.21,2.21,0,0,1,1.9-1c.83-.11,1.57.34,2.38.32l.13.19s.07-.08.07-.12-.09-.16-.2-.07c.15-.63-.47-.85-.72-1.26-.36-.6-1-1.06-1.14-1.79Zm1.58,8.05c1,.74,2.34-.21,3.34.68.27.24.39,0,.57-.17s.52-.41.78-.61c-.91-.75.21-2-.63-2.73a3,3,0,0,1-.9-1.72,3,3,0,0,0-1-1.66.86.86,0,0,0-1.17-.15c-.38.36.13.67.35.9.87.93,1.76,1.85.48,3.07C205.08,205.09,205.47,206.62,204,206.78Zm-.7-2.12c.88.05,1.6,0,1.79-.67s-.47-1-.94-1.27a4.41,4.41,0,0,0-2.16-.6c-.47,0-1,0-1.24.53s.27.84.6,1.16A3.4,3.4,0,0,0,203.33,204.66Zm7.12,1.3a4,4,0,0,0,2.62-1.3,1,1,0,0,0,.13-1.2c-.2-.45-.71-.43-1.12-.25a6.15,6.15,0,0,0-2.17,1.56c-.19.22-.51.54-.32.87S210.14,206,210.45,206Zm-2.67,4.11c-.05-1-.34-2.07-1.52-2.19-.85-.09-.54.84-.54,1.31,0,.88-.16,2,1.18,2.15C207.71,211.41,207.87,210.78,207.78,210.07Zm-3.14-10.94c0-.54-.12-.86-.64-.75-.33.07-.72.24-.63.62a.92.92,0,0,0,.88.8C204.73,199.79,204.62,199.35,204.64,199.13Z"/><path class="cls-5" d="M211.93,214.84c.45,1,.9,2,1.36,2.95.18.39.49.85.05,1.15s-.84-.05-1.16-.35c-.87-.8-1.73-1.62-2.58-2.45a2.62,2.62,0,0,0-1.46-.89,7.23,7.23,0,0,1,.51,3.09c-.06.53-.14,1.12-.75,1.22s-1.27.27-1.56-.55c1.47.1,1.69-.7,1.47-1.93a5.53,5.53,0,0,0-.85-2.39c-.47-.64-.87-1.89-1.73-1.5s-.07,1.45.05,2.22c.21,1.25,1.23,2.27,1.09,3.63-1.27-1-2.46-4.54-2-6,.14-.51.63-1.09.94-.82,1,.83,2.37.44,3.28,1.38a24.2,24.2,0,0,0,3.26,3.14l.13.19.05-.18-.21,0c.21-1.16-.75-1.66-1.34-2.38-.3-.36-.82-.74-.56-1.2s.85-.17,1.3-.06c1.29.32,2.37,1.2,3.71,1.39a.37.37,0,0,0,.55.12l-.32-.36c-.89-.53-1.79-1.05-2.65-1.62-.25-.17-.77-.37-.42-.84s.57,0,.85.11c1.86.89,3.53,2.16,5.49,2.88.31.11.62.32.58.71s-.49.33-.78.37c-1.81.26-3.43-.53-5.11-.95l-.94-.25c-.09-.07-.22-.2-.26-.18C211.62,214.61,211.87,214.72,211.93,214.84Z"/><path class="cls-5" d="M214.37,203.78c-.89-2.41-.44-4.32,1.82-5.82a17.17,17.17,0,0,0,3.58-2.55c.32-.35,1.65.67,1.72,1.4.18,1.64-1.07,6.26-3.22,7.26-1.73.82-2.46.85-4-.34Zm6.06-7.74c-1.73,1.4-3.45,2.49-4.9,3.92a2.16,2.16,0,0,0-.18,3.13c.94,1,1.85.34,2.56-.4C219.64,200.89,220.21,198.62,220.43,196Z"/><path class="cls-5" d="M218.79,180.76a1.42,1.42,0,0,1-.07,2.34,1.24,1.24,0,0,0-.65,1.6,11.16,11.16,0,0,1-.69,5.3c-.08.29-.13.74-.63.55s-.37-.51-.29-.85c.2-.91.4-1.83.63-2.74a4.73,4.73,0,0,0-.54-3.61c-.43,1.77-.73,3.21-1.13,4.62-.12.43-.17,1.28-.86,1.09s-.33-.91-.17-1.43c.66-2.11,1.34-4.21,2-6.33.49-1.58.48-1.59,2.12-.83l-.13.14c-1.58-.36-1.4,1-1.55,1.77s.67.51,1,.45c1.07-.18,1.16-.92.82-1.8a.66.66,0,0,1,0-.14Z"/><path class="cls-5" d="M202.53,214.08a3.55,3.55,0,0,1,.25-.7c.24-.38-.17-1.19.44-1.17s.51.84.48,1.28a23.51,23.51,0,0,0-.12,4.67.44.44,0,0,1-.33.55c-.34,0-.5-.23-.65-.46a9.79,9.79,0,0,1-1.09-3.2c-.12-.51-.23-1-.41-1.77a13.86,13.86,0,0,1-1.31,2.91c-.17.3-.23.68-.65.57a.51.51,0,0,1-.21-.83,10.78,10.78,0,0,0,1.83-4.55c0-.21.28-.46.53-.36a1,1,0,0,1,.46.49C202.17,212.29,201.93,213.28,202.53,214.08Z"/><path class="cls-5" d="M212.77,179.91a1.86,1.86,0,0,1,1.23,1.28,7.68,7.68,0,0,1-.13,5.56,2.15,2.15,0,0,1-2,1.52,2.69,2.69,0,0,1-2.58-1.47c-.84-1.68-.22-5.69,1.11-7,.64-.65,1.33-.93,2,0l0,0a2,2,0,0,0-2.22,1.48,7.68,7.68,0,0,0-.41,4.6,1.92,1.92,0,0,0,1.73,1.62c1,.15,1.49-.54,1.72-1.37a7.27,7.27,0,0,0-.58-6Z"/><path class="cls-5" d="M203.81,179.62c.4-1,1.22-.85,1.88-.92a25.18,25.18,0,0,1,3.13-.1c.43,0,.9.3.79.79s-.55.3-.93.17a6.36,6.36,0,0,0-2.47-.08c.67,2.35,1.31,4.66,2,7,.14.45.45,1-.09,1.24s-.79-.4-.92-.93q-.77-3-1.57-6C205.26,179.43,205.24,179.43,203.81,179.62Z"/><path class="cls-5" d="M198.54,216c-1.38.37-1.91-.41-2.55-.93a.88.88,0,0,1-.33-1c.16-.39.55-.3.86-.13.52.29.53-.2.64-.44a16.27,16.27,0,0,1,2.21-3.46,1.11,1.11,0,0,0,.3-.6c0-.28-.69-.66.08-.8s1.14.5,1.31,1.06-.35.41-.71.41-.49.4-.71.63a12.32,12.32,0,0,0-1.82,3.19C197.46,214.71,197.26,215.44,198.54,216Z"/><path class="cls-5" d="M218.5,180.47l.29.29-.13.13c-.19,0-.29-.09-.29-.28Z"/><path class="cls-5" d="M212.37,179.72l.4.19-.14.13c-.17-.06-.45,0-.24-.34Z"/><path class="cls-6" d="M54.7,219.56l.2-.18c0,.11,0,.22,0,.34A1.37,1.37,0,0,1,54.7,219.56Z"/></svg>