<svg id="Layer_1" data-name="Layer 1" xmlns="http://www.w3.org/2000/svg" viewBox="0 0 236.51 69.57"><g id="Capa_2" data-name="Capa 2"><g id="Contacto"><path d="M76.43,6.36c-.4,0-.72,12.73-.72,28.42s.32,28.43.72,28.43.72-12.74.72-28.43-.32-28.42-.72-28.42"/><path d="M105.14,27.7c0-1.82-.53-3.07-1.61-3.74s-3-1-5.79-1H95.3v9.23h2.49a20.46,20.46,0,0,0,4.42-.36,3.68,3.68,0,0,0,2.25-1.32,4.91,4.91,0,0,0,.69-2.8m11.76-.05a12.26,12.26,0,0,1-.72,4.16,11.26,11.26,0,0,1-2.36,3.78,11.73,11.73,0,0,1-4.42,2.85,17.94,17.94,0,0,1-6.53,1.1H95.3V53.9H83.75V15.6h19.13a17.53,17.53,0,0,1,6.53,1.11,12,12,0,0,1,4.42,2.87,11.46,11.46,0,0,1,2.36,3.84,12.7,12.7,0,0,1,.72,4.23"/><path d="M160.23,36.74a17.77,17.77,0,0,1-1.84,8.39,14.69,14.69,0,0,1-4.86,5.49,21.05,21.05,0,0,1-6.53,2.9,28.76,28.76,0,0,1-7,.88,27.71,27.71,0,0,1-9.46-1.66,16.79,16.79,0,0,1-7.7-5.64q-3.09-4-3.1-10.36V15.6H131.3V33.76A15.58,15.58,0,0,0,132.39,40a7.63,7.63,0,0,0,3,3.62,9.67,9.67,0,0,0,9.11,0,7.53,7.53,0,0,0,3.05-3.59,15.56,15.56,0,0,0,1.09-6.25V15.6h11.55Z"/><path d="M199.92,51a27.41,27.41,0,0,1-4.86,2,30.7,30.7,0,0,1-5,1.06,41.49,41.49,0,0,1-5.23.32,27.3,27.3,0,0,1-9-1.38A19.46,19.46,0,0,1,169,48.94a17.16,17.16,0,0,1-4.37-6.3,21,21,0,0,1-1.45-7.92,20.61,20.61,0,0,1,1.71-8.66,16.66,16.66,0,0,1,4.8-6.17,20.54,20.54,0,0,1,7-3.64,29.15,29.15,0,0,1,8.3-1.17A45.11,45.11,0,0,1,199.76,18V28.15a41.31,41.31,0,0,0-5.63-2.95A16.78,16.78,0,0,0,187.6,24a14.78,14.78,0,0,0-6.25,1.33,11.63,11.63,0,0,0-4.67,3.78,10.07,10.07,0,0,0-.22,11.07,11.08,11.08,0,0,0,4.3,3.85,13.33,13.33,0,0,0,6.2,1.41,20.44,20.44,0,0,0,5.28-.67,24.09,24.09,0,0,0,4.19-1.51,38.47,38.47,0,0,0,3.49-2Z"/><path d="M224.74,27.7c0-1.82-.54-3.07-1.62-3.74s-3-1-5.79-1H214.9v9.23h2.48a20.55,20.55,0,0,0,4.43-.36A3.61,3.61,0,0,0,224,30.5a4.75,4.75,0,0,0,.7-2.8m11.77-.05a12.27,12.27,0,0,1-.73,4.16,10.89,10.89,0,0,1-2.37,3.78A11.62,11.62,0,0,1,229,38.44a17.94,17.94,0,0,1-6.53,1.1H214.9V53.9H203.35V15.6h19.12A17.5,17.5,0,0,1,229,16.71a11.78,11.78,0,0,1,4.42,2.87,11.21,11.21,0,0,1,2.36,3.84,12.71,12.71,0,0,1,.73,4.23"/><path d="M59.64,22.84c.59,1.19,1.55,1.69,3.14.95L66.67,22l-.12-1.08-4.25,2a1.14,1.14,0,0,1-1.7-.49c-.3-.61-.11-1.14.67-1.56l4.15-2.18-.79-.75-3.83,2c-1.43.78-1.76,1.71-1.16,2.91M10.23,21.63c.63-1.17.46-2.1-1.05-3L5.46,16.51l-.82.71,4.07,2.34c.77.46.95.91.61,1.53s-.81.68-1.6.29L3.55,19.23l-.16,1.08,3.85,2c1.46.72,2.35.53,3-.65M62.54,33.55l1.08-.09-.19-2.15,1.81-.15.12,1.53,1.08-.09-.11-1.54,1.82-.16.19,2.17,1-.09-.26-3.18-6.85.56ZM41.76,6.76l-2.12-.42L40,4.56l1.51.31.22-1.06L40.2,3.49l.36-1.8,2.13.43.21-1L39.78.45,38.41,7.19l3.13.63ZM32.2,7,32,5.92l-2.13.36L29.58,4.5l1.52-.25-.18-1.08-1.52.25-.32-1.8,2.15-.37-.18-1L27.91.73,29,7.52ZM6.87,34.24l-1.09.06.15,2.16-1.81.12L4,35.05l-1.08.06L3,36.65l-1.83.13-.14-2.17L0,34.68l.2,3.18,6.87-.43ZM51.52,64.59l-2.87-5.05.83-.47,2.86,5Zm-2.17,1.1-2.52-5.24.85-.41,2.52,5.24Zm-3.91,1.52-4-4.83.88-.28,2.3,2.71.28-3.53.91-.29Zm-5,1.23-1.61-2-1.07,2.27-.94.12,1.44-3.12-2.14-2.65.94-.13,1.61,2,1.07-2.31.94-.09-1.44,3.09,2.13,2.69ZM34.69,69l-.76-3.67L32.39,67l-1.26-1.93-1.29,3.51-.94-.09,2-5.69,1.67,2.65,2.07-2.33,1,5.9Zm-8.4-1.24c-1-.25-1.49-1.73-1.08-3.28s1.58-2.59,2.59-2.33A2,2,0,0,1,29,63.92L28,63.64c-.09-.31-.26-.56-.47-.6-.51-.13-1.13.6-1.42,1.64s-.1,2,.41,2.12a.7.7,0,0,0,.69-.31l1,.27a1.86,1.86,0,0,1-1.92.95m-2.74-.66-.84-.41L23.3,63l-2.05,1-.5-2.24-2.46,2.81-.85-.41,3.81-4.64.66,3.06,2.73-1.45Zm11.25-4.67A27.62,27.62,0,0,1,7.88,40.46H.3a35,35,0,0,0,69,0h-7.6A27.61,27.61,0,0,1,34.79,62.38m33.62-26.8-5.77-.26,0,1,5.78.27-.06,1.58,1.09.05L69.57,34,68.48,34Zm-4-11.43c-2,.41-3.23,2-2.9,3.62a2.79,2.79,0,0,0,1,1.65l.77-.59a2.25,2.25,0,0,1-.72-1.31c-.22-1.05.82-2,2.11-2.3s2.54.24,2.76,1.33a2.06,2.06,0,0,1-.3,1.47l1,.27a2.55,2.55,0,0,0,.4-2c-.33-1.67-2-2.57-4.1-2.15m-6-3.85.89-.63L58,17.83l4.75-3.3-.61-.86L56.52,17.6Zm-3.34-7a.91.91,0,0,1-1.27.18l-.07-.07a1.9,1.9,0,0,1-.43-1l-1,.44a2.74,2.74,0,0,0,.79,1.44,1.92,1.92,0,0,0,2.73-.18l.07-.08c1.47-1.63-.58-2.93.33-3.93A.89.89,0,0,1,57.52,10l.06.06a2,2,0,0,1,.49,1.07l1-.38a2.87,2.87,0,0,0-.81-1.51,1.88,1.88,0,0,0-2.65.08l-.1.11c-1.58,1.74.54,2.88-.38,3.91m-3.63-.61,4.09-5.55-.85-.62L50.6,12.08ZM50.31,5.05l.53.29a.93.93,0,0,1,.43,1.24l-.06.11A.93.93,0,0,1,50,7.22l-.13-.06-.57-.32Zm-2.87,5.1,1.35-2.41.28.16a.43.43,0,0,1,.22.39l.1,3.11,1.15-.14-.19-3a1.86,1.86,0,0,0,1.84-1,1.81,1.81,0,0,0-.42-2.51,1.92,1.92,0,0,0-.31-.18l-1.58-.88-3.38,6ZM44.86,5.8c.73.26,1,.72.73,1.37a.9.9,0,0,1-1.12.63l-.19-.07-.67-.24.7-1.89Zm.45-3,.63.23a.88.88,0,0,1,.68,1.05,1.39,1.39,0,0,1-.06.19,1,1,0,0,1-1.2.63l-.13-.05-.58-.21Zm-1.08,5.9a1.73,1.73,0,0,0,2.26-.93,1.87,1.87,0,0,0,.07-.22,1.49,1.49,0,0,0-.49-1.89v0c.56.11,1.17-.3,1.49-1.19a1.68,1.68,0,0,0-.9-2.2l-.19-.07-1.83-.65L42.28,8ZM33.89,1.94l0,0,2.5,5.3,1.07-.33L37.65.21l-1,0,0,5.14h0L34,0,33,.34,32.83,7h1.05Zm-9.6.94,1.65,5.56,1-.31L25.3,2.57l1.5-.46-.31-1-4,1.24.31,1.05Zm-5.35,9L16.2,7.6v0l5,3.1.71-.87L18.43,4.09l-.9.56L20.28,9h0l-5-3.09-.65.83L18,12.44Zm-1.66,1.26L12.93,7.81l-.81.68,4.35,5.34ZM11.15,19l1-.34-1.14-2.79,2.91.59.13-1.13-3.42-.57L9.46,11.63,8.4,12l1.13,2.67-2.82-.56L6.6,15.21l3.28.52ZM9.06,23.92l-1-.36L7.3,25.68,1.85,23.75l-.35,1L8,27ZM1.3,31.77l5.75.62.11-1.06-5.75-.62.16-1.58L.48,29,.05,33.24l1.09.12ZM21.86,54.69a12.79,12.79,0,0,0-2.31.92l-.3.13a23.89,23.89,0,0,0,15.24,5c.92,0,1.82-.09,2.7-.19a25.47,25.47,0,0,0,10.18-3.22,2.23,2.23,0,0,1-1.13-.9,2.05,2.05,0,0,1-.17-1.79,3.51,3.51,0,0,0-.65.09,14.07,14.07,0,0,0-2.45,1,15.9,15.9,0,0,1-6.47,1.8,2.35,2.35,0,0,1-2-1,2,2,0,0,1-.35-1.12,2.32,2.32,0,0,1,.15-.74,2.82,2.82,0,0,0-.65.08,13.65,13.65,0,0,0-2.48,1,15.8,15.8,0,0,1-6.44,1.79,2.32,2.32,0,0,1-2-1,2.07,2.07,0,0,1-.23-1.9,3.62,3.62,0,0,0-.66.09m32.7-14.95s0-.05,0-.08a.72.72,0,0,0-.16-.44,2.57,2.57,0,0,0-2.37-.48,8.08,8.08,0,0,0-1,.24l-2-2.64,1.72,2.73a11.31,11.31,0,0,0-1.14.46l-2.39-3.19,2.1,3.33-.47.24-.71.34-2.88-3.87,2.54,4a11.8,11.8,0,0,1-1.29.49l-3.38-4.5L46.1,41c-.33.1-.68.18-1.08.26l-3.69-5,3.1,5.06c-.4.06-.84.12-1.32.16a1.82,1.82,0,0,1-.9-.3l-.06,0A.36.36,0,0,1,42,41a.28.28,0,0,1,0-.09.64.64,0,0,1,.12-.38l.35-.25v0a1,1,0,0,0,.22-.61.6.6,0,0,0-.12-.39,2.52,2.52,0,0,0-2.42-.53,11.82,11.82,0,0,0-2.72.87c-.84-2-1.15-4.32-1-7.8a15.17,15.17,0,0,0,11.12,3.34c.27,0,.53-.08.79-.13h0A10.31,10.31,0,0,0,54,32.32a13.24,13.24,0,0,0,1.56-1.62l.14-.17c.09-.12.19-.23.28-.36l1.32,1,1.46,1.1a17.2,17.2,0,0,1-4.23,7.47m-17.71.17c-1.44-3.89-2.06-5.6-1.71-9.43l1.1,1.16c-.13,3.61.18,6,1,8l-.44.22m-.18.09c-.16-.21-.3-.42-.44-.62l-.08-.14c-.09-.13-.17-.27-.25-.4s-.15-.24-.21-.36l-.06-.1a15.17,15.17,0,0,1-1.72-5.06c0-.32-.08-.61-.1-.88h0c0-.32,0-.59,0-.83s0-.56,0-.66a4.55,4.55,0,0,0,.63-.3,4.9,4.9,0,0,1,.52-.24c-.37,3.92.25,5.63,1.71,9.58h0m-.67.28a27.25,27.25,0,0,1-3.3-5.67l-.25-.53a7.28,7.28,0,0,1,1.17-1.54c0,.13,0,.29.05.44a15.07,15.07,0,0,0,2.81,7.1l-.48.2m-2.28-19h8.9A17.64,17.64,0,0,0,41.42,27v.37a12.85,12.85,0,0,0,2.11,5.8l0,.07c.51,1,.92,1.68.92,1.68v0a15.63,15.63,0,0,1-8-3.32l0,0-.78-.82c-.3-.3-.56-.58-.56-.58l0,0-.06,0a5.28,5.28,0,0,0-.73.33l-.61.29-.06,0v.06a0,0,0,0,0,0,0,9,9,0,0,0,0,1.37l-.06.06-.19.2A14.68,14.68,0,0,1,32,26.69a8.93,8.93,0,0,1,1.75-5.39m5.76-2.36H49.72a12.38,12.38,0,0,0-3.08,7c0,.13,0,.25,0,.38a11.17,11.17,0,0,0,2.48,7.08c-1.9-1.22-3.72-.87-5.46-.36a12.59,12.59,0,0,1-2-5.65c0-.12,0-.23,0-.36A13.69,13.69,0,0,1,42,24c.21-.82.49-1.72.86-2.76l-.09-.13h-5a7.78,7.78,0,0,1,1.7-2.17m3.15-2.56a2,2,0,0,0,.1,1.89,10.37,10.37,0,0,0-3.16-1.38c1.2-.28,3.06-.51,3.06-.51m.4-.24h.28s0,0,0,0l.32,2.54h-.58l0-2.47a.16.16,0,0,1,0-.1m7,18.25a12.58,12.58,0,0,1-1.46.39c.19-.2.49-.53.84-.93l.35.28.27.26m5.65-4.16a14.06,14.06,0,0,1-2.18,2.25l0,0-.34.26a11.37,11.37,0,0,1-2.9,1.54L49.94,34l-.32-.33A28.52,28.52,0,0,0,52,30.76a14.52,14.52,0,0,0,3.76-.53M26.53,22.37l-3.7.3,1.56,1.72c.23.25,0,.56-.29.33L24,24.61,22.47,23s-.31,10.79-.4,12c0,.37-.32.41-.38,0l-.34-12c-.5.51-1.06,1.22-1.62,1.69-.25.22-.49-.06-.27-.37l1.44-1.7-3.68-.29c-.53,0-.6-.5,0-.6L21,21.44s-1.08-1.12-1.58-1.69c-.27-.3-.09-.53.17-.37L21.34,21V21c.06-1.23.16-2.46.26-3.69,0-.51.5-.6.59,0l.28,3.81s1.21-1.16,1.8-1.67c.3-.26.53,0,.22.35l-1.67,1.69s2.49.24,3.71.33c.54,0,.6.51,0,.6m34,12.19A26,26,0,0,0,34.73,8.5,26.31,26.31,0,0,0,8.67,34.75a25.71,25.71,0,0,0,.88,6.64A13.78,13.78,0,0,0,13.39,40a10.69,10.69,0,0,1,3.12-1.16,2.43,2.43,0,0,1,2.34.49.63.63,0,0,1,.11.35,1,1,0,0,1-.22.59l-.33.25a.66.66,0,0,0-.15.42s0,.07,0,.1a.37.37,0,0,0,.15.26l0,0a1.94,1.94,0,0,0,1,.3A14.17,14.17,0,0,0,25.26,40a10.73,10.73,0,0,1,3.1-1.15,2.47,2.47,0,0,1,2.37.5.56.56,0,0,1,.1.33,1,1,0,0,1-.23.6l-.31.25a.58.58,0,0,0-.16.42V41a.39.39,0,0,0,.18.28l.05,0a1.78,1.78,0,0,0,.86.3,13.89,13.89,0,0,0,4.71-1.13l.67-.28h0l.07,0h0a12.85,12.85,0,0,1,3.56-1.28,2.38,2.38,0,0,1,2.22.44.52.52,0,0,1,.09.29.94.94,0,0,1-.19.5l-.32.23,0,0a.82.82,0,0,0-.17.51.49.49,0,0,0,0,.12.47.47,0,0,0,.21.36l.06,0a2,2,0,0,0,1,.34A14.32,14.32,0,0,0,49,40.08a10.85,10.85,0,0,1,3.09-1.15,2.46,2.46,0,0,1,2.18.4.64.64,0,0,1,0,.69h0a1.28,1.28,0,0,1-.15.25l-.31.25a.61.61,0,0,0-.15.5.35.35,0,0,0,.17.28l.06,0a1.69,1.69,0,0,0,.89.3,14.53,14.53,0,0,0,5.09-1.33,26.55,26.55,0,0,0,.64-5.76M48.29,56.15c.35,0,.72-.07,1.07-.12a25.87,25.87,0,0,0,5.9-5.68,2.25,2.25,0,0,1-1.32-1,2.08,2.08,0,0,1-.17-1.8l-.46,0-.17,0a13.65,13.65,0,0,0-2.48,1,16.26,16.26,0,0,1-6.46,1.79,2.39,2.39,0,0,1-2-1,2,2,0,0,1-.34-1.12,2.11,2.11,0,0,1,.14-.74l-.43,0-.22,0a13.69,13.69,0,0,0-2.48,1,15.81,15.81,0,0,1-6.41,1.78,2.35,2.35,0,0,1-2-1,2.09,2.09,0,0,1-.23-1.88l-.45,0-.17,0a13.85,13.85,0,0,0-2.47,1,16.12,16.12,0,0,1-6.51,1.79,2.43,2.43,0,0,1-2.06-1,2,2,0,0,1-.34-1.11,1.92,1.92,0,0,1,.15-.74l-.51.06-.15,0a12.92,12.92,0,0,0-2.5,1,18.34,18.34,0,0,1-1.87.83l.61.84a26.89,26.89,0,0,0,4.18,4.48c.23-.1.44-.21.66-.32a10.85,10.85,0,0,1,3.06-1.13,2.44,2.44,0,0,1,2.36.47.57.57,0,0,1,.11.33,1.23,1.23,0,0,1-.23.61l-.31.24a.7.7,0,0,0-.16.44.28.28,0,0,0,0,.09.33.33,0,0,0,.17.26l.06,0a1.74,1.74,0,0,0,.85.3,13.74,13.74,0,0,0,5.78-1.63,10.91,10.91,0,0,1,3.13-1.15,2.43,2.43,0,0,1,2.34.47.61.61,0,0,1,.11.35,1.07,1.07,0,0,1-.22.59L35.5,55a.84.84,0,0,0-.14.43s0,.07,0,.11a.41.41,0,0,0,.15.25l.06,0a1.87,1.87,0,0,0,.92.31,13.69,13.69,0,0,0,5.8-1.64,11.12,11.12,0,0,1,3.1-1.14,2.47,2.47,0,0,1,2.37.47.8.8,0,0,1-.13.94l-.31.24a.69.69,0,0,0-.16.53.39.39,0,0,0,.17.26l.06,0a1.79,1.79,0,0,0,.89.3m7.84-7a25.58,25.58,0,0,0,3.36-7.2,31.05,31.05,0,0,1-4.68,1,2.43,2.43,0,0,1-2-1,2,2,0,0,1-.21-1.83l-.65.06a14.1,14.1,0,0,0-2.42,1A16.43,16.43,0,0,1,43,43a2.41,2.41,0,0,1-2-1,2,2,0,0,1-.33-1.09,1.79,1.79,0,0,1,.15-.72,3.68,3.68,0,0,0-.66.06,14,14,0,0,0-2.45,1A16.36,16.36,0,0,1,31.23,43a2.39,2.39,0,0,1-2-1A2,2,0,0,1,29,40.11l-.66.06a12.56,12.56,0,0,0-2.41,1A16.62,16.62,0,0,1,19.43,43a2.45,2.45,0,0,1-2.07-1A2,2,0,0,1,17,40.81a1.85,1.85,0,0,1,.13-.7,3.36,3.36,0,0,0-.63.06,13,13,0,0,0-2.45,1,16.19,16.19,0,0,1-4.15,1.48,25.43,25.43,0,0,0,2.68,5.74,17.23,17.23,0,0,0,2-.88,11,11,0,0,1,3.12-1.15,2.47,2.47,0,0,1,2.35.47.82.82,0,0,1-.11,1l-.34.24a.68.68,0,0,0-.14.41v.08a.47.47,0,0,0,.16.3l0,0a2,2,0,0,0,1,.29,14,14,0,0,0,5.86-1.64,11.09,11.09,0,0,1,3.1-1.13,2.45,2.45,0,0,1,2.34.47c.13.19.2.5-.11,1a2.62,2.62,0,0,0-.34.24.69.69,0,0,0-.13.48.43.43,0,0,0,.16.31l0,0a1.85,1.85,0,0,0,.91.29A13.73,13.73,0,0,0,38.2,47.5a11.12,11.12,0,0,1,3.1-1.14,2.47,2.47,0,0,1,2.35.47.82.82,0,0,1-.12,1,2.34,2.34,0,0,0-.31.24.62.62,0,0,0-.15.47.43.43,0,0,0,.14.32l0,0a2.11,2.11,0,0,0,1,.29A13.91,13.91,0,0,0,50,47.5a11.24,11.24,0,0,1,3.12-1.14,2.47,2.47,0,0,1,2.35.47.82.82,0,0,1-.12,1A2,2,0,0,0,55,48a.65.65,0,0,0-.14.48.46.46,0,0,0,.15.31l0,0a1.83,1.83,0,0,0,.91.28Z"/></g></g></svg>