<svg id="Layer_1" data-name="Layer 1" xmlns="http://www.w3.org/2000/svg" width="1800" height="120" viewBox="0 0 1800 120"><defs><style>.cls-1,.cls-2,.cls-3{fill:#939393;}.cls-2{fill-rule:evenodd;}.cls-3{font-size:12px;font-family:MyriadPro-Regular, Myriad Pro;}.cls-4{letter-spacing:-0.01em;}.cls-5{letter-spacing:-0.01em;}.cls-6{letter-spacing:0em;}.cls-7{letter-spacing:0em;}.cls-8{letter-spacing:0em;}.cls-9{letter-spacing:0em;}.cls-10{letter-spacing:-0.04em;}.cls-11{letter-spacing:0em;}.cls-12{letter-spacing:0.01em;}.cls-13{letter-spacing:0.03em;}.cls-14{letter-spacing:-0.01em;}.cls-15{letter-spacing:-0.01em;}</style></defs><g id="Capa_2" data-name="Capa 2"><g id="Contacto"><path class="cls-1" d="M771.05,25.17c-.29,0-.52,9.14-.52,20.42s.23,20.42.52,20.42.52-9.15.52-20.42-.23-20.42-.52-20.42"/><path class="cls-1" d="M791.68,40.5a2.92,2.92,0,0,0-1.17-2.69,8.35,8.35,0,0,0-4.15-.72h-1.75v6.63h1.79a15.31,15.31,0,0,0,3.17-.26,2.66,2.66,0,0,0,1.61-1,3.44,3.44,0,0,0,.5-2m8.45,0a9.06,9.06,0,0,1-.52,3,8.21,8.21,0,0,1-1.7,2.72,8.54,8.54,0,0,1-3.17,2.05,12.91,12.91,0,0,1-4.69.78h-5.44V59.32h-8.3V31.81h13.74a12.51,12.51,0,0,1,4.69.79,8.47,8.47,0,0,1,3.17,2.07,8,8,0,0,1,1.7,2.75,9.23,9.23,0,0,1,.52,3"/><path class="cls-1" d="M831.25,47a12.89,12.89,0,0,1-1.32,6,10.7,10.7,0,0,1-3.5,3.94A15.14,15.14,0,0,1,821.75,59a21,21,0,0,1-5,.64,20.19,20.19,0,0,1-6.8-1.19,12.17,12.17,0,0,1-5.53-4A11.86,11.86,0,0,1,802.19,47V31.81h8.28v13a11.17,11.17,0,0,0,.79,4.5,5.53,5.53,0,0,0,2.18,2.6,7,7,0,0,0,6.54,0,5.48,5.48,0,0,0,2.2-2.58,11.25,11.25,0,0,0,.82-4.44V31.81h8.3Z"/><path class="cls-1" d="M859.76,57.26a20.8,20.8,0,0,1-3.49,1.43,23.4,23.4,0,0,1-3.61.76,31.49,31.49,0,0,1-3.76.23,19.84,19.84,0,0,1-6.44-1,13.85,13.85,0,0,1-4.94-2.93,12.37,12.37,0,0,1-3.14-4.53,15.18,15.18,0,0,1-1-5.69,14.62,14.62,0,0,1,1.23-6.22A12,12,0,0,1,838,34.89a14.62,14.62,0,0,1,5-2.62,21,21,0,0,1,6-.84,32.19,32.19,0,0,1,10.62,2.09v7.3a27.25,27.25,0,0,0-4-2.11,12.14,12.14,0,0,0-4.69-.85,10.58,10.58,0,0,0-4.49,1,8.2,8.2,0,0,0-3.35,2.71,7.23,7.23,0,0,0-.16,8A8,8,0,0,0,846,52.25a9.86,9.86,0,0,0,4.46,1,15.16,15.16,0,0,0,3.79-.49,17.9,17.9,0,0,0,3-1.08c.86-.43,1.7-.9,2.51-1.41Z"/><path class="cls-1" d="M877.59,40.5a2.93,2.93,0,0,0-1.16-2.69,8.37,8.37,0,0,0-4.16-.72h-1.75v6.63h1.79a15.4,15.4,0,0,0,3.18-.26,2.63,2.63,0,0,0,1.6-1,3.44,3.44,0,0,0,.5-2m8.45,0a8.81,8.81,0,0,1-.52,3,8.21,8.21,0,0,1-1.7,2.72,8.54,8.54,0,0,1-3.17,2.05,12.91,12.91,0,0,1-4.69.78h-5.44V59.32h-8.3V31.81H876a12.51,12.51,0,0,1,4.69.79,8.47,8.47,0,0,1,3.17,2.07,7.84,7.84,0,0,1,1.7,2.75,9,9,0,0,1,.52,3"/><path class="cls-1" d="M759,37a1.48,1.48,0,0,0,1.91.86,2.21,2.21,0,0,0,.34-.18l2.8-1.3,0-.8L761,37c-.59.27-1,.11-1.22-.35s-.08-.82.48-1.12l3-1.57-.57-.54-2.74,1.45c-1,.57-1.27,1.24-.84,2.1m-35.5-.87c.46-.84.34-1.51-.75-2.14l-2.67-1.54-.59.51,2.92,1.68c.56.33.68.66.44,1.1s-.58.49-1.15.21l-3-1.55-.11.78,2.69,1.42c1.06.52,1.69.38,2.15-.46m37.58,8.56.78-.06-.14-1.55L763,43l.09,1.1.77-.06-.08-1.11,1.31-.11.14,1.56.76-.07L765.81,42l-4.93.4ZM746.14,25.46l-1.52-.31.25-1.27,1.09.22.15-.76L745,23.11l.25-1.29,1.53.3.16-.74-2.25-.46-1,4.84,2.24.46Zm-6.87.16-.12-.77-1.53.26-.22-1.28,1.08-.18-.12-.77-1.1.18-.22-1.3,1.54-.26-.13-.75-2.26.38L737,26ZM721.08,45.2h-.78l.1,1.55-1.29.09-.07-1.1h-.78l.06,1.11-1.31.09-.1-1.56-.76,0,.14,2.29,4.93-.31ZM753.15,67l-2-3.63.59-.34,2,3.63Zm-1.56.79L749.78,64l.62-.3,1.81,3.77Zm-2.8,1.09-2.87-3.47.63-.2,1.65,1.94.21-2.53.65-.21Zm-3.59.89L744,68.36,743.24,70l-.68.08,1-2.24L742,65.93l.68-.09,1.15,1.43.84-1.68.68-.06-1,2.22,1.53,1.93Zm-4.14.36-.54-2.63-1.11,1.22-.9-1.38-.93,2.52-.68-.07,1.41-4.08,1.19,1.88,1.5-1.68.74,4.24Zm-6-.89c-.7-.18-1.07-1.24-.77-2.35s1.13-1.87,1.85-1.68a1.39,1.39,0,0,1,.84,1.31l-.68-.2c-.06-.23-.18-.41-.34-.43-.36-.09-.81.43-1,1.17s-.08,1.44.29,1.53a.54.54,0,0,0,.5-.23l.7.2a1.35,1.35,0,0,1-1.38.68m-2-.47-.61-.3.43-2.63-1.47.75L731.06,65l-1.77,2-.61-.29,2.74-3.34.48,2.2,2-1Zm8.08-3.36a19.83,19.83,0,0,1-19.33-15.75h-5.45a25.14,25.14,0,0,0,49.57,0h-5.45a19.85,19.85,0,0,1-19.34,15.75M765.3,46.16,761.15,46v.76l4.15.19v1.14h.78l.12-3h-.78ZM762.45,38a2.29,2.29,0,0,0-2.09,2.49.45.45,0,0,0,0,.11,2,2,0,0,0,.72,1.19l.56-.43a1.61,1.61,0,0,1-.52-.94c-.15-.76.59-1.46,1.52-1.65a1.58,1.58,0,0,1,2,1,1.43,1.43,0,0,1-.22,1.06l.69.2a1.89,1.89,0,0,0,.3-1.44c-.25-1.2-1.46-1.84-2.95-1.54m-4.33-2.77.64-.45-.92-1.32L761.27,31l-.44-.62-4,2.83Zm-2.4-5a.64.64,0,0,1-.89.14h0v0a1.41,1.41,0,0,1-.31-.73l-.69.32a2.05,2.05,0,0,0,.57,1,1.39,1.39,0,0,0,2-.08l0-.05.05-.06c1.06-1.17-.42-2.1.24-2.82a.62.62,0,0,1,.87-.1l0,0h0a1.44,1.44,0,0,1,.35.77l.68-.28a2,2,0,0,0-.58-1.08,1.34,1.34,0,0,0-1.89,0h0l-.07.09c-1.14,1.25.39,2.07-.28,2.8m-2.6-.43,2.93-4-.61-.45-2.93,4Zm-.82-5.5.38.21a.65.65,0,0,1,.3.88h0v.07a.67.67,0,0,1-.86.39h-.1l-.41-.23Zm-2.06,3.66,1-1.73.21.12a.28.28,0,0,1,.15.28l.07,2.23.83-.1-.13-2.18a1.31,1.31,0,0,0,1.31-.75,1.29,1.29,0,0,0-.3-1.8h0l-.22-.13L752,23.2l-2.43,4.32Zm-1.86-3.12a.7.7,0,0,1,.52,1,.64.64,0,0,1-.78.45H748l-.49-.17.46-1.41Zm.32-2.13.46.16a.65.65,0,0,1,.49.76.28.28,0,0,1,0,.13.67.67,0,0,1-.84.46h-.11l-.42-.15ZM748,26.83a1.24,1.24,0,0,0,1.62-.67,1,1,0,0,0,0-.16,1.07,1.07,0,0,0-.35-1.36h0c.4.08.84-.22,1.07-.85a1.21,1.21,0,0,0-.64-1.58h0l-.13-.05-1.31-.47-1.71,4.65Zm-7.43-4.89h0l1.8,3.81.77-.24.12-4.8h-.75v3.7h0l-1.94-3.82-.71.25-.12,4.79h.75Zm-6.89.68,1.18,4,.73-.22-1.19-4,1.08-.34-.22-.75-2.91.89.23.76Zm-3.85,6.47-2-3.08h0l3.56,2.23.51-.63-2.51-4-.64.4,2,3.12h0l-3.61-2.23-.46.6,2.43,4.11Zm-1.19.91-3.13-3.84-.58.49L728,30.53Zm-4.4,4.21L725,34l-.82-2,2.09.42.1-.81-2.46-.41L723,28.92l-.76.23.81,1.91-2-.4-.07.83,2.36.37Zm-1.51,3.52-.74-.26L721.46,39l-3.92-1.39-.24.72L722,40Zm-5.57,5.64,4.13.45.08-.76-4.13-.45.11-1.13-.78-.09-.31,3,.75.2Zm14.7,16.52a9.08,9.08,0,0,0-1.66.65l-.22.1a17.23,17.23,0,0,0,10.95,3.56,17.55,17.55,0,0,0,1.94-.13,18.69,18.69,0,0,0,7.31-2.31,1.73,1.73,0,0,1-.81-.65,1.47,1.47,0,0,1-.12-1.29,1.84,1.84,0,0,0-.47.07,9.59,9.59,0,0,0-1.77.7,11.65,11.65,0,0,1-4.65,1.3,1.72,1.72,0,0,1-1.46-.72,1.46,1.46,0,0,1-.25-.81,1.62,1.62,0,0,1,.11-.53,1.84,1.84,0,0,0-.47.06,8.82,8.82,0,0,0-1.78.71,11.54,11.54,0,0,1-4.63,1.29,1.68,1.68,0,0,1-1.4-.71,1.47,1.47,0,0,1-.17-1.36,1.84,1.84,0,0,0-.47.07m23.49-10.74v-.06a.52.52,0,0,0-.11-.32,1.83,1.83,0,0,0-1.7-.34,2.47,2.47,0,0,0-.7.17l-1.43-1.89,1.24,2a5.85,5.85,0,0,0-.82.33l-1.72-2.29,1.51,2.39-.34.17-.51.25-2.07-2.78,1.86,2.81a9.38,9.38,0,0,1-.93.35l-2.43-3.23,2.09,3.34-.77.18-2.66-3.56,2.23,3.63a9.48,9.48,0,0,0-.95.12,1.44,1.44,0,0,1-.64-.22h0a.26.26,0,0,1-.09-.16v0a.42.42,0,0,1,.09-.27l.25-.18h0a.72.72,0,0,0,.16-.44.54.54,0,0,0-.08-.28,1.81,1.81,0,0,0-1.75-.38,8.31,8.31,0,0,0-2,.63,12.92,12.92,0,0,1-.74-5.61,10.92,10.92,0,0,0,8,2.4,3.44,3.44,0,0,0,.56-.09h0a7.5,7.5,0,0,0,4.08-2,9.35,9.35,0,0,0,1.12-1.15.64.64,0,0,1,.1-.13c.07-.09.14-.16.2-.25l1,.71,1,.79a12.34,12.34,0,0,1-3,5.37m-12.72.12c-1-2.8-1.48-4-1.23-6.78l.79.84a13,13,0,0,0,.76,5.79l-.32.15m-.13.06a4.37,4.37,0,0,1-.31-.44.61.61,0,0,1-.07-.1l-.18-.29-.15-.25v-.08a10.8,10.8,0,0,1-1.3-3.54,5.58,5.58,0,0,0-.08-.64h0V42.87a3.82,3.82,0,0,0,.46-.21c.12-.07.24-.12.37-.18-.26,2.82.18,4,1.23,6.89h0m-.49.22a20.28,20.28,0,0,1-2.37-4.08s-.15-.32-.17-.38a5.36,5.36,0,0,1,.83-1.11v.32a10.78,10.78,0,0,0,2,5.1l-.29.15M740.37,36h6.39A12.72,12.72,0,0,0,745.9,40v.27a9.31,9.31,0,0,0,1.51,4.16v.05c.37.72.66,1.21.66,1.21h0a11.22,11.22,0,0,1-5.74-2.38h0l-.56-.58-.4-.42h0a2.71,2.71,0,0,0-.52.24l-.44.21h0a8.34,8.34,0,0,0,0,1h0l-.14.15a10.52,10.52,0,0,1-1-4.19,6.43,6.43,0,0,1,1.26-3.88m4.14-1.69H752a8.94,8.94,0,0,0-2.21,5v.28a8.1,8.1,0,0,0,1.66,5.12,4.37,4.37,0,0,0-3.92-.26,9.22,9.22,0,0,1-1.5-4.08,1.13,1.13,0,0,1,0-.26,9.68,9.68,0,0,1,.29-2.15c.15-.59.35-1.24.61-2l-.06-.09h-3.59a5.48,5.48,0,0,1,1.23-1.56m2.26-1.84a1.41,1.41,0,0,0,.07,1.35,7.32,7.32,0,0,0-2.27-1c.86-.2,2.2-.36,2.2-.36m.29-.18h.2l.24,1.82h-.42V32.21a.11.11,0,0,1,0-.08m5.05,13.11a7.37,7.37,0,0,1-1.05.28c.14-.14.36-.38.61-.66l.25.2.19.18m4.06-3a10.33,10.33,0,0,1-1.56,1.61h0l-.24.19a8.67,8.67,0,0,1-2.08,1.11l-.24-.23-.23-.24a23.86,23.86,0,0,0,1.68-2.08,10.3,10.3,0,0,0,2.7-.39m-21-5.64-2.67.21L733.65,38c.16.18,0,.4-.21.24l-.08-.08-1.09-1.13S732,44.8,732,45.69c0,.27-.23.3-.28,0l-.23-8.64c-.36.37-.77.88-1.17,1.22-.18.16-.35-.05-.2-.27l1-1.22-2.64-.21c-.39,0-.43-.36,0-.43l2.67-.24s-.77-.8-1.13-1.21c-.2-.22-.06-.38.12-.27l1.29,1.2v-.07c0-.88.11-1.77.18-2.65,0-.37.36-.43.43,0l.2,2.74s.87-.84,1.29-1.21c.22-.18.38,0,.16.26l-1.2,1.21,2.67.24c.38,0,.43.36,0,.43m24.42,8.76A18.63,18.63,0,0,0,741,26.61h0a18.83,18.83,0,0,0-18.67,19,19.4,19.4,0,0,0,.65,4.73,9.78,9.78,0,0,0,2.77-1A7.75,7.75,0,0,1,728,48.5a1.72,1.72,0,0,1,1.68.35.37.37,0,0,1,.07.25.69.69,0,0,1-.16.43l-.23.17a.42.42,0,0,0-.1.31v.07a.31.31,0,0,0,.11.19h0a1.37,1.37,0,0,0,.68.22,10.21,10.21,0,0,0,4.19-1.19,7.77,7.77,0,0,1,2.23-.82,1.73,1.73,0,0,1,1.7.36.4.4,0,0,1,.07.24.63.63,0,0,1-.17.43l-.22.18a.44.44,0,0,0-.11.29v.07a.3.3,0,0,0,.13.2h0a1.25,1.25,0,0,0,.62.22,10.32,10.32,0,0,0,3.38-.81l.48-.2h0a8.54,8.54,0,0,1,2.64-.87,1.72,1.72,0,0,1,1.6.31.48.48,0,0,1,.07.21.7.7,0,0,1-.14.36l-.23.17h0a.58.58,0,0,0-.12.36v.09a.35.35,0,0,0,.15.26h0a1.54,1.54,0,0,0,.72.24,10.07,10.07,0,0,0,4.22-1.21,7.71,7.71,0,0,1,2.22-.82,1.77,1.77,0,0,1,1.57.29.44.44,0,0,1,0,.49h0a.76.76,0,0,1-.06.25l-.21.18a.48.48,0,0,0-.12.36.3.3,0,0,0,.13.2h0a1.23,1.23,0,0,0,.64.22,10.49,10.49,0,0,0,3.65-1,18.54,18.54,0,0,0,.46-4.13m-8.8,15.5.78-.08a19.27,19.27,0,0,0,4.23-4.08,1.57,1.57,0,0,1-.94-.69,1.46,1.46,0,0,1-.22-.78,1.44,1.44,0,0,1,.09-.51h-.45a8.82,8.82,0,0,0-1.78.71,11.74,11.74,0,0,1-4.64,1.28,1.71,1.71,0,0,1-1.46-.72,1.45,1.45,0,0,1-.25-.8,1.32,1.32,0,0,1,.11-.53h-.47a8.82,8.82,0,0,0-1.78.71,11.44,11.44,0,0,1-4.61,1.28,1.71,1.71,0,0,1-1.43-.7,1.47,1.47,0,0,1-.16-1.35h-.45a8.73,8.73,0,0,0-1.77.71A11.65,11.65,0,0,1,731,56.84a1.77,1.77,0,0,1-1.48-.73,1.44,1.44,0,0,1-.14-1.32h-.47a9,9,0,0,0-1.8.71c-.43.22-.88.42-1.34.6l.44.6a19.07,19.07,0,0,0,3,3.22l.48-.23a7.87,7.87,0,0,1,2.2-.81,1.73,1.73,0,0,1,1.69.33.44.44,0,0,1,.08.25.77.77,0,0,1-.17.43l-.22.18a.47.47,0,0,0-.11.31v.06a.33.33,0,0,0,.12.19h0a1.21,1.21,0,0,0,.61.21A9.66,9.66,0,0,0,738,59.76a7.51,7.51,0,0,1,2.25-.82,1.74,1.74,0,0,1,1.68.33.45.45,0,0,1,.08.26.73.73,0,0,1-.16.42l-.24.17a.58.58,0,0,0-.1.32v.07a.27.27,0,0,0,.1.18h0a1.55,1.55,0,0,0,.66.21,10,10,0,0,0,4.18-1.17,7.33,7.33,0,0,1,2.22-.82,1.77,1.77,0,0,1,1.7.33.58.58,0,0,1-.1.68l-.22.18a.53.53,0,0,0-.11.37.33.33,0,0,0,.12.19h.05a1.44,1.44,0,0,0,.64.22m5.63-5.05a18.81,18.81,0,0,0,2.41-5.18,22.68,22.68,0,0,1-3.36.76,1.73,1.73,0,0,1-1.44-.74,1.46,1.46,0,0,1-.25-.81,1.25,1.25,0,0,1,.1-.51h-.47a10.09,10.09,0,0,0-1.74.71A12.09,12.09,0,0,1,747,51.37a1.75,1.75,0,0,1-1.47-.75,1.48,1.48,0,0,1-.23-.79,1.3,1.3,0,0,1,.1-.52,3.69,3.69,0,0,0-.47,0,9.3,9.3,0,0,0-1.76.72,11.77,11.77,0,0,1-4.64,1.3,1.73,1.73,0,0,1-1.42-.74,1.47,1.47,0,0,1-.16-1.32h-.47a9.68,9.68,0,0,0-1.73.71,12.23,12.23,0,0,1-4.7,1.31,1.8,1.8,0,0,1-1.49-.76,1.49,1.49,0,0,1-.24-.79,1.25,1.25,0,0,1,.1-.51h-.45a11.32,11.32,0,0,0-1.77.72,11,11,0,0,1-3,1.07,19.07,19.07,0,0,0,1.92,4.12,12,12,0,0,0,1.42-.63,7.86,7.86,0,0,1,2.24-.83,1.82,1.82,0,0,1,1.69.34.59.59,0,0,1-.09.69l-.24.17a.51.51,0,0,0-.1.3h0a.35.35,0,0,0,.12.22h0a1.61,1.61,0,0,0,.71.2A10.17,10.17,0,0,0,735,54.43a7.77,7.77,0,0,1,2.23-.82A1.8,1.8,0,0,1,739,54a.59.59,0,0,1-.08.69,1,1,0,0,0-.24.17.48.48,0,0,0-.1.35.35.35,0,0,0,.12.22h0a1.37,1.37,0,0,0,.65.2,9.91,9.91,0,0,0,4.15-1.17,7.77,7.77,0,0,1,2.23-.82,1.8,1.8,0,0,1,1.68.34.59.59,0,0,1-.08.69,1,1,0,0,0-.22.18.39.39,0,0,0-.12.33.3.3,0,0,0,.11.23h0a1.49,1.49,0,0,0,.68.2,10,10,0,0,0,4.18-1.17,8.15,8.15,0,0,1,2.24-.82,1.82,1.82,0,0,1,1.69.34.58.58,0,0,1-.09.69l-.24.17a.53.53,0,0,0-.1.35.39.39,0,0,0,.11.22h0a1.41,1.41,0,0,0,.66.2Z"/></g></g><g id="Capa_2-2" data-name="Capa 2-2"><g id="Contacto-2"><path class="cls-2" d="M933,50.93a1.72,1.72,0,0,0,.87-.81,1.06,1.06,0,0,0,.1-.46c0-.4-.41-.64-.85-.8Z"/><path class="cls-2" d="M930.05,54.16a1.2,1.2,0,0,0,.51,1.09,3.06,3.06,0,0,0,.84.53l-.07-2.66C930.74,53.33,930.16,53.59,930.05,54.16Z"/><path class="cls-2" d="M929.85,44.3c-.87,1.15.28,1.77,1.32,2.14l-.07-2.85A2.06,2.06,0,0,0,929.85,44.3Z"/><path class="cls-2" d="M920.81,28.05c0,5.78.06,11.57.05,17.35,0,7.65,3.27,12.73,9.41,17,.61.42,1.23.83,1.87,1.22,6.8-3.67,11.32-8.71,11.72-16.75V28.05A70.2,70.2,0,0,0,920.81,28.05ZM938.1,44.76c.17.26.85.3,2,.14a2.43,2.43,0,0,1-3-.27,4,4,0,0,0-1.68-.76,1.59,1.59,0,0,0,.3.75l.13.24H936l.33-.29.18.17-.56.56h-.15L934.52,44l-.62-.58c-.17,0-.32-.08-.48-.08l-.08,1.3-.12,2.27V47l1.12.33a2.4,2.4,0,0,1,1.47,3c-.37,1.23-1.37,1.6-2.46,2.05l-.46.18-.21,3.67.59.24a1.6,1.6,0,0,1,1,2,1.53,1.53,0,0,1-.11.27,1.57,1.57,0,0,1-.53.93l-.4.32-.39-.5a3.48,3.48,0,0,0,.64-.57,1.22,1.22,0,0,0-.75-1.55h-.16l-.34,5.88-.68-.14-.14-6a3.21,3.21,0,0,1-2.23-.86,2.44,2.44,0,0,1-.41-3.43h0l.1-.12a5.24,5.24,0,0,1,2.4-1.28l-.07-3.14-.34-.1c-1.11-.31-2.34-.43-2.93-1.56a3,3,0,0,1,0-2.77,4.81,4.81,0,0,1,3.06-2V40.72l-2.15-.47-.11-1.11-2.53-.55v-.47h2.56A2.65,2.65,0,0,1,927,34.86l0-.1a1.75,1.75,0,0,1,.12-.32c.31-.83.1-.82-.37-1.34a1.14,1.14,0,0,1,.45,0,1.43,1.43,0,0,1,.88,1c.16.56,0,.91.27,1.32a2.79,2.79,0,0,0,.78.75,3.76,3.76,0,0,1-.64-1.64,3.15,3.15,0,0,1,.25-1.66,2.2,2.2,0,0,0,.37-1.4,1.84,1.84,0,0,0-.5-.78,3.49,3.49,0,0,1,1.42.52,1.6,1.6,0,0,1,.57,1.23,13.66,13.66,0,0,0-.16,2.56c.1.48.46,1.09.81,1.15-.1-.48-.44-.66-.27-1.31s.51-1.24.56-1.51a1.44,1.44,0,0,0-.17-1.11,2,2,0,0,1-.25-2,3.94,3.94,0,0,1,1.19-1.28,1.8,1.8,0,0,0-.28,1.28,2.26,2.26,0,0,0,.68,1.22,2.06,2.06,0,0,1,.6,1,2.49,2.49,0,0,1,0,1.43,3.18,3.18,0,0,0-.29.87,3.33,3.33,0,0,0,.07.83,6.48,6.48,0,0,1,.7-1.51c.39-.53.52-.73.29-1.19a2.23,2.23,0,0,1-.45-1.47,1.57,1.57,0,0,1,.54-1.07l.3-.23a1.61,1.61,0,0,0-.12.87,2.15,2.15,0,0,0,.71,1c.46.4.77.68.72,1a10.68,10.68,0,0,0-.43,1.86,3.55,3.55,0,0,0,.1,1.12,2.64,2.64,0,0,1,.45-1.11,14.26,14.26,0,0,0,1-1.21,2.29,2.29,0,0,0,.07-1.07l-.05-.5a2.61,2.61,0,0,1,.89.89,2.14,2.14,0,0,1-.07,1.63c-.23.39-.72,1.28-.72,1.28L937,36a3.78,3.78,0,0,0,1-.73,6.14,6.14,0,0,0,.77-1.18c.07-.25.18,1.12.09,1.39a5,5,0,0,1-1,1.81,11.38,11.38,0,0,1-1.16.8h1.65l-.07.61-2.58.43v1.07l-2.15.39,0,1a.81.81,0,0,0,.31,0,4.57,4.57,0,0,1,1.28-.06s.66.49.75.53.75.41.87.43.76.28.76.28c-.15.31-.3.63-.46,1h-.22v-.52l.08-.27h-.63c-.48.16-.78.41-.82.76l.11-.21a18.88,18.88,0,0,1,2.34.78c1.63.32,2.37-.37,2.53-.71.06.9-1,1.13-2.31,1.17Z"/><path class="cls-2" d="M935,41.93l-.32,0V42a1.94,1.94,0,0,0,.34.21h.18v-.06A.72.72,0,0,0,935,41.93Z"/><path class="cls-1" d="M926.42,63.26l-.18.21-.26.3.07.06a.36.36,0,0,0,.37.1.55.55,0,0,0,.17-.13.27.27,0,0,0,0-.39h-.07Z"/><path class="cls-1" d="M925.78,64l-.46.55-.11.15.09.09a.41.41,0,0,0,.32.1.58.58,0,0,0,.31-.2.39.39,0,0,0,0-.55h0l-.1-.07Z"/><path class="cls-1" d="M917.25,45.45h0a.45.45,0,0,0,0,.23.47.47,0,0,0,.14.14.54.54,0,0,0,.25.06.33.33,0,0,0,.32-.18.57.57,0,0,0,0-.26v-.1a4.34,4.34,0,0,0-.51,0h-.28Z"/><path class="cls-1" d="M917.26,39.64a.2.2,0,0,0,0,.11.24.24,0,0,0,.1.22.52.52,0,0,0,.29.09c.25,0,.41-.09.41-.36v-.15s-.39,0-.49,0h-.31v.09Z"/><path class="cls-1" d="M947.2,49a.34.34,0,0,0-.06-.24.42.42,0,0,0-.28-.14c-.25,0-.41,0-.46.28v.15c0,.05.39.07.48.09l.31.06v-.06h0Z"/><path class="cls-1" d="M950.86,21.71a82,82,0,0,0-37.08,0l.06,23.68c-.07,12.61,6.8,20,16.16,25.47,1.88,1.1,2.44.87,4.37-.13,9.15-4.75,15.37-12,16.49-23.46Zm-4.47,13.46h.67v.22h-.23v.06a1.5,1.5,0,0,0,0,.3v.17h1.4a2.17,2.17,0,0,0,.51,0h0v-.18h0v-.06h.17l.06,0h0a4.51,4.51,0,0,0,0,.52,4.34,4.34,0,0,0,0,.51h0l-.06.06h-.17v0h0v-.18h0a2.17,2.17,0,0,0-.51,0h-1.36v.51H947l0,0v.16l-.06.06h-.55l-.07-.06h0a4.33,4.33,0,0,0,0-.72v-1.4h0Zm-30.47.35H916a3.29,3.29,0,0,0,.54,0h.06v.17l-.06,0h-.29a.54.54,0,0,0-.15.18.64.64,0,0,0-.07.31.41.41,0,0,0,.2.4.39.39,0,0,0,.21.06.27.27,0,0,0,.25-.14.9.9,0,0,0,.07-.27,1.66,1.66,0,0,1,.19-.62.63.63,0,0,1,.54-.24.72.72,0,0,1,.6.25,1,1,0,0,1,.23.73,1.54,1.54,0,0,1-.13.67h-.08a1.85,1.85,0,0,0-.47,0h0v-.27h.26a.39.39,0,0,0,.11-.15.57.57,0,0,0,0-.26.47.47,0,0,0-.11-.31.28.28,0,0,0-.24-.1.24.24,0,0,0-.23.11,1.31,1.31,0,0,0-.1.4v.2a.73.73,0,0,1-.05.2.6.6,0,0,1-.22.28.77.77,0,0,1-.39.11.91.91,0,0,1-.53-.18,1,1,0,0,1-.3-.39,1.52,1.52,0,0,1-.09-.51,1.63,1.63,0,0,1,.17-.73Zm-.09,3.21h0v-.06H916l0,.06h0v.18h0a4.34,4.34,0,0,0,.51,0h.89a4.34,4.34,0,0,0,.51,0h0v-.19h0v0h.17l0,.06h0V40a.74.74,0,0,1-.26.65.73.73,0,0,1-.33.08.74.74,0,0,1-.59-.26.88.88,0,0,1-.21-.58.74.74,0,0,1,0-.21h-.38a2.17,2.17,0,0,0-.51,0h0v.22h0l0,.06h-.17v-.06h0V39.3C915.68,39.12,915.84,38.9,915.83,38.73Zm0,3.33h0l.06-.05h.17l.05.05h0v.18H918v-.18h0V42h.17l0,.06h0v1h0l0,.06H918v-.06h0v-.18h0a2.18,2.18,0,0,0-.51,0h-.89a2.17,2.17,0,0,0-.51,0h0v.18h0l-.05.06h-.17l-.06,0h0v-.51c0-.17,0-.36,0-.53Zm0,4.79v-.71H916l.69-.42.29-.19.08-.08h-.43a4.34,4.34,0,0,0-.51,0h0v.19h0l-.06.06h-.16l-.06-.06h0v-1h0v-.06H916v.18h0a4.34,4.34,0,0,0,.51,0h.89a4.34,4.34,0,0,0,.51,0h0v-.18h.17l.06.06h0a4.51,4.51,0,0,0,0,.52v.71a1.17,1.17,0,0,1-.06.45.46.46,0,0,1-.27.29.81.81,0,0,1-.22,0,.72.72,0,0,1-.68-.49l-.22.14-.4.26a1.53,1.53,0,0,0-.38.29.08.08,0,0,0,0,.07h0l0,0h-.16Zm.49,2.36h0l-.05.06H916a4.34,4.34,0,0,0,0-.51l-.06-.51h0v-.06h.17l.06.05h0v.18h.51l.88-.09.51-.08h0v-.18h0l0-.06h.17l.06.06h0a4.34,4.34,0,0,0,0,.51l.06.51h0v.07h-.17l-.06,0h0v-.18h0a2.17,2.17,0,0,0-.51,0l-.88.09a3,3,0,0,0-.51.07h0a.6.6,0,0,0,0,.19Zm.56,2.93h0v.06h-.24a2.33,2.33,0,0,0-.11-.51,3.89,3.89,0,0,0-.12-.49h0v-.07h.23a1.54,1.54,0,0,0,.05.17h0l.5-.09.93-.22a.62.62,0,0,0,.39-.09v-.18a1.58,1.58,0,0,0-.09-.31h-.33v-.23l.3-.07.24-.08h.08a2.82,2.82,0,0,0,.15.7l.15.66c0,.24.11.47.18.7h0l-.05.07h-.25l-.3.07h-.06V52h0l.23-.07v-.06a.61.61,0,0,0-.06-.3v-.16a1.7,1.7,0,0,0-.39.09l-.93.21a2.85,2.85,0,0,0-.5.14h0v.28Zm1.26,3.75a1,1,0,0,1-.58-.62,1.39,1.39,0,0,1-.12-.72.65.65,0,0,1,.24-.43,3.06,3.06,0,0,1,.71-.33l.41-.17a2.4,2.4,0,0,0,.46-.21h0l-.06-.18h0v-.07l.16-.06h.07c.06.16.12.32.19.48a4.73,4.73,0,0,0,.2.47h0v.07l-.16.06h-.07a.8.8,0,0,0-.08-.16h0a3.06,3.06,0,0,0-.48.17l-.33.13a4.27,4.27,0,0,0-.68.33.52.52,0,0,0,0,.56.65.65,0,0,0,.27.34.38.38,0,0,0,.15,0,.67.67,0,0,0,.2,0l.26-.08.32-.13.56-.23.15-.08h0v-.18h0v-.07l.15-.07h.08c0,.09.06.19.1.28a1.12,1.12,0,0,0,.17.41h0v.07l-.16.06h-.07s-.06-.14-.11-.13l-.24.07-.39.15-.48.2a1.11,1.11,0,0,1-.78.08Zm3.47,1.94h0a1.65,1.65,0,0,0-.42.21h-.07L921,57.9v-.07h0a1.37,1.37,0,0,0,.2-.13.54.54,0,0,0,0-.18.69.69,0,0,0-.1-.25.4.4,0,0,0-.25-.21.3.3,0,0,0-.26,0,.27.27,0,0,0-.14.22,2,2,0,0,0,.13.39.2.2,0,0,0,.08.19l.06.19a.55.55,0,0,1,0,.36.73.73,0,0,1-.28.3.85.85,0,0,1-.54.13.92.92,0,0,1-.46-.17,1.41,1.41,0,0,1-.34-.39,1.47,1.47,0,0,1-.24-.7h0v-.07h0a2.73,2.73,0,0,0,.48-.25h.08l.08.13v.08h0a.62.62,0,0,0-.18.14.45.45,0,0,0,0,.23.67.67,0,0,0,.1.3.44.44,0,0,0,.38.24.43.43,0,0,0,.22-.06.28.28,0,0,0,.13-.26,1.12,1.12,0,0,0-.08-.26,1.56,1.56,0,0,1-.17-.63.6.6,0,0,1,.33-.49.73.73,0,0,1,.64-.1,1,1,0,0,1,.58.49,1.47,1.47,0,0,1,.24.64h0Zm2.29,4.84a1.16,1.16,0,0,1-.7.36,1,1,0,0,1-.77-.37,1.62,1.62,0,0,1-.37-.63.64.64,0,0,1,.08-.49,3.64,3.64,0,0,1,.54-.57l.32-.29a3.06,3.06,0,0,0,.36-.36h0l-.12-.14v-.1l.12-.11h.08l.34.39.36.36h0v.08l-.12.12h0l-.13-.13h0a4,4,0,0,0-.38.34l-.26.23a3,3,0,0,0-.51.56.47.47,0,0,0,.16.53.7.7,0,0,0,.38.22h.15a1,1,0,0,0,.17-.1l.21-.18.26-.24.43-.41a.49.49,0,0,0,.12-.13h0l-.11-.15h0v-.08l.13-.12h.08l.2.23.31.31h0v.08l-.13.12H925s-.11-.1-.15-.08l-.19.16-.31.28Zm2.54,2.41a.79.79,0,0,1-.79.26,1,1,0,0,1-.5-.26L925,65l-.3-.27-.26-.2h0v-.14h.14l.13-.14.25-.29.55-.65c.11-.13.21-.27.31-.41h0l-.13-.13h0v-.15l.11-.13H926c.12.12.25.23.38.34l.33.26.2.16a.75.75,0,0,1,.35.61.53.53,0,0,1-.12.29.6.6,0,0,1-.45.21.67.67,0,0,1-.2,0,.56.56,0,0,1,0,.75Zm2.9.32h-.09l-.16-.1h0a2.5,2.5,0,0,0-.31.4l-.53.72a3.07,3.07,0,0,0-.28.42h0l.14.12h0V67l-.09.13h-.08c-.13-.11-.27-.21-.41-.31l-.42-.3h0v-.08l.09-.14h.08l.16.09h0a4,4,0,0,0,.32-.4l.52-.72a2.87,2.87,0,0,0,.28-.43h0a.53.53,0,0,0-.14-.12h0v-.07l.1-.14h.08c.13.11.27.21.41.31l.42.29h0v.07Zm2.76,0c-.78-.47-1.53-1-2.25-1.46-6.41-4.44-10.3-9.92-10.28-18.58,0-6.32,0-12.65-.05-19a75.54,75.54,0,0,1,25.63,0c.09,6.86.31,13.73,0,20.58-.44,8.91-5.51,14.45-13,18.45Zm5.56,1-1.76-1.08a1.87,1.87,0,0,0-.31-.17.55.55,0,0,0-.15.08h-.08l-.09-.13V65h0l.37-.25.48-.36h.08l.09.13v0h0a.53.53,0,0,0-.14.12h0l.26.17.18.12.83.51-.21-.82a2.76,2.76,0,0,0-.08-.27,2,2,0,0,0-.11-.35h0l-.17.1h-.08l-.1-.14V64h0a3.62,3.62,0,0,0,.32-.22l.28-.21h.08l.1.14v.07h0a.32.32,0,0,0-.1.1v.06c0,.11,0,.22.07.33l.07.31.14.57c.08.34.16.7.26,1h0Zm3.2-2.46a1.41,1.41,0,0,1-.63.38.65.65,0,0,1-.49-.07,3.58,3.58,0,0,1-.57-.53l-.3-.31a2.44,2.44,0,0,0-.37-.35h0l-.14.12h-.07l-.12-.12V63h0l.38-.35c.12-.12.25-.24.36-.37H939l.12.12v.08h0l-.12.13h0a3,3,0,0,0,.34.38l.24.25a3.39,3.39,0,0,0,.56.51.47.47,0,0,0,.53-.18.66.66,0,0,0,.21-.38.38.38,0,0,0,0-.15,1,1,0,0,0-.11-.17l-.18-.21-.25-.25-.41-.43-.14-.11h0l-.14.12h-.1l-.11-.12v-.08h0a2.09,2.09,0,0,0,.22-.2l.31-.31h0l.12.12v.08h0s-.11.1-.08.15l.16.18c.09.11.19.21.28.31l.36.37a1.14,1.14,0,0,1,.38.7A1.1,1.1,0,0,1,940.86,63.94ZM943,61.59c-.09.11-.18.22-.26.34h-.09l-.06-.06v0h0v-.13a.87.87,0,0,0-.15-.13l-.29-.23-.67-.53a2.06,2.06,0,0,0-.48-.21h0l-.13.14h-.08l-.13-.11v-.08h0c.11-.12.22-.26.32-.39a4.13,4.13,0,0,0,.31-.42h.08l.13.1v.1l-.11.15h0a3.09,3.09,0,0,0,.39.33l.79.62.29.21.1-.13a2.21,2.21,0,0,0,.33-.47v-.06l-.16-.18v-.07l.1-.12h.08l.4.37h0Zm2.32-3.23c-.1.14-.18.29-.27.43s-.18.3-.26.45h-.08l-.14-.08v-.08h0a1.19,1.19,0,0,0,.08-.16h0a2.87,2.87,0,0,0-.43-.28l-.82-.49-.34-.21-.1.16a1.25,1.25,0,0,0-.15.28h.06l.13.21h0v.08l-.08.13h-.08l-.27-.16-.22-.1h0v-.08h0a4.67,4.67,0,0,0,.38-.6l.35-.59c.13-.2.25-.41.36-.62h.09l.2.15L944,57V57l-.09.13h-.07l-.21-.11a.06.06,0,0,0-.06,0l-.16.26-.09.14.35.21.82.49a2.46,2.46,0,0,0,.45.25h0l.11-.15h.07l.15.08v.08Zm2.55-5.67a1.78,1.78,0,0,1-.35.65h-.09a2.21,2.21,0,0,0-.51-.18h0v-.23h.36a.52.52,0,0,0,.19-.14.85.85,0,0,0,.15-.28.41.41,0,0,0-.09-.44.39.39,0,0,0-.19-.12.27.27,0,0,0-.28.08,1,1,0,0,0-.14.24,1.58,1.58,0,0,1-.34.55.6.6,0,0,1-.58.09.84.84,0,0,1-.52-.4,1.1,1.1,0,0,1,0-.76,1.35,1.35,0,0,1,.3-.61h.1l.44.16h0v.22h-.06a.89.89,0,0,0-.23,0,.26.26,0,0,0-.14.11.9.9,0,0,0-.12.24.47.47,0,0,0,0,.33.31.31,0,0,0,.21.16.28.28,0,0,0,.25,0,1.27,1.27,0,0,0,.2-.36l.09-.18a.77.77,0,0,1,.1-.18.53.53,0,0,1,.29-.22.68.68,0,0,1,.4,0,.89.89,0,0,1,.47.31,1,1,0,0,1,.19.45,1.51,1.51,0,0,1,0,.52Zm.71-3.48a3.41,3.41,0,0,1-.1.54c0,.18-.06.34-.08.5h-.23v-.06h0V50h0a2.13,2.13,0,0,0-.5-.11l-.87-.15a3,3,0,0,0-.51-.07h0v.18h-.23v-.07h0a3,3,0,0,1,.1-.5l.06-.4v-.3a.75.75,0,0,1,.38-.6.47.47,0,0,1,.33,0,.69.69,0,0,1,.54.36.84.84,0,0,1,.11.6,1.72,1.72,0,0,1-.07.21h-.07l.44.08a4.43,4.43,0,0,0,.51.06h0a2.25,2.25,0,0,0,.05-.22h.22l.05.07Zm.23-2.15h-.17V47h0v-.18h0a2.17,2.17,0,0,0-.51,0h-1.4a.6.6,0,0,0,0,.19h0l-.06.06h-.17V47h0v-.51a4.34,4.34,0,0,0,0-.51h0v-.06h.17l.06.05h0a.6.6,0,0,0,0,.19h1.4a2.17,2.17,0,0,0,.51,0h0V46h0v-.06h.17l.06.05h0a4.51,4.51,0,0,0,0,.52,4.34,4.34,0,0,0,0,.51h0Zm0-2.49h-.17v-.18h0a2.17,2.17,0,0,0-.51,0h-1.4v.19h0v.06h-.17l-.06-.06V43.33a1.14,1.14,0,0,1,0-.45.44.44,0,0,1,.27-.29.41.41,0,0,1,.22,0,.71.71,0,0,1,.69.47l.21-.14.4-.26a3.57,3.57,0,0,0,.38-.3.08.08,0,0,0,0-.07h0v0h.16l.06.06V43h-.16l-.69.43-.28.19-.09.09h.42a4.34,4.34,0,0,0,.51,0h0v-.19h0v-.06h.16l.06.05h0V44a4.34,4.34,0,0,0,0,.51h0Zm0-3.63h-.17v0h0v-.16l-.2-.08-.5-.2-1.1-.42-.39-.14h0v-.3l2.12-1a.21.21,0,0,0,.1-.06.28.28,0,0,0,0-.13h0l.06-.05h.16l.06.05h0v1h0l-.06.05h-.16V39.3h-.13l-.31.13v.77l.16.06.28.08h0v-.16h0v0h.16l.06.06h0v.73h0Z"/><path class="cls-1" d="M947.83,39.59l-.64.27.65.24v-.51Z"/><path class="cls-1" d="M947.46,43.59h0a.46.46,0,0,0-.05-.23.25.25,0,0,0-.14-.13.54.54,0,0,0-.25-.06.33.33,0,0,0-.32.18,1.22,1.22,0,0,0,0,.27v.1h.79Z"/><path class="cls-2" d="M957.15,36.1h1.4v3.2a6.91,6.91,0,0,0,0,.91.73.73,0,0,0,.3.48,1.14,1.14,0,0,0,.67.19,1.19,1.19,0,0,0,.66-.17.62.62,0,0,0,.24-.41,4.92,4.92,0,0,0,0-.94V36.1h1.4v3.1a7.26,7.26,0,0,1-.09,1.47,1.9,1.9,0,0,1-.37.77,2.06,2.06,0,0,1-.71.49,3.13,3.13,0,0,1-1.14.18,3.27,3.27,0,0,1-1.28-.2,1.75,1.75,0,0,1-.71-.52,1.64,1.64,0,0,1-.35-.68,6.49,6.49,0,0,1-.11-1.46V36.1Zm9.14,3.49V36.1h1.32V42h-1.35l-2.07-3.36V42h-1.32V36.1h1.31Zm2.23,2.47v-6h1.4V42Zm4.45-2,1.29-3.91h1.49l-2.12,5.92h-1.4l-2.11-5.92h1.52Zm4.45-2.69v1h2.84v1.22h-2.84v1.27h3.16v1.22H976v-6h4.45v1.22Zm7.47,2.14a2.24,2.24,0,0,1,.37.32,6,6,0,0,1,.66.93l.81,1.31h-1.66l-.87-1.29a5.24,5.24,0,0,0-.59-.81.86.86,0,0,0-.29-.21,1.57,1.57,0,0,0-.53,0h-.1v2.36h-1.4v-6h2.53a4.17,4.17,0,0,1,1.36.17,1.39,1.39,0,0,1,.72.59,1.73,1.73,0,0,1,.27,1,1.67,1.67,0,0,1-.41,1.14,1.74,1.74,0,0,1-.87.5Zm-2.2-1h.71a4.2,4.2,0,0,0,1-.06.53.53,0,0,0,.25-.19.56.56,0,0,0,.09-.35.5.5,0,0,0-.45-.55h0a5.47,5.47,0,0,0-.81,0h-.76v1.13Zm4,1.44v.13a2.31,2.31,0,0,0,.73,1.53,2.69,2.69,0,0,0,1.73.53,3.71,3.71,0,0,0,1.28-.22,1.77,1.77,0,0,0,.82-.68,1.88,1.88,0,0,0,.29-1,1.83,1.83,0,0,0-.24-1,1.69,1.69,0,0,0-.68-.62,5.49,5.49,0,0,0-1.26-.42,3.22,3.22,0,0,1-1-.35.31.31,0,0,1-.13-.24.3.3,0,0,1,.13-.25,1.22,1.22,0,0,1,.7-.18,1.1,1.1,0,0,1,.64.17.81.81,0,0,1,.27.54V38l1.39-.06v-.13a1.75,1.75,0,0,0-.61-1.34,2.52,2.52,0,0,0-1.69-.5,2.88,2.88,0,0,0-1.16.21,1.59,1.59,0,0,0-.76.62,1.52,1.52,0,0,0-.27.88,1.63,1.63,0,0,0,.57,1.23,3.51,3.51,0,0,0,1.34.59,7.49,7.49,0,0,1,.9.24A.84.84,0,0,1,990,40a.38.38,0,0,1,.09.25.59.59,0,0,1-.23.45,1.17,1.17,0,0,1-.75.2,1,1,0,0,1-.74-.23,1.24,1.24,0,0,1-.36-.74v-.12l-1.37.13ZM992.23,42V36.1h1.4V42Zm2.22-5.92h2.22a4.15,4.15,0,0,1,1.11.12,1.87,1.87,0,0,1,.91.55,2.56,2.56,0,0,1,.57,1,4.26,4.26,0,0,1,.19,1.38,3.73,3.73,0,0,1-.18,1.24,2.78,2.78,0,0,1-.64,1.05,2.11,2.11,0,0,1-.85.48,3.76,3.76,0,0,1-1,.13H994.5v-6Zm1.4,1.22v3.48h.72a2.94,2.94,0,0,0,.66,0,.93.93,0,0,0,.41-.2,1.06,1.06,0,0,0,.26-.49,3.79,3.79,0,0,0,.11-1,3.34,3.34,0,0,0-.11-1,1,1,0,0,0-.29-.49.92.92,0,0,0-.47-.24,5.43,5.43,0,0,0-.9-.05Zm7.71,3.41h-2.08L1001,42h-1.49l2.31-5.92h1.38l2.37,5.92H1004Zm-.46-1.21-.6-1.59-.57,1.59Zm2.76-3.42h2.21a4.15,4.15,0,0,1,1.11.12,1.87,1.87,0,0,1,.91.55,2.56,2.56,0,0,1,.57,1,4.26,4.26,0,0,1,.19,1.38,3.73,3.73,0,0,1-.18,1.24,2.49,2.49,0,0,1-.64,1.05,2.11,2.11,0,0,1-.85.48,3.71,3.71,0,0,1-1,.13h-2.27v-6Zm1.4,1.22v3.48h.74a3.67,3.67,0,0,0,.66,0,.84.84,0,0,0,.4-.2,1.06,1.06,0,0,0,.26-.49,3.41,3.41,0,0,0,.11-1,3,3,0,0,0-.11-1,1.08,1.08,0,0,0-.32-.49,1.11,1.11,0,0,0-.47-.24,5.56,5.56,0,0,0-.91-.05Zm7.9,2.57V42h-1.41V36.1h2a8.05,8.05,0,0,1,1.39.09,1.69,1.69,0,0,1,.88.6,1.85,1.85,0,0,1,.35,1.18,2.07,2.07,0,0,1-.2.94,1.67,1.67,0,0,1-.52.6,1.69,1.69,0,0,1-.64.29,6.16,6.16,0,0,1-1.21.08Zm0-2.57v1.34h.49a2.7,2.7,0,0,0,.85-.08.61.61,0,0,0,.3-.22.7.7,0,0,0,.11-.37.62.62,0,0,0-.15-.42.61.61,0,0,0-.39-.21,3.48,3.48,0,0,0-.79,0Zm5.26,0v1h2.84v1.22h-2.84v1.27h3.16v1.22H1019V36.1h4.45v1.22Zm7.47,2.14a2.24,2.24,0,0,1,.37.32,6,6,0,0,1,.66.93l.82,1.31h-1.67l-.87-1.29a5.19,5.19,0,0,0-.58-.81.69.69,0,0,0-.3-.21,1.57,1.57,0,0,0-.53,0h-.1V42h-1.4V36.1h2.53a4.17,4.17,0,0,1,1.36.17,1.46,1.46,0,0,1,.73.59,1.92,1.92,0,0,1-.14,2.14,1.89,1.89,0,0,1-.88.5Zm-2.2-1h.72a4.2,4.2,0,0,0,1-.06.53.53,0,0,0,.25-.19.64.64,0,0,0,.1-.35.51.51,0,0,0-.47-.55h0a5.61,5.61,0,0,0-.82,0h-.76v1.16ZM1030,36.1h1.4v3.2a6.91,6.91,0,0,0,0,.91.8.8,0,0,0,.3.48,1.17,1.17,0,0,0,.68.19,1.13,1.13,0,0,0,.65-.17.71.71,0,0,0,.25-.41,5.93,5.93,0,0,0,0-.94V36.1h1.4v3.1a8.08,8.08,0,0,1-.1,1.47,1.78,1.78,0,0,1-.37.77,2.06,2.06,0,0,1-.71.49,3.13,3.13,0,0,1-1.14.18,3.27,3.27,0,0,1-1.28-.2,1.85,1.85,0,0,1-.71-.52,1.74,1.74,0,0,1-.34-.68,7.14,7.14,0,0,1-.12-1.46V36.1Zm9.11,4.63H1037l-.46,1.29h-1.49l2.3-5.92h1.38L1041.1,42h-1.52l-.5-1.29Zm-.46-1.21-.65-1.59-.58,1.59Zm6.2,0V36.1h1.32V42h-1.35l-2.08-3.36V42h-1.32V36.1h1.32l2.08,3.49Zm5.67,1.18h-2.08L1048,42h-1.49l2.3-5.92h1.39l2.36,5.92H1051l-.49-1.29Zm-.52-1.18-.59-1.59-.58,1.59Z"/><path class="cls-2" d="M963.21,51.22l2,.63V52a4.1,4.1,0,0,1-1.38,2.23,4.34,4.34,0,0,1-5.45-.51,4.86,4.86,0,0,1-1.17-3.4,5.05,5.05,0,0,1,1.18-3.54,4.1,4.1,0,0,1,3.11-1.27,3.85,3.85,0,0,1,2.74,1,3.73,3.73,0,0,1,1,1.7v.13l-2,.49v-.13a1.69,1.69,0,0,0-1.75-1.39,1.9,1.9,0,0,0-1.51.66,3.53,3.53,0,0,0-.58,2.21,3.8,3.8,0,0,0,.58,2.32,1.84,1.84,0,0,0,1.47.67,1.69,1.69,0,0,0,1.15-.42,2.66,2.66,0,0,0,.7-1.36v-.14Zm8.57,1.55h-3.37l-.73,2h-2.19l3.57-9.18h2.07l3.67,9.16h-2.24ZM971.11,51l-1-2.79-1,2.79Zm5.51-.06v3.84h2V51l3.43-5.37h-2.38l-2,3.39-2-3.39h-2.41l3.36,5.32Zm8-3.55v1.71h4.46v1.76h-4.46V53h5v1.76h-7v-9.2h6.85v1.77Zm8.23,0h-2.64V45.59h7.33v1.77H994.9v7.43h-2V47.4Zm10,5.37.78,2h2.23l-3.66-9.18h-2.08l-3.56,9.16h2.19l.73-2Zm-.67-1.76h-2l1-2.79Zm9.72.23V45.59h1.93v9.2h-2l-3.38-5.47v5.47h-1.93v-9.2h2L1012,51.2Zm3.2-1a5.8,5.8,0,0,1,.42-2.33,4.18,4.18,0,0,1,.85-1.26,3.65,3.65,0,0,1,1.19-.83,4.92,4.92,0,0,1,2-.36,4.31,4.31,0,0,1,3.24,1.26,4.82,4.82,0,0,1,1.2,3.5,4.9,4.9,0,0,1-1.21,3.46,4.8,4.8,0,0,1-6.47,0,4.75,4.75,0,0,1-1.21-3.43Zm2.11-.06a3.32,3.32,0,0,0,.66,2.21,2.15,2.15,0,0,0,1.68.73,2.1,2.1,0,0,0,1.66-.73,3.38,3.38,0,0,0,.66-2.23,3.32,3.32,0,0,0-.64-2.2,2.34,2.34,0,0,0-3.32,0h0a3.22,3.22,0,0,0-.69,2.24Zm13.43-1.07h3.26V45.59h2.1v9.2h-2.1V50.9h-3.26v3.89h-2.06v-9.2h2.06Zm9-1.73v1.71h4.47v1.76h-4.51V53h5v1.78h-7v-9.2h6.85v1.77Zm11.65,3.4a3.59,3.59,0,0,1,.7.59,9.19,9.19,0,0,1,1,1.46l1.21,1.94h-2.45l-1.34-2-.58-.84a3.87,3.87,0,0,0-.35-.45,1.1,1.1,0,0,0-.49-.33,2.51,2.51,0,0,0-.86-.1h-.23v3.74h-2.06v-9.2h3.91a6.59,6.59,0,0,1,2.12.25,2.26,2.26,0,0,1,1.1.9,2.75,2.75,0,0,1,.4,1.48,2.53,2.53,0,0,1-.62,1.74,2.73,2.73,0,0,1-1.5.8Zm-3.39-1.39h1.19a7.59,7.59,0,0,0,1.58-.1.82.82,0,0,0,.43-.32,1,1,0,0,0,.16-.6.87.87,0,0,0-.79-.94h0a1.48,1.48,0,0,0-.42,0h-2.14v2Zm9-2V49.1h4.46v1.76h-4.46V53h5v1.77h-7v-9.2h6.85v1.77Zm6.18-1.8h3.42a6.21,6.21,0,0,1,1.72.18,3,3,0,0,1,1.4.85,3.88,3.88,0,0,1,.88,1.49,6.5,6.5,0,0,1,.3,2.15,6.06,6.06,0,0,1-.28,1.93,4.08,4.08,0,0,1-1,1.62,3.28,3.28,0,0,1-1.31.74,6,6,0,0,1-1.63.2h-3.51V45.59Zm2.06,1.77V53h1.21a5.55,5.55,0,0,0,1-.08,1.64,1.64,0,0,0,.67-.34,2,2,0,0,0,.44-.8,5.77,5.77,0,0,0,.17-1.6,5.32,5.32,0,0,0-.17-1.54,1.87,1.87,0,0,0-.48-.8,1.53,1.53,0,0,0-.77-.39,7.73,7.73,0,0,0-1.44-.08Zm6.86,7.43v-9.2h2v9.2Zm8.83-2h-3.37l-.74,2h-2.18l3.57-9.2h2.08l3.66,9.16h-2.23l-.78-2Zm-.67-1.76-1-2.79-1,2.79Z"/></g></g><text class="cls-3" transform="translate(785.46 97.42)">© <tspan class="cls-4" x="10.67" y="0">C</tspan><tspan x="17.5" y="0">o</tspan><tspan class="cls-5" x="24.08" y="0">p</tspan><tspan class="cls-6" x="30.83" y="0">y</tspan><tspan class="cls-7" x="36.48" y="0">r</tspan><tspan class="cls-8" x="40.45" y="0">ig</tspan><tspan class="cls-9" x="49.97" y="0">h</tspan><tspan x="56.58" y="0">t</tspan><tspan class="cls-10" x="60.55" y="0"> </tspan><tspan class="cls-5" x="62.6" y="0">T</tspan><tspan x="68.48" y="0">hani Nampi. </tspan><tspan class="cls-11" x="131.29" y="0">A</tspan><tspan class="cls-6" x="138.6" y="0">ll </tspan><tspan class="cls-12" x="146.81" y="0">R</tspan><tspan x="153.38" y="0">ig</tspan><tspan class="cls-9" x="162.9" y="0">h</tspan><tspan x="169.51" y="0">ts </tspan><tspan class="cls-7" x="180.78" y="0">R</tspan><tspan x="187.28" y="0">ese</tspan><tspan class="cls-13" x="204.06" y="0">r</tspan><tspan class="cls-14" x="208.28" y="0">v</tspan><tspan x="213.93" y="0">e</tspan><tspan class="cls-15" x="219.94" y="0">d</tspan><tspan x="226.59" y="0">.</tspan></text></svg>