<svg id="Layer_1" data-name="Layer 1" xmlns="http://www.w3.org/2000/svg" viewBox="0 0 1500 100"><defs><style>.cls-1,.cls-2{fill:#010101;}.cls-2{fill-rule:evenodd;}</style></defs><g id="Capa_2" data-name="Capa 2"><g id="Contacto"><path class="cls-1" d="M541.69,17c-.46,0-.84,14.76-.84,33s.38,33,.84,33,.84-14.78.84-33-.37-33-.84-33"/><path class="cls-1" d="M575,41.78q0-3.16-1.88-4.34c-1.25-.79-3.49-1.17-6.72-1.17H563.6V47h2.89a24.47,24.47,0,0,0,5.12-.42A4.21,4.21,0,0,0,574.22,45a5.58,5.58,0,0,0,.8-3.24m13.65-.06a14.23,14.23,0,0,1-.84,4.83,12.91,12.91,0,0,1-2.74,4.38A13.62,13.62,0,0,1,580,54.24a20.45,20.45,0,0,1-7.58,1.27H563.6V72.18H550.19V27.73h22.2A20.64,20.64,0,0,1,580,29a14,14,0,0,1,5.12,3.34,13.2,13.2,0,0,1,2.74,4.45,14.69,14.69,0,0,1,.84,4.91"/><path class="cls-1" d="M638.94,52.27A20.62,20.62,0,0,1,636.81,62a17.08,17.08,0,0,1-5.65,6.37,24.39,24.39,0,0,1-7.57,3.36,32.44,32.44,0,0,1-8.09,1,31.85,31.85,0,0,1-11-1.92,19.51,19.51,0,0,1-8.94-6.54q-3.58-4.61-3.59-12V27.73h13.37V48.81a18,18,0,0,0,1.27,7.26,8.78,8.78,0,0,0,3.53,4.2,11.21,11.21,0,0,0,10.57,0,8.71,8.71,0,0,0,3.54-4.18,18,18,0,0,0,1.27-7.24V27.73h13.4Z"/><path class="cls-1" d="M685,68.85a32.23,32.23,0,0,1-5.65,2.31,36.07,36.07,0,0,1-5.82,1.23,47.32,47.32,0,0,1-6.07.36,31.49,31.49,0,0,1-10.41-1.59,22.48,22.48,0,0,1-8-4.74,20,20,0,0,1-5.07-7.3,24.32,24.32,0,0,1-1.68-9.2,23.81,23.81,0,0,1,2-10.05,19.42,19.42,0,0,1,5.57-7.16A23.91,23.91,0,0,1,658,28.49a33.75,33.75,0,0,1,9.63-1.36A52.39,52.39,0,0,1,684.8,30.5V42.3a47,47,0,0,0-6.52-3.42,19.46,19.46,0,0,0-7.58-1.36,17.32,17.32,0,0,0-7.26,1.54A13.38,13.38,0,0,0,658,43.45a11.66,11.66,0,0,0-.26,12.84,12.79,12.79,0,0,0,5,4.47A15.48,15.48,0,0,0,670,62.4a23.48,23.48,0,0,0,6.13-.78,27,27,0,0,0,4.85-1.76A42.46,42.46,0,0,0,685,57.59Z"/><path class="cls-1" d="M713.8,41.78q0-3.16-1.88-4.34c-1.25-.79-3.49-1.17-6.72-1.17h-2.82V47h2.88a24.61,24.61,0,0,0,5.14-.42A4.21,4.21,0,0,0,713,45a5.51,5.51,0,0,0,.81-3.24m13.66-.06a14.2,14.2,0,0,1-.85,4.83,12.78,12.78,0,0,1-2.75,4.38,13.47,13.47,0,0,1-5.12,3.31,20.38,20.38,0,0,1-7.58,1.27h-8.78V72.18H689V27.73h22.19A20.47,20.47,0,0,1,718.75,29a13.58,13.58,0,0,1,5.11,3.34,12.83,12.83,0,0,1,2.75,4.45,14.7,14.7,0,0,1,.85,4.91"/><path class="cls-1" d="M522.21,36.14c.69,1.38,1.8,2,3.64,1.1l4.52-2.1-.14-1.26L525.3,36.2a1.34,1.34,0,0,1-2-.57c-.36-.71-.13-1.33.77-1.81l4.82-2.54-.92-.87-4.44,2.34c-1.66.91-2,2-1.35,3.39m-57.33-1.41c.73-1.35.53-2.44-1.23-3.46l-4.31-2.48-.95.82,4.72,2.72c.9.53,1.1,1.06.71,1.78s-.94.78-1.85.33L457.12,32l-.18,1.25,4.46,2.28c1.7.85,2.73.62,3.48-.75m60.69,13.83,1.26-.1L526.61,46l2.1-.18.14,1.77,1.26-.09L530,45.68l2.11-.19.22,2.52,1.22-.11-.3-3.68-8,.65ZM501.46,17.48,499,17l.41-2.06,1.75.35.25-1.23-1.75-.37.41-2.08,2.48.49.24-1.2-3.63-.74L497.57,18l3.63.74Zm-11.1.26-.2-1.24-2.47.42-.36-2.07,1.76-.29-.2-1.24-1.77.28-.37-2.09,2.49-.43L489,9.87l-3.65.61,1.32,7.87ZM461,49.36l-1.25.08.16,2.5-2.09.14-.12-1.78-1.25.08.1,1.79-2.12.14-.17-2.52-1.23.08.24,3.69,8-.5Zm51.82,35.23-3.33-5.86,1-.56L513.74,84Zm-2.52,1.27-2.93-6.08,1-.47,2.92,6.08Zm-4.53,1.76L501.1,82l1-.33,2.67,3.15.33-4.1,1.06-.33Zm-5.8,1.43-1.87-2.26-1.24,2.63-1.09.14,1.67-3.62-2.48-3.08,1.1-.15L497.89,85l1.24-2.68,1.1-.11-1.68,3.59L501,88.94Zm-6.68.59-.88-4.25-1.79,2-1.46-2.24-1.5,4.07-1.09-.11,2.26-6.59,1.94,3.07,2.41-2.71,1.2,6.85Zm-9.75-1.43c-1.13-.29-1.72-2-1.25-3.81s1.83-3,3-2.71a2.26,2.26,0,0,1,1.35,2.12l-1.1-.33c-.1-.36-.29-.65-.54-.69-.59-.15-1.31.69-1.64,1.9s-.12,2.31.47,2.46a.84.84,0,0,0,.8-.36l1.13.32a2.18,2.18,0,0,1-2.22,1.1m-3.18-.77-1-.48.69-4.25-2.37,1.22-.58-2.61-2.86,3.27-1-.48,4.42-5.38.77,3.55,3.17-1.69ZM493.38,82a32,32,0,0,1-31.23-25.44h-8.79a40.61,40.61,0,0,0,80.07,0h-8.82A32,32,0,0,1,493.38,82m39-31.1-6.7-.31-.05,1.23,6.7.31L532.27,54l1.27.06.19-4.92-1.26-.06Zm-4.61-13.26c-2.33.47-3.75,2.26-3.36,4.2a3.27,3.27,0,0,0,1.18,1.91l.89-.68a2.68,2.68,0,0,1-.84-1.53c-.24-1.21,1-2.35,2.46-2.66s2.95.27,3.2,1.54a2.4,2.4,0,0,1-.35,1.71l1.11.32a3,3,0,0,0,.48-2.32c-.39-1.94-2.36-3-4.77-2.49m-7-4.47,1-.73-1.49-2.13,5.51-3.84-.71-1-6.55,4.57Zm-3.87-8.11a1.05,1.05,0,0,1-1.47.2.27.27,0,0,1-.08-.07,2.18,2.18,0,0,1-.5-1.19l-1.12.52a3.18,3.18,0,0,0,.92,1.67,2.26,2.26,0,0,0,3.17-.21l.08-.1c1.71-1.89-.68-3.4.38-4.56a1,1,0,0,1,1.45-.13l.07.07a2.26,2.26,0,0,1,.57,1.23l1.1-.44a3.4,3.4,0,0,0-.93-1.75,2.19,2.19,0,0,0-3.08.09l-.11.13c-1.84,2,.62,3.35-.45,4.54m-4.21-.71,4.75-6.44-1-.72-4.74,6.44Zm-1.32-8.88.61.34a1.06,1.06,0,0,1,.49,1.44l-.06.12A1.08,1.08,0,0,1,511,18l-.16-.07-.66-.37Zm-3.33,5.93,1.56-2.8.33.18a.5.5,0,0,1,.25.46l.11,3.6,1.34-.16-.21-3.53a2.11,2.11,0,0,0,2.12-1.2,2.08,2.08,0,0,0-.48-2.91,1.58,1.58,0,0,0-.36-.2l-1.84-1-3.92,7Zm-3-5.06c.85.3,1.12.84.85,1.6a1,1,0,0,1-1.3.72l-.22-.08-.78-.28.81-2.19Zm.52-3.43.73.26a1,1,0,0,1,.79,1.22.81.81,0,0,1-.07.22,1.11,1.11,0,0,1-1.39.74l-.15-.06-.68-.25Zm-1.25,6.85A2,2,0,0,0,507,18.69a2.41,2.41,0,0,0,.08-.25,1.72,1.72,0,0,0-.57-2.2v0c.64.13,1.36-.35,1.72-1.37a2,2,0,0,0-1-2.56l-.22-.08-2.12-.76L502.06,19Zm-12-7.9,0,0L495.26,18l1.23-.39.21-7.75-1.22,0,0,6h0l-3-6.19-1.15.4-.19,7.75,1.22,0ZM481.19,13l1.92,6.46,1.17-.36-1.92-6.46,1.75-.53-.36-1.22-4.69,1.44.36,1.22ZM475,23.43l-3.17-5v0l5.76,3.6.83-1-4-6.63-1,.65,3.19,5h0l-5.84-3.59-.75,1,4,6.62Zm-1.92,1.46L468,18.7l-.94.78,5.05,6.2Zm-7.12,6.8,1.21-.39-1.33-3.24,3.38.68.15-1.3-4-.66L464,23.13l-1.23.37,1.32,3.1L460.79,26l-.13,1.34,3.81.6Zm-2.42,5.69-1.2-.41-.84,2.46-6.33-2.24-.4,1.16L462.28,41Zm-9,9.11,6.68.72.12-1.22-6.67-.73.19-1.82-1.27-.14-.49,4.9,1.26.14ZM478.37,73.1a15.4,15.4,0,0,0-2.68,1.06l-.35.15A27.77,27.77,0,0,0,493,80.07c1.06,0,2.1-.11,3.13-.22A29.57,29.57,0,0,0,508,76.11a2.59,2.59,0,0,1-1.31-1,2.35,2.35,0,0,1-.19-2.08,3.87,3.87,0,0,0-.76.11,15.46,15.46,0,0,0-2.84,1.14,18.47,18.47,0,0,1-7.51,2.08A2.75,2.75,0,0,1,493,75.17a2.35,2.35,0,0,1-.4-1.31,2.53,2.53,0,0,1,.17-.86,2.84,2.84,0,0,0-.76.1,15.78,15.78,0,0,0-2.87,1.15,18.48,18.48,0,0,1-7.47,2.07,2.7,2.7,0,0,1-2.28-1.13,2.42,2.42,0,0,1-.27-2.2,4,4,0,0,0-.76.11m38-17.35s0-.06,0-.09a.88.88,0,0,0-.18-.52,3,3,0,0,0-2.75-.55,8.88,8.88,0,0,0-1.13.28L510,51.81,512,55a10.89,10.89,0,0,0-1.33.54l-2.77-3.7,2.44,3.86-.55.27-.82.4-3.35-4.49,3,4.67a16,16,0,0,1-1.5.58l-3.93-5.23,3.38,5.39a11.59,11.59,0,0,1-1.25.29L501,51.81l3.61,5.86c-.48.08-1,.14-1.55.19a2,2,0,0,1-1-.35l-.07,0a.38.38,0,0,1-.13-.25.37.37,0,0,1,0-.11.77.77,0,0,1,.14-.44l.41-.29h0a1.27,1.27,0,0,0,.26-.72.72.72,0,0,0-.13-.45,3,3,0,0,0-2.82-.61,12.87,12.87,0,0,0-3.15,1c-1-2.28-1.34-5-1.21-9.05a17.62,17.62,0,0,0,12.91,3.87c.31,0,.61-.1.91-.15h0a12,12,0,0,0,6.6-3.15,15.17,15.17,0,0,0,1.8-1.87l.16-.2c.11-.14.23-.27.33-.41.16.11,1.53,1.15,1.53,1.15l1.69,1.28a20.06,20.06,0,0,1-4.9,8.67m-20.55.2c-1.68-4.52-2.39-6.5-2-11l1.28,1.34c-.15,4.19.21,7,1.22,9.35l-.51.25m-.22.11c-.18-.24-.34-.48-.5-.72l-.1-.17-.29-.46c-.08-.14-.17-.28-.24-.41a.75.75,0,0,1-.07-.12,18,18,0,0,1-2-5.87c-.05-.38-.08-.71-.11-1h0c0-.37,0-.69,0-1s0-.66,0-.77a7,7,0,0,0,.73-.35,5.5,5.5,0,0,1,.6-.28c-.42,4.55.29,6.53,2,11.12h0m-.77.33A31.91,31.91,0,0,1,491,49.79s-.24-.52-.29-.61A8.42,8.42,0,0,1,492,47.39c0,.16.05.33.07.51a17.33,17.33,0,0,0,3.26,8.24l-.56.24m-2.65-22h10.33a21,21,0,0,0-1.4,6.6c0,.15,0,.29,0,.44a15,15,0,0,0,2.45,6.73l0,.07c.59,1.17,1.07,2,1.07,2l0,0a18,18,0,0,1-9.28-3.84.08.08,0,0,1,0,0s-.49-.5-.91-.95l-.65-.68,0,0-.08,0a6.4,6.4,0,0,0-.84.39l-.71.33-.07,0v.09a12.05,12.05,0,0,0,0,1.59l-.07.07-.23.24a17.28,17.28,0,0,1-1.61-6.77,10.43,10.43,0,0,1,2-6.26m6.69-2.74H510.7a14.43,14.43,0,0,0-3.58,8.07v.45A13,13,0,0,0,510,48.35c-2.2-1.42-4.32-1-6.33-.42a14.68,14.68,0,0,1-2.36-6.55c0-.15,0-.28,0-.43a15.48,15.48,0,0,1,.45-3.46c.25-1,.57-2,1-3.21l-.11-.15h-5.79a9.32,9.32,0,0,1,2-2.52m3.66-3a2.27,2.27,0,0,0,.11,2.19,12.21,12.21,0,0,0-3.66-1.6c1.39-.33,3.55-.59,3.55-.59m.46-.28h.33v0l.38,2.94H503l-.05-2.86a.17.17,0,0,1,0-.12m8.16,21.18a16.16,16.16,0,0,1-1.69.45c.22-.23.57-.62,1-1.08.13.1.27.21.4.33l.31.3m6.56-4.83a16,16,0,0,1-2.52,2.61l0,0-.39.3a12.75,12.75,0,0,1-3.36,1.78l-.39-.36-.36-.38a35,35,0,0,0,2.7-3.37,17,17,0,0,0,4.37-.62m-33.87-9.12-4.3.35s1.24,1.34,1.82,2c.26.28,0,.65-.34.38l-.12-.13-1.77-1.82s-.36,12.52-.47,14c0,.44-.36.48-.44,0l-.39-14c-.58.59-1.23,1.42-1.87,2-.3.26-.58-.07-.33-.43l1.68-2L473,35.59c-.62,0-.69-.58,0-.69l4.32-.39s-1.25-1.3-1.83-2c-.32-.34-.1-.61.19-.43l2.09,1.93v-.11c.07-1.42.18-2.85.3-4.28,0-.59.58-.7.68,0l.33,4.43s1.4-1.36,2.09-2c.35-.3.61,0,.25.41l-1.93,2s2.88.28,4.3.39c.63,0,.7.58,0,.69m39.46,14.15A30.1,30.1,0,0,0,493.3,19.5,30.51,30.51,0,0,0,463.07,50a29.94,29.94,0,0,0,1,7.71,16.14,16.14,0,0,0,4.47-1.6,12.7,12.7,0,0,1,3.61-1.35,2.81,2.81,0,0,1,2.72.58.63.63,0,0,1,.12.4,1.24,1.24,0,0,1-.25.69l-.39.28a.78.78,0,0,0-.16.49.49.49,0,0,0,0,.12.4.4,0,0,0,.17.3l.06,0a2.18,2.18,0,0,0,1.11.36A16.21,16.21,0,0,0,482.31,56a12.85,12.85,0,0,1,3.61-1.33,2.87,2.87,0,0,1,2.75.58.77.77,0,0,1,.11.39,1.19,1.19,0,0,1-.27.7l-.36.29a.71.71,0,0,0-.19.48s0,.07,0,.1a.44.44,0,0,0,.21.32l.06,0a2,2,0,0,0,1,.36,16.36,16.36,0,0,0,5.46-1.32l.77-.32h0l.08,0h0a14.41,14.41,0,0,1,4.12-1.48,2.78,2.78,0,0,1,2.59.51.67.67,0,0,1,.1.33,1,1,0,0,1-.22.58l-.37.27,0,0a1,1,0,0,0-.2.59s0,.1,0,.15a.56.56,0,0,0,.25.41l.07,0a2.26,2.26,0,0,0,1.15.39,16.54,16.54,0,0,0,6.83-2,12.72,12.72,0,0,1,3.59-1.33,2.83,2.83,0,0,1,2.53.47.71.71,0,0,1,0,.79h0a1.49,1.49,0,0,1-.18.3l-.35.29a.69.69,0,0,0-.18.58.42.42,0,0,0,.19.32l.08,0a2,2,0,0,0,1,.35,16.8,16.8,0,0,0,5.9-1.55,30.06,30.06,0,0,0,.74-6.68M509,74.79c.41,0,.83-.08,1.25-.14a30.34,30.34,0,0,0,6.84-6.59,2.55,2.55,0,0,1-1.53-1.12,2.41,2.41,0,0,1-.35-1.25,2.54,2.54,0,0,1,.15-.83l-.53.06-.2,0a16.64,16.64,0,0,0-2.88,1.15,18.74,18.74,0,0,1-7.49,2.08A2.78,2.78,0,0,1,501.94,67a2.29,2.29,0,0,1-.4-1.29,2.48,2.48,0,0,1,.17-.86l-.5,0L501,65a14.92,14.92,0,0,0-2.88,1.15,18.36,18.36,0,0,1-7.43,2.07A2.74,2.74,0,0,1,488.33,67a2.42,2.42,0,0,1-.27-2.18l-.52.06-.2,0a15.74,15.74,0,0,0-2.87,1.14,18.93,18.93,0,0,1-7.55,2.08A2.83,2.83,0,0,1,474.53,67a2.25,2.25,0,0,1-.39-1.28,2.27,2.27,0,0,1,.17-.86l-.59.06-.18,0a16.1,16.1,0,0,0-2.9,1.16,21.85,21.85,0,0,1-2.16,1c.22.33.46.66.7,1a31,31,0,0,0,4.85,5.2l.77-.38a12.52,12.52,0,0,1,3.55-1.3,2.81,2.81,0,0,1,2.74.54.67.67,0,0,1,.12.39,1.22,1.22,0,0,1-.27.7l-.35.28a.78.78,0,0,0-.19.5.37.37,0,0,0,0,.11.44.44,0,0,0,.2.31l.07,0a2.07,2.07,0,0,0,1,.35,16,16,0,0,0,6.71-1.9A12.58,12.58,0,0,1,492,71.57a2.8,2.8,0,0,1,2.72.54.74.74,0,0,1,.13.41,1.17,1.17,0,0,1-.26.68l-.39.28a.9.9,0,0,0-.16.5.49.49,0,0,0,0,.12.45.45,0,0,0,.18.3l.06,0a2.38,2.38,0,0,0,1.07.35,16.08,16.08,0,0,0,6.74-1.9,12.4,12.4,0,0,1,3.59-1.32,2.82,2.82,0,0,1,2.74.54c.14.21.23.57-.15,1.09l-.36.28a.84.84,0,0,0-.18.61.44.44,0,0,0,.2.31l.07,0a2,2,0,0,0,1,.35m9.1-8.16a30,30,0,0,0,3.9-8.35,37.09,37.09,0,0,1-5.43,1.22,2.8,2.8,0,0,1-2.33-1.2,2.42,2.42,0,0,1-.4-1.3,2.29,2.29,0,0,1,.15-.82l-.75.06a17.59,17.59,0,0,0-2.81,1.14,19.14,19.14,0,0,1-7.54,2.12,2.82,2.82,0,0,1-2.37-1.22,2.3,2.3,0,0,1-.38-1.26,2.17,2.17,0,0,1,.17-.84,5,5,0,0,0-.77.06,17.06,17.06,0,0,0-2.84,1.15,18.9,18.9,0,0,1-7.5,2.11A2.76,2.76,0,0,1,487,58.31a2.31,2.31,0,0,1-.25-2.13l-.77.06a16,16,0,0,0-2.79,1.14,19.33,19.33,0,0,1-7.59,2.12,2.87,2.87,0,0,1-2.41-1.22,2.38,2.38,0,0,1-.39-1.29,2.1,2.1,0,0,1,.16-.82,5.82,5.82,0,0,0-.73.07,16.07,16.07,0,0,0-2.85,1.16,18,18,0,0,1-4.82,1.72,29.72,29.72,0,0,0,3.11,6.66,19.48,19.48,0,0,0,2.29-1,12.32,12.32,0,0,1,3.62-1.33,2.86,2.86,0,0,1,2.72.55,1,1,0,0,1-.13,1.11l-.39.28a.67.67,0,0,0-.16.47v.09a.54.54,0,0,0,.18.36l0,0a2.29,2.29,0,0,0,1.14.33,16.2,16.2,0,0,0,6.8-1.9,13.17,13.17,0,0,1,3.6-1.31A2.86,2.86,0,0,1,490,64c.14.21.23.57-.14,1.11a1.78,1.78,0,0,0-.38.28.8.8,0,0,0-.16.56.52.52,0,0,0,.19.36l0,0a2.09,2.09,0,0,0,1.05.33,15.85,15.85,0,0,0,6.7-1.89,12.88,12.88,0,0,1,3.6-1.32,2.87,2.87,0,0,1,2.73.55,1,1,0,0,1-.14,1.11,2.48,2.48,0,0,0-.36.28.73.73,0,0,0-.18.54.5.5,0,0,0,.17.38l0,0a2.35,2.35,0,0,0,1.1.33A16.11,16.11,0,0,0,511,64.75a13.12,13.12,0,0,1,3.62-1.32,2.86,2.86,0,0,1,2.72.55.92.92,0,0,1-.14,1.11,2.47,2.47,0,0,0-.38.28.79.79,0,0,0-.16.55.55.55,0,0,0,.18.37l0,0a2.19,2.19,0,0,0,1.06.32Z"/></g></g><g id="Capa_2-2" data-name="Capa 2"><g id="Contacto-2" data-name="Contacto"><path class="cls-2" d="M803.26,58.62a2.71,2.71,0,0,0,1.4-1.31,1.58,1.58,0,0,0,.17-.74c0-.65-.67-1-1.38-1.29Z"/><path class="cls-2" d="M798.54,63.84a1.94,1.94,0,0,0,.82,1.76,4.64,4.64,0,0,0,1.36.87l-.11-4.31C799.66,62.5,798.73,63,798.54,63.84Z"/><path class="cls-2" d="M798.23,47.92c-1.41,1.85.44,2.86,2.13,3.45l-.11-4.65A3.36,3.36,0,0,0,798.23,47.92Z"/><path class="cls-2" d="M783.62,21.66c0,9.35.09,18.69.07,28,0,12.36,5.28,20.56,15.2,27.44,1,.69,2,1.34,3,2,11-5.93,18.3-14,18.93-27l0-30.41A114.25,114.25,0,0,0,783.62,21.66Zm27.92,27c.29.4,1.38.47,3.29.21a3.91,3.91,0,0,1-4.89-.42,6.45,6.45,0,0,0-2.71-1.24,2.61,2.61,0,0,0,.49,1.22l.21.39.25.05.54-.46.28.26-.89.92-.25,0c-.69-.73-1.38-1.46-2.08-2.18l-1-.94c-.27,0-.51-.13-.78-.13l-.15,2.11-.19,3.68,0-.09,0,.31,1.83.54a3.91,3.91,0,0,1,2.37,4.85c-.6,2-2.21,2.6-4,3.32l-.74.29-.35,5.94,1,.38c1.76.73,2.06,2,1.51,3.7a2.56,2.56,0,0,1-.87,1.5l-.64.52-.63-.81a5.67,5.67,0,0,0,1-.92,2,2,0,0,0-1.21-2.51l-.12,0-.14,0-.55,9.51-1.1-.24-.23-9.66c-1.53-.25-2.29-.16-3.6-1.39a4,4,0,0,1-.67-5.54c.06-.07.11-.14.17-.2a8.41,8.41,0,0,1,3.88-2.06l-.12-5.09-.55-.15c-1.79-.51-3.78-.7-4.73-2.52a4.92,4.92,0,0,1,.08-4.48c.95-1.82,3.07-2.75,4.95-3.31l0-1.86-3.46-.75-.17-1.79-4.1-.87-.06-.75,10.11-.06-6,0,0,0a4.3,4.3,0,0,1-2.84-5.38,3.7,3.7,0,0,1,.2-.52c.49-1.33.16-1.32-.59-2.16a2.11,2.11,0,0,1,.71,0,2.32,2.32,0,0,1,1.43,1.56c.25.9,0,1.46.43,2.14a4.84,4.84,0,0,0,1.26,1.21,6.07,6.07,0,0,1-1-2.66,5.14,5.14,0,0,1,.4-2.68,3.63,3.63,0,0,0,.61-2.26,3.49,3.49,0,0,0-.81-1.27,5.82,5.82,0,0,1,2.28.84,2.62,2.62,0,0,1,.93,2,22.87,22.87,0,0,0-.26,4.13c.17.78.75,1.78,1.31,1.87-.16-.78-.7-1.07-.44-2.11s.83-2,.92-2.44a2.34,2.34,0,0,0-.29-1.79c-.46-.9-1.1-2-.41-3.24a6.76,6.76,0,0,1,1.94-2.08,2.9,2.9,0,0,0-.46,2.08,3.58,3.58,0,0,0,1.09,2,3.43,3.43,0,0,1,1,1.64,4.13,4.13,0,0,1-.06,2.31,5.13,5.13,0,0,0-.46,1.42,5.44,5.44,0,0,0,.11,1.33,10.34,10.34,0,0,1,1.13-2.43c.63-.87.83-1.18.46-1.93a3.6,3.6,0,0,1-.72-2.37,2.56,2.56,0,0,1,.86-1.73,3.05,3.05,0,0,0,.49-.38,2.73,2.73,0,0,0-.2,1.41A3.55,3.55,0,0,0,806.59,28c.75.64,1.24,1.1,1.15,1.56a18.35,18.35,0,0,0-.69,3,5.84,5.84,0,0,0,.17,1.82,4.37,4.37,0,0,1,.72-1.79,20.92,20.92,0,0,0,1.68-2,3.89,3.89,0,0,0,.12-1.73c-.06-.64-.09-.81-.09-.81a4.22,4.22,0,0,1,1.44,1.44,3.47,3.47,0,0,1-.11,2.63c-.38.64-1.16,2.08-1.16,2.08l-.11.2a5.29,5.29,0,0,0,1.67-1.18,8.24,8.24,0,0,0,1.24-1.91c.12-.4.29,1.82.15,2.25a7.87,7.87,0,0,1-1.53,2.92,16,16,0,0,1-1.87,1.3l2.66,0-.11,1-4.16.69-.06,1.73-3.46.64-.1,1.74a1.46,1.46,0,0,0,.51,0,7.56,7.56,0,0,1,2.07-.1s1.07.8,1.21.86,1.22.66,1.4.69,1.23.45,1.23.45c-.25.51-.49,1-.73,1.54h-.36l0-.84c0-.15.08-.29.13-.43l-1,0c-.79.26-1.26.65-1.32,1.22l.17-.33c1.08,0,2.72,1.06,3.78,1.26,2.64.51,3.83-.61,4.09-1.15.09,1.46-1.59,1.82-3.74,1.9Z"/><path class="cls-2" d="M806.51,44.09A4.85,4.85,0,0,0,806,44v.14a2.85,2.85,0,0,0,.55.35.76.76,0,0,0,.3,0l0-.1A1.81,1.81,0,0,0,806.51,44.09Z"/><path class="cls-1" d="M792.68,78.55l-.29.33-.42.5.11.09a.59.59,0,0,0,.59.16.74.74,0,0,0,.28-.21.45.45,0,0,0,0-.63l-.12-.09Z"/><path class="cls-1" d="M791.65,79.76l-.74.89a2.11,2.11,0,0,0-.19.23l.15.15a.66.66,0,0,0,.52.17.83.83,0,0,0,.49-.33.63.63,0,0,0,0-.9.48.48,0,0,0-.16-.12Z"/><path class="cls-1" d="M777.86,49.77v.09a.68.68,0,0,0,.07.37.52.52,0,0,0,.23.21.8.8,0,0,0,.4.11.53.53,0,0,0,.52-.29,1.21,1.21,0,0,0,.07-.43s0-.11,0-.16c-.27,0-.55,0-.82,0h-.59l.13,0Z"/><path class="cls-1" d="M777.88,40.38a.57.57,0,0,0,0,.18.44.44,0,0,0,.15.36.75.75,0,0,0,.48.14c.41,0,.65-.15.65-.57a1,1,0,0,0,0-.24c-.2,0-.63,0-.79,0h-.51l.09.08Z"/><path class="cls-1" d="M826.24,55.55a.46.46,0,0,0-.09-.38.72.72,0,0,0-.45-.22c-.4-.07-.67,0-.74.45a1.94,1.94,0,0,0,0,.24,6.47,6.47,0,0,0,.78.14l.5.09-.08-.09,0-.06A.49.49,0,0,0,826.24,55.55Z"/><path class="cls-1" d="M832.16,11.43a132.57,132.57,0,0,0-59.9,0q0,19.13.1,38.25c-.12,20.36,11,32.28,26.11,41.14,3,1.78,3.93,1.41,7-.22,14.79-7.67,24.83-19.33,26.64-37.89ZM825,33.17h0l.4,0h.49l.1.09v.25l-.08.1h0a2.56,2.56,0,0,0-.39,0s0,.06-.05.09a4.17,4.17,0,0,0,0,.5v.26h.65l1.54,0a4.63,4.63,0,0,0,.83,0h0a1.51,1.51,0,0,0,0-.3v0l.09-.09h.27l.09.09v.05c0,.27,0,.55,0,.83s0,.55,0,.83v0l-.09.09h-.27l-.09-.09v0a1.43,1.43,0,0,0,0-.29s0,0,0,0a5.79,5.79,0,0,0-.83,0l-1.54,0h-.65v.29a4.58,4.58,0,0,0,0,.53h0l.12,0,.29,0h0l.09.09v.26l-.09.09-.51,0-.39,0h0l-.11-.09v-.06a8.83,8.83,0,0,0,0-1.15l0-1.1a11.25,11.25,0,0,0,0-1.16v0Zm-49.23.56v0l.13-.07h0a4.11,4.11,0,0,0,.86.08h0l.09.08v.27l-.1.08h-.1a2.31,2.31,0,0,0-.37,0,.89.89,0,0,0-.24.3,1.19,1.19,0,0,0-.12.5.7.7,0,0,0,.32.65.73.73,0,0,0,.35.09.42.42,0,0,0,.41-.23,2.09,2.09,0,0,0,.11-.43,2.52,2.52,0,0,1,.3-1,1,1,0,0,1,.87-.39,1.22,1.22,0,0,1,1,.41,1.72,1.72,0,0,1,.38,1.17,2.38,2.38,0,0,1-.22,1.08l0,0-.13,0h0a4.77,4.77,0,0,0-.76-.07h0l-.09-.1V36l.09-.09h0l.39,0a.63.63,0,0,0,.16-.24,1,1,0,0,0,.08-.42.76.76,0,0,0-.16-.51.5.5,0,0,0-.4-.16.41.41,0,0,0-.37.18,2.29,2.29,0,0,0-.16.65l-.06.32a1.77,1.77,0,0,1-.08.31,1,1,0,0,1-.36.47,1.16,1.16,0,0,1-.63.16,1.4,1.4,0,0,1-.86-.27,1.5,1.5,0,0,1-.48-.63,2.16,2.16,0,0,1-.14-.83A2.64,2.64,0,0,1,775.72,33.73Zm-.15,5.19v-.05l.09-.09h.27l.09.09v0c0,.09,0,.19,0,.29l0,0a5.57,5.57,0,0,0,.82,0h1.44a5.62,5.62,0,0,0,.82,0l0,0c0-.1,0-.2,0-.3v0l.09-.08h.27l.08.09v.05c0,.27,0,.54,0,.81s0,.44,0,.66,0,.33,0,.49a1.16,1.16,0,0,1-.43,1.06,1.07,1.07,0,0,1-.53.13,1.16,1.16,0,0,1-.95-.42,1.44,1.44,0,0,1-.34-.93,1.34,1.34,0,0,1,0-.35l0-.06,0,0,.11,0h-.72a5.57,5.57,0,0,0-.82,0s0,0,0,0,0,.24,0,.35v0l-.09.09h-.26l-.09-.09v0c0-.29,0-.59,0-.88S775.59,39.19,775.57,38.92Zm0,5.38v0l.09-.08h.27l.09.09v0c0,.1,0,.2,0,.3s0,0,0,0a5.62,5.62,0,0,0,.82,0h1.44a5.76,5.76,0,0,0,.83,0s0,0,0,0a1.53,1.53,0,0,0,0-.3v0l.08-.09h.28l.09.09v.05c0,.27,0,.55,0,.83s0,.55,0,.83v0l-.09.1h-.28L779.2,46v0a1.53,1.53,0,0,0,0-.3h0a4.62,4.62,0,0,0-.83,0h-1.44a4.51,4.51,0,0,0-.82,0h0c0,.1,0,.2,0,.3v0l-.09.09h-.27l-.09-.09V46c0-.28,0-.56,0-.83S775.6,44.58,775.58,44.3Zm0,7.73v-.15c0-.15,0-.31,0-.46s0-.29,0-.44v-.09l.09,0a.66.66,0,0,0,.19-.09l1.12-.67.46-.3.14-.14,0,0h-.7a5.62,5.62,0,0,0-.82,0s0,0,0,0,0,.2,0,.3v0l-.08.08h-.27l-.1-.08v0c0-.28,0-.56,0-.83s0-.56,0-.83v0l.09-.09H776l.08.08v0c0,.1,0,.2,0,.3l0,0a5.57,5.57,0,0,0,.82,0h1.44a5.62,5.62,0,0,0,.82,0l0,0c0-.1,0-.2,0-.3v0l.08-.08h.28l.08.09v0c0,.27,0,.55,0,.83s0,.35,0,.53,0,.41,0,.62a2.29,2.29,0,0,1-.09.73.74.74,0,0,1-.45.45,1,1,0,0,1-.35.06,1.15,1.15,0,0,1-1.1-.78l-.36.22-.64.42a3.43,3.43,0,0,0-.62.46.17.17,0,0,0,0,.12v0l-.09.09h-.26Zm.79,3.82v0l-.08.1L776,56l-.11-.08v0c0-.27,0-.56-.07-.83s-.06-.55-.1-.82v0l.09-.1.26,0,.1.08v0a1.36,1.36,0,0,0,.06.29s0,0,0,0a5.66,5.66,0,0,0,.82-.06l1.43-.15a5.79,5.79,0,0,0,.82-.12h0a1.51,1.51,0,0,0,0-.3v0l.08-.1.27,0,.1.09v0c0,.28,0,.56.07.83s.06.55.1.82v0l-.08.1-.27,0-.09-.08v0c0-.09,0-.19,0-.29h0a4.63,4.63,0,0,0-.83,0l-1.43.15a5.45,5.45,0,0,0-.81.12s0,0,0,0,0,.2,0,.3Zm.91,4.74v0l-.06.11-.26.06-.11-.07v0c-.05-.27-.11-.54-.17-.81s-.13-.54-.21-.8V59l.07-.11.26-.06.11.07v0a1.52,1.52,0,0,0,.09.28s0,0,0,0a5.76,5.76,0,0,0,.81-.15l1.5-.35c.19,0,.44-.09.64-.15l-.07-.28a3.23,3.23,0,0,0-.14-.51h-.13l-.29,0h0l-.1-.06-.06-.25.06-.11.5-.12a2.65,2.65,0,0,0,.37-.12l0,0,.12.07v.06a8.7,8.7,0,0,0,.23,1.13l.25,1.07a8.77,8.77,0,0,0,.29,1.12v0l-.08.12h-.05a2.76,2.76,0,0,0-.4.06L780,61l-.11-.07,0-.25,0-.11H780a2.47,2.47,0,0,0,.36-.11s0-.06,0-.1a4.1,4.1,0,0,0-.1-.48l-.06-.26-.63.15-1.51.34a7.1,7.1,0,0,0-.79.22l0,0c0,.1,0,.2,0,.3Zm2,6a1.69,1.69,0,0,1-.94-1,2.46,2.46,0,0,1-.2-1.17,1,1,0,0,1,.4-.69,6.33,6.33,0,0,1,1.15-.54l.65-.26a6.36,6.36,0,0,0,.75-.34s0,0,0,0a1.61,1.61,0,0,0-.09-.29v0l.05-.12.25-.1.12.05v0c.09.26.19.52.3.77s.2.52.32.76l0,0-.05.12-.25.1-.11,0,0,0a2.1,2.1,0,0,0-.13-.26h0a5.16,5.16,0,0,0-.78.28l-.52.21a5.3,5.3,0,0,0-1.1.53.8.8,0,0,0-.06.9,1,1,0,0,0,.45.55.46.46,0,0,0,.23.06,1.13,1.13,0,0,0,.32-.05c.15,0,.28-.09.42-.14l.53-.22.89-.37a.91.91,0,0,0,.26-.13v0a1,1,0,0,0-.08-.29v0l0-.11.25-.1.12,0v0a4.7,4.7,0,0,0,.17.45c.09.22.18.45.28.66l0,0-.05.12-.25.1-.12-.05v0c0-.06-.1-.22-.18-.2A2.4,2.4,0,0,0,782,66c-.21.07-.42.16-.63.24l-.78.32a1.83,1.83,0,0,1-1.26.13Zm5.6,3.13h0a5.52,5.52,0,0,0-.69.34l0,0-.12,0-.13-.22,0-.12,0,0,.31-.22a.57.57,0,0,0,0-.29,1.16,1.16,0,0,0-.16-.4.67.67,0,0,0-.4-.34.48.48,0,0,0-.42.07.4.4,0,0,0-.23.34,2.4,2.4,0,0,0,.21.64l.12.3a2,2,0,0,1,.1.32,1,1,0,0,1-.06.58,1.15,1.15,0,0,1-.45.48,1.4,1.4,0,0,1-.87.21,1.42,1.42,0,0,1-.74-.27,2.23,2.23,0,0,1-.56-.63,2.72,2.72,0,0,1-.39-1.13v0l.07-.12,0,0a3.71,3.71,0,0,0,.77-.39l0,0,.13,0,.13.23,0,.12-.09,0a3.15,3.15,0,0,0-.29.22.71.71,0,0,0-.05.38,1.11,1.11,0,0,0,.17.49.67.67,0,0,0,1,.28.43.43,0,0,0,.22-.42,1.6,1.6,0,0,0-.14-.42,2.76,2.76,0,0,1-.27-1,1,1,0,0,1,.53-.79,1.24,1.24,0,0,1,1-.17,1.72,1.72,0,0,1,.94.8,2.4,2.4,0,0,1,.39,1v0Zm3.7,7.83a1.9,1.9,0,0,1-1.13.58,1.7,1.7,0,0,1-1.23-.6,2.36,2.36,0,0,1-.61-1,1,1,0,0,1,.13-.79,6.79,6.79,0,0,1,.87-.91l.51-.48a5.39,5.39,0,0,0,.59-.58v0a2.11,2.11,0,0,0-.19-.23l0,0v-.12l.2-.19h.13l0,0c.17.21.37.41.55.61s.38.41.58.6l0,0v.13l-.2.18h-.12l0,0a2.09,2.09,0,0,0-.22-.2s0,0,0,0a4.61,4.61,0,0,0-.63.54l-.41.38a5.8,5.8,0,0,0-.83.89.81.81,0,0,0,.27.87,1,1,0,0,0,.61.35.45.45,0,0,0,.23,0,1.05,1.05,0,0,0,.29-.17,3,3,0,0,0,.34-.28l.41-.38.71-.67a.91.91,0,0,0,.18-.21s0,0,0,0l-.18-.24,0,0v-.12l.2-.19h.13l0,0,.32.36.5.51,0,0v.13l-.2.19h-.13l0,0s-.16-.17-.24-.13a2.42,2.42,0,0,0-.31.25l-.5.45Zm4.11,3.88a1.25,1.25,0,0,1-1.28.42,1.8,1.8,0,0,1-.81-.42l-.21-.18-.49-.43-.41-.32,0,0v-.13l.09-.11.08,0h0l.22,0a2.29,2.29,0,0,0,.21-.23l.4-.46.88-1.06a4.56,4.56,0,0,0,.51-.65s0,0,0,0a2.08,2.08,0,0,0-.21-.21l0,0v-.12l.17-.21H792l0,0c.2.19.42.37.62.55l.53.42.32.25a1.31,1.31,0,0,1,.58,1,.87.87,0,0,1-.2.46,1.06,1.06,0,0,1-1.06.29.9.9,0,0,1,0,1.21Zm4.68.53h-.12l0,0a1.35,1.35,0,0,0-.26-.15h0a4.56,4.56,0,0,0-.51.65l-.85,1.16a5.1,5.1,0,0,0-.45.69s0,0,0,0l.23.2,0,0,0,.12-.16.22-.13,0,0,0-.67-.5c-.22-.16-.45-.33-.68-.48l0,0,0-.13.16-.22H794l0,0a2.2,2.2,0,0,0,.26.15h0a5.2,5.2,0,0,0,.51-.65l.85-1.16a6.36,6.36,0,0,0,.46-.69s0,0,0,0a2.09,2.09,0,0,0-.22-.2l0,0,0-.12.16-.23h.13l0,0c.21.17.44.34.66.5s.45.33.68.47l0,0,0,.12Zm4.45.06c-1.26-.77-2.47-1.56-3.63-2.36-10.34-7.17-16.63-16-16.61-30,0-10.22,0-20.44-.08-30.67A122.76,122.76,0,0,1,823,19c.15,11.09.5,22.18,0,33.25-.7,14.4-8.89,23.35-21,29.81Zm9,1.6L808,81.91a3,3,0,0,0-.5-.26,1,1,0,0,0-.23.13l0,0-.12,0-.16-.21,0-.14,0,0,.59-.41c.27-.19.53-.39.79-.59l0,0,.13,0,.16.22,0,.12,0,0a1.5,1.5,0,0,0-.23.2h0a3.07,3.07,0,0,0,.42.28l.29.19,1.34.83L810.14,81c0-.15-.08-.3-.13-.45a2.81,2.81,0,0,0-.18-.56h0a1.61,1.61,0,0,0-.28.17l0,0-.12,0-.17-.22,0-.13,0,0,.52-.36c.16-.11.31-.23.46-.35l0,0,.13,0,.16.22,0,.11,0,0a.67.67,0,0,0-.14.15.41.41,0,0,0,0,.11,3.12,3.12,0,0,0,.11.53l.11.49.23.93c.13.55.27,1.12.43,1.67l0,.07Zm5.17-4a2.34,2.34,0,0,1-1,.63,1.06,1.06,0,0,1-.8-.11,7.49,7.49,0,0,1-.92-.86l-.49-.51a5.44,5.44,0,0,0-.6-.57s0,0,0,0a2.11,2.11,0,0,0-.23.19l0,0h-.12l-.19-.19v-.13l0,0c.21-.18.41-.38.61-.57s.4-.38.58-.58l0,0H813l.19.2v.12l0,0-.2.22v0a5.32,5.32,0,0,0,.55.61l.39.41a5.38,5.38,0,0,0,.91.81.79.79,0,0,0,.86-.28,1.06,1.06,0,0,0,.34-.62.58.58,0,0,0,0-.23,1,1,0,0,0-.18-.28,3,3,0,0,0-.28-.34l-.4-.4c-.22-.24-.44-.47-.67-.7a1.24,1.24,0,0,0-.22-.18s0,0,0,0a1.55,1.55,0,0,0-.24.19l0,0h-.12l-.19-.2v-.13l0,0,.35-.32.51-.51,0,0h.13l.19.19v.13l0,0c-.05,0-.17.17-.12.24a2.42,2.42,0,0,0,.25.31l.46.49.59.6a1.88,1.88,0,0,1,.6,1.12,1.68,1.68,0,0,1-.58,1.24Zm3.45-3.8c-.14.17-.28.36-.41.55l0,0-.13,0-.11-.09,0-.08v0a1.64,1.64,0,0,0,0-.22,2.31,2.31,0,0,0-.24-.2l-.47-.39L817,74.64a4.54,4.54,0,0,0-.67-.48h0a1.42,1.42,0,0,0-.2.22l0,0h-.12l-.22-.17v-.13l0,0c.18-.2.35-.42.52-.63s.34-.45.5-.68l0,0,.13,0,.22.17V73l0,0a2.13,2.13,0,0,0-.16.25s0,0,0,0a6.31,6.31,0,0,0,.63.53l1.28,1,.47.35.16-.21a4.46,4.46,0,0,0,.54-.77.86.86,0,0,0-.07-.1l-.25-.28,0-.11.16-.2.13,0,0,0a5.25,5.25,0,0,0,.66.59l0,0,0,.12Zm3.76-5.23c-.16.23-.3.47-.44.71s-.29.47-.42.72l0,0-.12,0L822,72l0-.12v0c0-.09.1-.18.14-.27s0,0,0,0a6.36,6.36,0,0,0-.69-.46l-1.32-.79-.56-.34-.15.25a4.31,4.31,0,0,0-.26.47h0l.1.09.23.16,0,0,0,.12-.14.22-.12,0-.44-.26-.35-.17,0,0-.05-.14,0,0a9.94,9.94,0,0,0,.62-1l.56-1c.21-.32.4-.66.58-1l0,0,.14,0,0,0a2.35,2.35,0,0,0,.32.23l.43.26,0,.13-.13.21-.12,0,0,0-.34-.17a.09.09,0,0,0-.09,0,3,3,0,0,0-.27.42l-.13.22c.18.12.38.23.56.34l1.32.79a5.07,5.07,0,0,0,.72.4s0,0,0,0a2.2,2.2,0,0,0,.17-.25l0,0,.12,0,.23.14,0,.13Zm4.12-9.15a2.73,2.73,0,0,1-.57,1.06l0,0-.14,0,0,0a4,4,0,0,0-.82-.3h0l-.07-.11.07-.25.11-.06.1,0,.37.07a.76.76,0,0,0,.3-.23,1.11,1.11,0,0,0,.25-.45.7.7,0,0,0-.14-.72.92.92,0,0,0-.32-.18.44.44,0,0,0-.45.12,1.87,1.87,0,0,0-.22.39,2.69,2.69,0,0,1-.54.89,1,1,0,0,1-1,.15,1.24,1.24,0,0,1-.83-.65,1.74,1.74,0,0,1-.06-1.23,2.39,2.39,0,0,1,.49-1l0,0H824l0,0a4.44,4.44,0,0,0,.72.27h0l.06.11-.07.25-.11.06h0l-.38-.08a.55.55,0,0,0-.21.19.91.91,0,0,0-.19.38.69.69,0,0,0,0,.53.5.5,0,0,0,.33.27.43.43,0,0,0,.41-.08,3.08,3.08,0,0,0,.33-.59c0-.1.09-.19.13-.29a2.69,2.69,0,0,1,.16-.29,1,1,0,0,1,.47-.35,1.2,1.2,0,0,1,.65,0,1.44,1.44,0,0,1,.76.49,1.43,1.43,0,0,1,.3.73,2.36,2.36,0,0,1-.07.84Zm1.15-5.63c-.07.29-.12.58-.17.88s-.1.54-.13.82v0l-.1.08-.27,0-.07-.1v0c0-.1,0-.2,0-.3s0,0,0,0A5.3,5.3,0,0,0,827,57l-1.41-.25a5.76,5.76,0,0,0-.82-.11h0c0,.1-.06.19-.08.29v0l-.1.07-.26-.05-.07-.11v0c.06-.26.11-.53.15-.8s.08-.43.11-.65,0-.32.08-.49a1.15,1.15,0,0,1,.61-1,1,1,0,0,1,.54,0,1.17,1.17,0,0,1,.86.58,1.4,1.4,0,0,1,.17,1,1.46,1.46,0,0,1-.1.34l0,0h-.06l-.12,0,.72.13a7.5,7.5,0,0,0,.81.11h0c0-.11.06-.24.09-.35v0l.1-.07.26,0,.08.1Zm.36-3.47h-.26l-.09-.09v0l0-.3h0a4.61,4.61,0,0,0-.83,0l-1.43,0a5.69,5.69,0,0,0-.83.05l0,0c0,.1,0,.2,0,.3v0l-.08.09H825l-.08-.1v0c0-.27,0-.56,0-.83s0-.56,0-.83v0l.08-.1h.28l.08.08v0a1.53,1.53,0,0,0,0,.3h0a4.61,4.61,0,0,0,.83,0l1.44,0a5.64,5.64,0,0,0,.82-.05l0,0a2.64,2.64,0,0,0,0-.29v0l.08-.09h.27l.1.09v.05c0,.27,0,.56,0,.83s0,.56,0,.83v.05Zm0-4h-.28l-.08-.09v0a1.36,1.36,0,0,0,0-.29s0,0,0,0a5.75,5.75,0,0,0-.83,0l-1.44,0a5.63,5.63,0,0,0-.82,0l0,0c0,.1,0,.2,0,.3v0l-.08.08H825l-.08-.09v0c0-.27,0-.55,0-.83s0-.35,0-.53l0-.62a2.56,2.56,0,0,1,.08-.73.78.78,0,0,1,.44-.47,1.07,1.07,0,0,1,.35-.06,1.17,1.17,0,0,1,1.12.77l.35-.23.63-.43a4.81,4.81,0,0,0,.62-.47.5.5,0,0,0,0-.12v-.05l.08-.08h.26l.1.09v0a.41.41,0,0,1,0,.11v.46c0,.14,0,.29,0,.43v.1l-.09,0a.51.51,0,0,0-.18.09l-1.11.69-.46.31a.93.93,0,0,0-.14.14v0h.69a4.63,4.63,0,0,0,.83,0h0a1.51,1.51,0,0,0,0-.3v0l.09-.09h.26l.1.08v0c0,.28,0,.56,0,.83s0,.56,0,.83v0Zm0-5.86h-.27l-.08-.09v0s0-.23-.06-.26a2.22,2.22,0,0,0-.32-.14l-.81-.31L825.58,41l-.63-.23-.07,0v-.52l3.43-1.53a.23.23,0,0,0,.18-.32v-.05l.1-.08h.25l.09.08v.77l0,.93v0l-.1.08h-.25l-.09-.08,0-.28a.43.43,0,0,0,0-.05l-.21.07-.51.2c0,.24,0,.47,0,.7s0,.37,0,.55l.26.09a2.32,2.32,0,0,0,.45.13s0,0,0,0a2.44,2.44,0,0,0,0-.27v0l.08-.09h.26l.09.08v0c0,.21,0,.43,0,.65s0,.36,0,.54v0Z"/><path class="cls-1" d="M827.26,40.26l-1,.44,1,.39c0-.14,0-.28,0-.43S827.27,40.39,827.26,40.26Z"/><path class="cls-1" d="M826.66,46.83a.21.21,0,0,0,0-.08.77.77,0,0,0-.07-.37.66.66,0,0,0-.23-.21.86.86,0,0,0-.41-.1.54.54,0,0,0-.52.29,1.3,1.3,0,0,0,0,.44.86.86,0,0,0,0,.16,7.3,7.3,0,0,0,.81,0h.59l-.13-.05Z"/><path class="cls-2" d="M842.32,34.68h2.26v5.15a9.29,9.29,0,0,0,.06,1.49,1.23,1.23,0,0,0,.49.77,1.82,1.82,0,0,0,1.09.3,1.77,1.77,0,0,0,1-.28,1,1,0,0,0,.4-.66,8.5,8.5,0,0,0,.08-1.51V34.68H850v5a11.71,11.71,0,0,1-.15,2.37,2.76,2.76,0,0,1-.6,1.24,3,3,0,0,1-1.15.8,5,5,0,0,1-1.84.29,5.44,5.44,0,0,1-2.07-.32,3.05,3.05,0,0,1-1.14-.84,2.68,2.68,0,0,1-.56-1.1,10.39,10.39,0,0,1-.18-2.36V34.68Zm14.77,5.56V34.68h2.13v9.55H857l-3.35-5.43v5.43h-2.13V34.68h2.12l3.41,5.56Zm3.6,4V34.68H863v9.55ZM867.87,41l2.09-6.3h2.41L869,44.23h-2.27l-3.41-9.55h2.45Zm7.19-4.34v1.61h4.59v2h-4.59v2.07h5.1v2H872.8V34.68H880v2Zm12.07,3.45a4.88,4.88,0,0,1,.59.52,10.58,10.58,0,0,1,1.07,1.51l1.32,2.11h-2.7L886,42.15a12.25,12.25,0,0,0-.95-1.32,1.27,1.27,0,0,0-.47-.32,2.5,2.5,0,0,0-.86-.09h-.16v3.81h-2.27V34.68h4.09a6.81,6.81,0,0,1,2.2.26,2.26,2.26,0,0,1,1.17,1,2.81,2.81,0,0,1,.43,1.55,2.66,2.66,0,0,1-.66,1.84,2.78,2.78,0,0,1-1.41.8Zm-3.55-1.55h1.15a7.73,7.73,0,0,0,1.59-.1.79.79,0,0,0,.41-.31,1,1,0,0,0,.15-.56.83.83,0,0,0-.76-.9h0a11.63,11.63,0,0,0-1.32,0h-1.22v1.9ZM890,40.86l0,.21a3.71,3.71,0,0,0,1.18,2.47,4.2,4.2,0,0,0,2.8.85,5.38,5.38,0,0,0,2.06-.35,2.76,2.76,0,0,0,1.33-1.1,2.87,2.87,0,0,0,.47-1.58,3,3,0,0,0-.39-1.57,2.84,2.84,0,0,0-1.09-1,9.23,9.23,0,0,0-2-.68,5.41,5.41,0,0,1-1.61-.56.52.52,0,0,1-.2-.4.48.48,0,0,1,.21-.39,2,2,0,0,1,1.13-.29,1.8,1.8,0,0,1,1,.26,1.44,1.44,0,0,1,.43.88l0,.19,2.24-.1v-.21a2.87,2.87,0,0,0-1-2.16,4.12,4.12,0,0,0-2.73-.81,4.85,4.85,0,0,0-1.88.34,2.68,2.68,0,0,0-1.23,1,2.6,2.6,0,0,0,.48,3.41,5.23,5.23,0,0,0,2.17.95c.47.12,1,.24,1.46.4a1.32,1.32,0,0,1,.57.33.68.68,0,0,1,.14.42.91.91,0,0,1-.38.71,1.86,1.86,0,0,1-1.21.33,1.76,1.76,0,0,1-1.19-.37,2,2,0,0,1-.59-1.2l0-.2-2.2.22ZM899,44.23V34.68h2.26v9.55Zm3.59-9.55h3.58a6.84,6.84,0,0,1,1.8.18,3.18,3.18,0,0,1,1.46.9,4.15,4.15,0,0,1,.92,1.55,6.76,6.76,0,0,1,.31,2.23,6,6,0,0,1-.29,2,4.26,4.26,0,0,1-1,1.7,3.44,3.44,0,0,1-1.38.78,5.67,5.67,0,0,1-1.69.2h-3.68V34.68Zm2.26,2v5.63H906a5.35,5.35,0,0,0,1.06-.08,1.58,1.58,0,0,0,.66-.33,1.89,1.89,0,0,0,.42-.79,6.26,6.26,0,0,0,.18-1.61,5.13,5.13,0,0,0-.18-1.56,2,2,0,0,0-.47-.8,1.52,1.52,0,0,0-.75-.37,8.07,8.07,0,0,0-1.47-.09Zm12.45,5.51h-3.36l-.75,2.08h-2.41l3.72-9.55h2.24l3.82,9.55h-2.46Zm-.75-1.95-.95-2.57-.94,2.56ZM921,34.68h3.58a6.8,6.8,0,0,1,1.8.18,3.21,3.21,0,0,1,1.47.9,4.2,4.2,0,0,1,.92,1.55,7,7,0,0,1,.3,2.23,6,6,0,0,1-.29,2,4.26,4.26,0,0,1-1,1.7,3.47,3.47,0,0,1-1.37.78,5.78,5.78,0,0,1-1.7.2H921V34.68Zm2.27,2v5.63h1.16a5.35,5.35,0,0,0,1.06-.08,1.58,1.58,0,0,0,.66-.33,1.89,1.89,0,0,0,.42-.79,5.49,5.49,0,0,0,.18-1.61,5.13,5.13,0,0,0-.18-1.56,2.07,2.07,0,0,0-.46-.8,1.59,1.59,0,0,0-.76-.37,8.07,8.07,0,0,0-1.47-.09ZM936,40.78v3.45h-2.27V34.68h3.17a10.5,10.5,0,0,1,2.24.14,2.6,2.6,0,0,1,1.43,1,3.07,3.07,0,0,1,.58,1.9,3.31,3.31,0,0,1-.33,1.52,2.65,2.65,0,0,1-.85,1,2.83,2.83,0,0,1-1,.47,9.79,9.79,0,0,1-2,.13Zm0-4.14v2.17h.79a4.9,4.9,0,0,0,1.38-.13.94.94,0,0,0,.48-.37,1,1,0,0,0,.17-.59,1,1,0,0,0-.23-.68,1.12,1.12,0,0,0-.63-.34,9.07,9.07,0,0,0-1.28-.06Zm8.5,0v1.61h4.59v2h-4.59v2.07h5.1v2h-7.36V34.68h7.19v2Zm12.07,3.45a4.88,4.88,0,0,1,.59.52,10.58,10.58,0,0,1,1.07,1.51l1.32,2.11h-2.7l-1.39-2.08a12.25,12.25,0,0,0-1-1.32,1.27,1.27,0,0,0-.47-.32,2.77,2.77,0,0,0-.86-.09H953v3.81h-2.27V34.68h4.09a6.81,6.81,0,0,1,2.2.26,2.26,2.26,0,0,1,1.17,1,2.81,2.81,0,0,1,.43,1.55,2.71,2.71,0,0,1-.66,1.84,2.78,2.78,0,0,1-1.41.8ZM953,38.54h1.15a7.73,7.73,0,0,0,1.59-.1.74.74,0,0,0,.41-.31,1,1,0,0,0,.15-.56.83.83,0,0,0-.76-.9h0a11.63,11.63,0,0,0-1.32,0H953v1.9ZM960,34.68h2.27v5.15a9.29,9.29,0,0,0,.06,1.49,1.23,1.23,0,0,0,.49.77,1.82,1.82,0,0,0,1.09.3,1.7,1.7,0,0,0,1-.28,1.06,1.06,0,0,0,.4-.66,9.56,9.56,0,0,0,.08-1.51V34.68h2.26v5a11.71,11.71,0,0,1-.15,2.37,2.76,2.76,0,0,1-.6,1.24,3,3,0,0,1-1.15.8,5,5,0,0,1-1.84.29,5.41,5.41,0,0,1-2.07-.32,3.05,3.05,0,0,1-1.14-.84,2.68,2.68,0,0,1-.56-1.1,11,11,0,0,1-.19-2.36V34.68Zm14.72,7.47h-3.36l-.75,2.08h-2.41l3.72-9.55h2.24l3.82,9.55h-2.46l-.8-2.08Zm-.75-1.95L973,37.63,972,40.2Zm10,0V34.68h2.14v9.55h-2.18l-3.35-5.43v5.43H978.4V34.68h2.13l3.4,5.56Zm9.16,1.91h-3.36L989,44.23h-2.41l3.72-9.55h2.24l3.82,9.55h-2.46l-.8-2.08Zm-.75-1.95-1-2.57-.94,2.57Z"/><path class="cls-2" d="M852.11,59.09l3.22,1-.06.2a6.59,6.59,0,0,1-2.22,3.61,7,7,0,0,1-8.8-.84,7.76,7.76,0,0,1-1.9-5.49,8.09,8.09,0,0,1,1.91-5.71,6.52,6.52,0,0,1,5-2.05,6.19,6.19,0,0,1,4.43,1.61,6.06,6.06,0,0,1,1.53,2.74l.06.21-3.3.79,0-.21a2.78,2.78,0,0,0-2.83-2.25,3.07,3.07,0,0,0-2.43,1.08,5.65,5.65,0,0,0-.94,3.57,6.19,6.19,0,0,0,.93,3.75,3,3,0,0,0,2.38,1.08,2.74,2.74,0,0,0,1.86-.68,4.24,4.24,0,0,0,1.13-2.2l.05-.23ZM866,61.59h-5.45l-1.18,3.26h-3.54l5.76-14.78h3.35l5.93,14.78h-3.62Zm-1.09-2.84-1.67-4.51-1.65,4.51Zm8.9-.09v6.2h3.31V58.68l5.46-8.61h-3.85l-3.19,5.48-3.26-5.48h-3.9l5.43,8.59Zm12.93-5.74v2.77h7.22v2.83H886.7V62h8v2.84H883.38V50.07h11.07v2.85Zm13.3,0h-4.26V50.07h11.83v2.85h-4.25V64.85H900V52.92Zm16.14,8.67,1.26,3.26H921l-5.92-14.78h-3.35L906,64.85h3.53l1.19-3.26Zm-1.08-2.84h-3.32l1.64-4.51Zm15.7.38V50.07h3.11V64.85h-3.24L925.17,56v8.84h-3.11V50.07h3.15l5.55,9.06Zm5.17-1.58a9.2,9.2,0,0,1,.68-3.77,7,7,0,0,1,1.37-2,5.88,5.88,0,0,1,1.93-1.34,8.23,8.23,0,0,1,3.18-.58,7,7,0,0,1,5.23,2,7.78,7.78,0,0,1,2,5.62,7.74,7.74,0,0,1-1.95,5.59,7.75,7.75,0,0,1-10.45,0,7.64,7.64,0,0,1-2-5.53Zm3.41-.1A5.35,5.35,0,0,0,940.41,61a3.46,3.46,0,0,0,2.71,1.19A3.43,3.43,0,0,0,945.81,61a5.43,5.43,0,0,0,1.05-3.61,5.34,5.34,0,0,0-1-3.54,3.81,3.81,0,0,0-5.38-.06l-.08.07A5.38,5.38,0,0,0,939.34,57.45ZM961,55.72h5.27V50.07h3.32V64.86H966.3V58.57H961v6.28h-3.32V50.07H961Zm14.49-2.8v2.76h7.21v2.84h-7.21V62h8v2.84H972.19V50.07h11.07v2.85Zm18.81,5.49a6.91,6.91,0,0,1,1.13,1,15,15,0,0,1,1.67,2.36l2,3.12h-4L993,61.63c-.3-.45-.61-.91-.94-1.35a6.72,6.72,0,0,0-.56-.73,2,2,0,0,0-.79-.54,4.74,4.74,0,0,0-1.4-.15h-.37v6h-3.32V50.07h6.31a10.94,10.94,0,0,1,3.42.4,3.5,3.5,0,0,1,1.78,1.46,4.43,4.43,0,0,1,.66,2.38,4.09,4.09,0,0,1-1,2.81,4.45,4.45,0,0,1-2.42,1.29Zm-5.42-2.27h1.93a11.35,11.35,0,0,0,2.54-.16,1.35,1.35,0,0,0,.71-.53,1.69,1.69,0,0,0,.26-1,1.41,1.41,0,0,0-1.3-1.52,5.27,5.27,0,0,0-.68,0h-3.46v3.22Zm14.48-3.22v2.76h7.21v2.84h-7.21V62h8v2.84h-11.34V50.07h11.07v2.85Zm10.05-2.85H1019a10.54,10.54,0,0,1,2.79.28,5,5,0,0,1,2.25,1.38,6.49,6.49,0,0,1,1.43,2.41,11.26,11.26,0,0,1,.48,3.46,9.77,9.77,0,0,1-.46,3.13,6.46,6.46,0,0,1-1.59,2.61,5.27,5.27,0,0,1-2.12,1.2,8.62,8.62,0,0,1-2.63.31h-5.67V50.07Zm3.32,2.85V62h2a7.46,7.46,0,0,0,1.7-.13,2.47,2.47,0,0,0,1.08-.55,2.91,2.91,0,0,0,.7-1.29,9.26,9.26,0,0,0,.29-2.57,8.37,8.37,0,0,0-.29-2.49,3,3,0,0,0-.76-1.3,2.61,2.61,0,0,0-1.25-.63,13,13,0,0,0-2.33-.13Zm11.1,11.93V50.07h3.32V64.85Zm14.27-3.26h-5.45l-1.19,3.26H1032l5.76-14.78h3.35L1047,64.85h-3.62l-1.25-3.26ZM1041,58.75l-1.67-4.51-1.65,4.51Z"/></g></g></svg>