<svg id="Layer_1" data-name="Layer 1" xmlns="http://www.w3.org/2000/svg" viewBox="0 0 1500 100"><defs><style>.cls-1,.cls-2{fill:#010101;}.cls-2{fill-rule:evenodd;}</style></defs><g id="Capa_2" data-name="Capa 2"><g id="Contacto"><path class="cls-1" d="M621.05,14.58c-.29,0-.52,9.14-.52,20.42s.23,20.42.52,20.42.52-9.15.52-20.42-.23-20.42-.52-20.42"/><path class="cls-1" d="M641.68,29.91a2.92,2.92,0,0,0-1.17-2.69,8.44,8.44,0,0,0-4.15-.72h-1.75v6.63h1.79a14.7,14.7,0,0,0,3.17-.26,2.63,2.63,0,0,0,1.61-.95,3.45,3.45,0,0,0,.5-2m8.45,0a9,9,0,0,1-.52,3,8.11,8.11,0,0,1-1.7,2.72,8.54,8.54,0,0,1-3.17,2.05,12.7,12.7,0,0,1-4.69.78h-5.44V48.73h-8.3V21.22h13.74a12.51,12.51,0,0,1,4.69.79,8.59,8.59,0,0,1,3.17,2.07,8.08,8.08,0,0,1,1.7,2.75,9.29,9.29,0,0,1,.52,3"/><path class="cls-1" d="M681.25,36.41a12.82,12.82,0,0,1-1.32,6,10.62,10.62,0,0,1-3.5,3.94,14.91,14.91,0,0,1-4.68,2.08,20.66,20.66,0,0,1-5,.64,20,20,0,0,1-6.8-1.19,12.09,12.09,0,0,1-5.53-4,11.87,11.87,0,0,1-2.23-7.44V21.22h8.28v13a11.17,11.17,0,0,0,.79,4.5,5.48,5.48,0,0,0,2.18,2.6,7,7,0,0,0,6.54,0,5.43,5.43,0,0,0,2.2-2.58A11.14,11.14,0,0,0,673,34.3V21.22h8.3Z"/><path class="cls-1" d="M709.76,46.67a20.32,20.32,0,0,1-3.49,1.43,22.28,22.28,0,0,1-3.61.76,31.37,31.37,0,0,1-3.76.23,19.61,19.61,0,0,1-6.44-1,13.85,13.85,0,0,1-4.94-2.93,12.29,12.29,0,0,1-3.14-4.53,15.14,15.14,0,0,1-1-5.69,14.62,14.62,0,0,1,1.23-6.22A12,12,0,0,1,688,24.3a14.85,14.85,0,0,1,5-2.62,21.09,21.09,0,0,1,6-.84,32.45,32.45,0,0,1,10.62,2.09v7.3a28.2,28.2,0,0,0-4-2.11,12.14,12.14,0,0,0-4.69-.85,10.69,10.69,0,0,0-4.49,1,8.21,8.21,0,0,0-3.35,2.71,7.22,7.22,0,0,0-.16,8A7.9,7.9,0,0,0,696,41.66a9.75,9.75,0,0,0,4.46,1,14.65,14.65,0,0,0,3.79-.49,17.69,17.69,0,0,0,3-1.08c.86-.43,1.7-.9,2.51-1.41Z"/><path class="cls-1" d="M727.59,29.91a2.93,2.93,0,0,0-1.16-2.69,8.54,8.54,0,0,0-4.16-.72h-1.75v6.63h1.79a14.79,14.79,0,0,0,3.18-.26,2.63,2.63,0,0,0,1.6-.95,3.45,3.45,0,0,0,.5-2m8.45,0a8.71,8.71,0,0,1-.52,3,8,8,0,0,1-1.7,2.72,8.54,8.54,0,0,1-3.17,2.05,12.7,12.7,0,0,1-4.69.78h-5.44V48.73h-8.3V21.22H726a12.51,12.51,0,0,1,4.69.79,8.47,8.47,0,0,1,3.17,2.07,7.93,7.93,0,0,1,1.7,2.75,9,9,0,0,1,.52,3"/><path class="cls-1" d="M609,26.42a1.48,1.48,0,0,0,2.25.68l2.8-1.3L614,25l-3.05,1.43c-.59.27-1,.11-1.22-.35s-.08-.82.48-1.12l3-1.57-.57-.54-2.74,1.45c-1,.57-1.27,1.24-.84,2.1m-35.5-.87c.46-.84.34-1.51-.75-2.14l-2.67-1.54-.59.51,2.92,1.68c.56.33.68.66.44,1.1s-.58.49-1.15.21l-3-1.55-.11.78L571.34,26c1.06.52,1.69.38,2.15-.46m37.58,8.56.78-.06-.14-1.55,1.3-.11.09,1.1.77-.06-.08-1.11,1.31-.11.14,1.56.76-.07-.19-2.28-4.93.4ZM596.14,14.87l-1.52-.31.25-1.27,1.09.22.15-.76L595,12.52l.25-1.29,1.53.3.16-.74-2.25-.46-1,4.84,2.24.46Zm-6.87.16-.12-.77-1.53.26-.22-1.28,1.08-.18-.12-.77-1.1.18-.22-1.3,1.54-.26-.13-.75-2.26.38.82,4.87ZM571.08,34.61l-.78,0,.1,1.55-1.29.09-.07-1.1-.78,0,.06,1.11-1.31.09-.1-1.56-.76.05.14,2.29,4.93-.31Zm32.07,21.8-2-3.63.59-.34,2,3.63Zm-1.56.79-1.81-3.76.62-.3,1.81,3.77Zm-2.8,1.09-2.87-3.47.63-.2,1.65,1.94.21-2.53.65-.21Zm-3.59.89L594,57.77l-.76,1.64-.68.08,1-2.24-1.53-1.91.68-.09,1.15,1.43L594.7,55l.68-.06-1,2.22,1.53,1.93Zm-4.14.36-.54-2.63-1.11,1.22-.9-1.38-.93,2.52-.68-.07,1.41-4.08L589.5,57l1.5-1.68.74,4.24Zm-6-.89c-.7-.18-1.07-1.24-.77-2.35s1.13-1.87,1.85-1.68a1.4,1.4,0,0,1,.84,1.31l-.68-.2c-.06-.23-.18-.41-.34-.43-.36-.09-.81.43-1,1.17s-.08,1.44.29,1.53a.53.53,0,0,0,.5-.23l.7.2a1.35,1.35,0,0,1-1.38.68m-2-.47-.61-.3.43-2.63-1.47.75-.36-1.61-1.77,2-.61-.29,2.74-3.34.48,2.2,2-1Zm8.08-3.36a19.83,19.83,0,0,1-19.33-15.75h-5.45a25.14,25.14,0,0,0,49.57,0h-5.45a19.84,19.84,0,0,1-19.34,15.75m24.15-19.25-4.15-.19,0,.76,4.15.19,0,1.14.78,0,.12-3-.78,0Zm-2.85-8.21a2.3,2.3,0,0,0-2.08,2.6,2,2,0,0,0,.72,1.19l.56-.43a1.58,1.58,0,0,1-.52-.94c-.15-.76.59-1.46,1.52-1.65s1.82.17,2,.95a1.46,1.46,0,0,1-.22,1.06l.69.2a1.89,1.89,0,0,0,.3-1.44c-.25-1.2-1.46-1.84-2.95-1.54m-4.33-2.77.64-.45-.92-1.32,3.41-2.37-.44-.62-4,2.83Zm-2.4-5a.64.64,0,0,1-.91.13l0-.05a1.37,1.37,0,0,1-.31-.73l-.69.32a2,2,0,0,0,.57,1,1.38,1.38,0,0,0,2-.13l.05-.06c1.06-1.17-.42-2.1.24-2.82a.62.62,0,0,1,.89-.08l0,0a1.44,1.44,0,0,1,.35.77l.68-.28a2,2,0,0,0-.58-1.08,1.34,1.34,0,0,0-1.9.05l-.07.09c-1.14,1.25.39,2.07-.28,2.8m-2.6-.43,2.93-4-.61-.45-2.93,4Zm-.82-5.5.38.21a.66.66,0,0,1,.3.89.16.16,0,0,1,0,.07.67.67,0,0,1-.86.39.31.31,0,0,1-.1,0l-.41-.23Zm-2.06,3.66,1-1.73.21.12a.28.28,0,0,1,.15.28l.07,2.23.83-.1-.13-2.18a1.31,1.31,0,0,0,1.31-.75,1.29,1.29,0,0,0-.3-1.8l-.22-.13L602,12.61l-2.43,4.32Zm-1.86-3.12c.53.18.69.51.52,1a.64.64,0,0,1-.8.45l-.13,0-.49-.17L598,14Zm.32-2.13.46.16a.65.65,0,0,1,.49.76.5.5,0,0,1,0,.13.68.68,0,0,1-.86.46l-.09,0-.42-.15Zm-.77,4.24a1.24,1.24,0,0,0,1.62-.67.75.75,0,0,0,.05-.16,1.07,1.07,0,0,0-.35-1.36h0c.4.08.84-.22,1.07-.85a1.2,1.2,0,0,0-.65-1.58l-.13-.05-1.31-.47-1.71,4.65Zm-7.43-4.89h0l1.8,3.81.77-.24.12-4.8-.75,0,0,3.7h0L590.56,10l-.71.25-.12,4.79h.75Zm-6.89.68,1.18,4,.73-.22-1.19-4,1.08-.34-.22-.75-2.91.89.23.76Zm-3.85,6.47-2-3.08v0l3.56,2.23.51-.63L579.38,13l-.64.4,2,3.12h0l-3.61-2.23-.46.6L579.1,19Zm-1.19.91-3.13-3.84-.58.49L578,19.94Zm-4.4,4.21.74-.24-.82-2,2.09.42.1-.81-2.46-.41-.87-2.25-.76.23.81,1.91-2-.4-.07.83,2.36.37Zm-1.51,3.52-.74-.26-.52,1.53-3.92-1.39-.24.72,4.66,1.64Zm-5.57,5.64,4.13.45.08-.76-4.13-.45.11-1.13-.78-.09-.31,3L567,34ZM581.85,49.3a9.08,9.08,0,0,0-1.66.65l-.22.1a17.19,17.19,0,0,0,10.95,3.56c.66,0,1.31-.06,1.94-.13a18.53,18.53,0,0,0,7.31-2.31,1.67,1.67,0,0,1-.81-.65,1.47,1.47,0,0,1-.12-1.29,2.42,2.42,0,0,0-.47.07A9.83,9.83,0,0,0,597,50a11.53,11.53,0,0,1-4.65,1.3,1.72,1.72,0,0,1-1.46-.72,1.46,1.46,0,0,1-.25-.81,1.62,1.62,0,0,1,.11-.53,1.84,1.84,0,0,0-.47.06,9.44,9.44,0,0,0-1.78.71,11.5,11.5,0,0,1-4.63,1.29,1.67,1.67,0,0,1-1.4-.71,1.46,1.46,0,0,1-.17-1.36,2.42,2.42,0,0,0-.47.07m23.49-10.74s0,0,0-.06a.56.56,0,0,0-.11-.32,1.83,1.83,0,0,0-1.7-.34c-.24,0-.47.1-.7.17l-1.43-1.89,1.24,2a5.85,5.85,0,0,0-.82.33l-1.72-2.29,1.51,2.39-.34.17-.51.25-2.07-2.78L600.53,39a9.38,9.38,0,0,1-.93.35l-2.43-3.23,2.09,3.34-.77.18-2.66-3.56,2.23,3.63c-.29,0-.6.08-.95.12a1.33,1.33,0,0,1-.64-.22l0,0a.26.26,0,0,1-.09-.16V39.4a.44.44,0,0,1,.09-.27l.25-.18h0a.72.72,0,0,0,.16-.44.54.54,0,0,0-.08-.28,1.83,1.83,0,0,0-1.75-.38,8.54,8.54,0,0,0-2,.63,12.87,12.87,0,0,1-.74-5.61,10.89,10.89,0,0,0,8,2.4c.19,0,.38-.06.56-.09h0a7.4,7.4,0,0,0,4.08-2,9.35,9.35,0,0,0,1.12-1.15,1.47,1.47,0,0,1,.1-.13c.07-.09.14-.16.2-.25l1,.71,1,.79a12.34,12.34,0,0,1-3,5.37m-12.72.12c-1-2.8-1.48-4-1.23-6.78l.79.84a13,13,0,0,0,.76,5.79l-.32.15m-.13.06a3.94,3.94,0,0,1-.31-.44.61.61,0,0,1-.07-.1l-.18-.29-.15-.25s0,0,0-.08A10.91,10.91,0,0,1,590.51,34c0-.24-.06-.44-.08-.64h0c0-.23,0-.43,0-.6s0-.41,0-.48a3.82,3.82,0,0,0,.46-.21c.12-.07.24-.12.37-.18-.26,2.82.18,4,1.23,6.89h0M592,39a20,20,0,0,1-2.37-4.08s-.15-.32-.17-.38a5.64,5.64,0,0,1,.83-1.11c0,.1,0,.21,0,.32a10.77,10.77,0,0,0,2,5.1L592,39m-1.63-13.64h6.39a12.77,12.77,0,0,0-.86,4.09v.27a9.26,9.26,0,0,0,1.51,4.16l0,.05c.37.72.66,1.21.66,1.21v0a11.14,11.14,0,0,1-5.74-2.38l0,0-.56-.58-.4-.42,0,0h0a4.12,4.12,0,0,0-.52.24l-.44.21h-.05v0h0a8,8,0,0,0,0,1l0,0-.14.15a10.52,10.52,0,0,1-1-4.19,6.43,6.43,0,0,1,1.26-3.88m4.14-1.69h7.35a8.94,8.94,0,0,0-2.21,5c0,.1,0,.19,0,.28A8.05,8.05,0,0,0,601.42,34a4.38,4.38,0,0,0-3.92-.26A9.25,9.25,0,0,1,596,29.66a2.26,2.26,0,0,1,0-.26,9.84,9.84,0,0,1,.29-2.15c.15-.59.35-1.24.61-2l-.06-.09h-3.59a5.66,5.66,0,0,1,1.23-1.56m2.26-1.84a1.41,1.41,0,0,0,.07,1.35,7.68,7.68,0,0,0-2.27-1c.86-.2,2.2-.36,2.2-.36m.29-.18h.2v0l.24,1.82h-.42l0-1.77a.11.11,0,0,1,0-.08m5.05,13.11a7.37,7.37,0,0,1-1.05.28c.14-.14.36-.38.61-.66l.25.2.19.18m4.06-3a10.33,10.33,0,0,1-1.56,1.61l0,0-.24.19a8.33,8.33,0,0,1-2.08,1.11l-.24-.23-.23-.24a21.2,21.2,0,0,0,1.68-2.08,10.3,10.3,0,0,0,2.7-.39m-21-5.64-2.67.21,1.13,1.24c.16.18,0,.4-.21.24l-.08-.08-1.09-1.13s-.23,7.75-.29,8.64c0,.27-.23.3-.28,0l-.23-8.64c-.36.37-.77.88-1.17,1.22-.18.16-.35-.05-.2-.27l1-1.22-2.64-.21c-.39,0-.43-.36,0-.43l2.67-.24s-.77-.8-1.13-1.21c-.2-.22-.06-.38.12-.27l1.29,1.2v-.07c0-.88.11-1.77.18-2.65,0-.37.36-.43.43,0l.2,2.74s.87-.84,1.29-1.21c.22-.18.38,0,.16.26l-1.2,1.21,2.67.24c.38,0,.43.36,0,.43m24.42,8.76a18.63,18.63,0,0,0-18.54-18.72A18.83,18.83,0,0,0,573,39.74a9.76,9.76,0,0,0,2.77-1,7.75,7.75,0,0,1,2.24-.83,1.74,1.74,0,0,1,1.68.35.38.38,0,0,1,.07.25.67.67,0,0,1-.16.43l-.23.17a.45.45,0,0,0-.1.31v.07a.29.29,0,0,0,.11.19l0,0a1.28,1.28,0,0,0,.68.22,10.06,10.06,0,0,0,4.19-1.19,8.08,8.08,0,0,1,2.23-.82,1.75,1.75,0,0,1,1.7.36.4.4,0,0,1,.07.24.65.65,0,0,1-.17.43l-.22.18a.44.44,0,0,0-.11.29v.07a.28.28,0,0,0,.13.2l0,0a1.22,1.22,0,0,0,.62.22,10.14,10.14,0,0,0,3.38-.81l.48-.2h0l0,0h0A8.66,8.66,0,0,1,595,38a1.73,1.73,0,0,1,1.6.31.44.44,0,0,1,.07.21.7.7,0,0,1-.14.36l-.23.17h0a.58.58,0,0,0-.12.36.28.28,0,0,0,0,.09.34.34,0,0,0,.15.26l0,0a1.51,1.51,0,0,0,.72.24,10.07,10.07,0,0,0,4.22-1.21,8,8,0,0,1,2.22-.82,1.77,1.77,0,0,1,1.57.29.44.44,0,0,1,0,.49h0A.72.72,0,0,1,605,39l-.21.18a.48.48,0,0,0-.12.36.3.3,0,0,0,.13.2l0,0a1.15,1.15,0,0,0,.64.22,10.28,10.28,0,0,0,3.65-1,18.48,18.48,0,0,0,.46-4.13m-8.8,15.5.78-.08a19,19,0,0,0,4.23-4.08,1.57,1.57,0,0,1-.94-.69,1.46,1.46,0,0,1-.22-.78,1.44,1.44,0,0,1,.09-.51l-.33,0-.12,0a9.44,9.44,0,0,0-1.78.71,11.58,11.58,0,0,1-4.64,1.28,1.71,1.71,0,0,1-1.46-.72,1.45,1.45,0,0,1-.25-.8,1.4,1.4,0,0,1,.11-.53l-.31,0-.16,0a9.18,9.18,0,0,0-1.78.71,11.28,11.28,0,0,1-4.61,1.28,1.69,1.69,0,0,1-1.43-.7,1.47,1.47,0,0,1-.16-1.35l-.33,0-.12,0a9.35,9.35,0,0,0-1.77.71A11.64,11.64,0,0,1,581,46.25a1.74,1.74,0,0,1-1.48-.73,1.43,1.43,0,0,1-.14-1.32l-.36,0-.11,0a9.23,9.23,0,0,0-1.8.71,12.42,12.42,0,0,1-1.34.6l.44.6a18.7,18.7,0,0,0,3,3.22l.48-.23a7.87,7.87,0,0,1,2.2-.81,1.75,1.75,0,0,1,1.69.33.46.46,0,0,1,.08.25.74.74,0,0,1-.17.43l-.22.18a.47.47,0,0,0-.11.31v.06a.28.28,0,0,0,.12.19l0,0a1.12,1.12,0,0,0,.61.21A9.58,9.58,0,0,0,588,49.17a7.79,7.79,0,0,1,2.25-.82,1.76,1.76,0,0,1,1.68.33.5.5,0,0,1,.08.26.73.73,0,0,1-.16.42l-.24.17a.6.6,0,0,0-.1.32.17.17,0,0,0,0,.07.25.25,0,0,0,.1.18l0,0a1.42,1.42,0,0,0,.66.21,9.89,9.89,0,0,0,4.18-1.17,7.61,7.61,0,0,1,2.22-.82,1.78,1.78,0,0,1,1.7.33.57.57,0,0,1-.1.68l-.22.18a.5.5,0,0,0-.11.37.28.28,0,0,0,.12.19l.05,0a1.33,1.33,0,0,0,.64.22m5.63-5.05a18.68,18.68,0,0,0,2.41-5.18,21.49,21.49,0,0,1-3.36.76,1.72,1.72,0,0,1-1.44-.74,1.46,1.46,0,0,1-.25-.81,1.32,1.32,0,0,1,.1-.51l-.47,0a11,11,0,0,0-1.74.71,11.92,11.92,0,0,1-4.67,1.31,1.75,1.75,0,0,1-1.47-.75,1.48,1.48,0,0,1-.23-.79,1.34,1.34,0,0,1,.1-.52,3.73,3.73,0,0,0-.47,0,10.33,10.33,0,0,0-1.76.72,11.77,11.77,0,0,1-4.64,1.3,1.71,1.71,0,0,1-1.42-.74,1.47,1.47,0,0,1-.16-1.32l-.47,0a10,10,0,0,0-1.73.71,12.06,12.06,0,0,1-4.7,1.31,1.77,1.77,0,0,1-1.49-.76,1.47,1.47,0,0,1-.24-.79,1.25,1.25,0,0,1,.1-.51,3.27,3.27,0,0,0-.45,0,11.32,11.32,0,0,0-1.77.72,11,11,0,0,1-3,1.07,18.85,18.85,0,0,0,1.92,4.12,12,12,0,0,0,1.42-.63,7.75,7.75,0,0,1,2.24-.83,1.82,1.82,0,0,1,1.69.34.59.59,0,0,1-.09.69l-.24.17a.54.54,0,0,0-.1.3v0a.3.3,0,0,0,.12.22v0a1.49,1.49,0,0,0,.71.2,10.17,10.17,0,0,0,4.21-1.17,8.08,8.08,0,0,1,2.23-.82,1.79,1.79,0,0,1,1.68.34.59.59,0,0,1-.08.69,1.46,1.46,0,0,0-.24.17.5.5,0,0,0-.1.35.3.3,0,0,0,.12.22l0,0a1.37,1.37,0,0,0,.65.2,9.91,9.91,0,0,0,4.15-1.17,8,8,0,0,1,2.23-.82,1.79,1.79,0,0,1,1.68.34.59.59,0,0,1-.08.69,1,1,0,0,0-.22.18.41.41,0,0,0-.12.33.3.3,0,0,0,.11.23l0,0a1.49,1.49,0,0,0,.68.2,10,10,0,0,0,4.18-1.17,8.27,8.27,0,0,1,2.24-.82,1.81,1.81,0,0,1,1.69.34.57.57,0,0,1-.09.69l-.24.17a.53.53,0,0,0-.1.35.39.39,0,0,0,.11.22l0,0a1.41,1.41,0,0,0,.66.2Z"/></g></g><g id="Capa_2-2" data-name="Capa 2"><g id="Contacto-2" data-name="Contacto"><path class="cls-2" d="M783,40.34a1.72,1.72,0,0,0,.87-.81,1.06,1.06,0,0,0,.1-.46c0-.4-.41-.64-.85-.8Z"/><path class="cls-2" d="M780.05,43.57a1.2,1.2,0,0,0,.51,1.09,2.72,2.72,0,0,0,.84.53l-.07-2.66C780.74,42.74,780.16,43,780.05,43.57Z"/><path class="cls-2" d="M779.85,33.71c-.87,1.15.28,1.77,1.32,2.14L781.1,33A2.1,2.1,0,0,0,779.85,33.71Z"/><path class="cls-2" d="M770.81,17.46c0,5.78.06,11.57.05,17.35,0,7.65,3.27,12.73,9.41,17,.61.42,1.23.83,1.87,1.22,6.8-3.67,11.32-8.71,11.72-16.75l0-18.82A70.32,70.32,0,0,0,770.81,17.46ZM788.1,34.17c.17.26.85.3,2,.14a2.42,2.42,0,0,1-3-.27,4.07,4.07,0,0,0-1.68-.76,1.59,1.59,0,0,0,.3.75l.13.24.16,0,.33-.29.18.17-.56.56h-.15l-1.29-1.35-.62-.58c-.17,0-.32-.08-.48-.08L783.34,34l-.12,2.27v.14l1.12.33a2.41,2.41,0,0,1,1.47,3c-.37,1.23-1.37,1.6-2.46,2.05l-.46.18-.21,3.67.59.24a1.61,1.61,0,0,1,.93,2.29,1.57,1.57,0,0,1-.53.93l-.4.32-.39-.5a3.15,3.15,0,0,0,.64-.57,1.22,1.22,0,0,0-.75-1.55l-.07,0-.09,0-.34,5.88-.68-.14-.14-6a3.19,3.19,0,0,1-2.23-.86,2.44,2.44,0,0,1-.41-3.43l.1-.12a5.29,5.29,0,0,1,2.4-1.28l-.07-3.14-.34-.1c-1.11-.31-2.34-.43-2.93-1.56a3,3,0,0,1,0-2.77,4.83,4.83,0,0,1,3.06-2l0-1.15-2.15-.47-.11-1.11L776.24,28l0-.47,6.26,0-3.7,0v0A2.64,2.64,0,0,1,777,24.17a1.75,1.75,0,0,1,.12-.32c.31-.83.1-.82-.37-1.34a1.14,1.14,0,0,1,.45,0,1.45,1.45,0,0,1,.88,1c.16.56,0,.91.27,1.32a2.65,2.65,0,0,0,.78.75,3.71,3.71,0,0,1-.64-1.64,3.15,3.15,0,0,1,.25-1.66,2.23,2.23,0,0,0,.37-1.4,2,2,0,0,0-.5-.78,3.58,3.58,0,0,1,1.42.52,1.6,1.6,0,0,1,.57,1.23,13.66,13.66,0,0,0-.16,2.56c.1.48.46,1.09.81,1.15-.1-.48-.44-.66-.27-1.31s.51-1.24.56-1.51a1.44,1.44,0,0,0-.17-1.11,2,2,0,0,1-.25-2,4.05,4.05,0,0,1,1.19-1.28,1.8,1.8,0,0,0-.28,1.28,2.22,2.22,0,0,0,.68,1.22,2.17,2.17,0,0,1,.6,1,2.49,2.49,0,0,1,0,1.43,3.3,3.3,0,0,0-.29.87,3.29,3.29,0,0,0,.07.83,6.48,6.48,0,0,1,.7-1.51c.39-.53.52-.73.29-1.19a2.22,2.22,0,0,1-.45-1.47,1.59,1.59,0,0,1,.54-1.07,3.4,3.4,0,0,0,.3-.23,1.61,1.61,0,0,0-.12.87,2.1,2.1,0,0,0,.71,1c.46.4.77.68.72,1a10.68,10.68,0,0,0-.43,1.86,3.5,3.5,0,0,0,.1,1.12,2.64,2.64,0,0,1,.45-1.11,13.27,13.27,0,0,0,1-1.21,2.29,2.29,0,0,0,.07-1.07l-.05-.5a2.61,2.61,0,0,1,.89.89,2.14,2.14,0,0,1-.07,1.63c-.23.39-.72,1.28-.72,1.28l-.07.13a3.62,3.62,0,0,0,1-.73,5.7,5.7,0,0,0,.77-1.18c.07-.25.18,1.12.09,1.39a5,5,0,0,1-1,1.81,10.37,10.37,0,0,1-1.16.8h1.65l-.07.61-2.58.43,0,1.07-2.15.39L783.52,31a.81.81,0,0,0,.31,0,4.57,4.57,0,0,1,1.28-.06s.66.49.75.53.75.41.87.43.76.28.76.28c-.15.31-.3.63-.46,1h-.22v-.52l.08-.27h-.63c-.48.16-.78.41-.82.76l.11-.21a18.88,18.88,0,0,1,2.34.78c1.63.32,2.37-.37,2.53-.71.06.9-1,1.13-2.31,1.17Z"/><path class="cls-2" d="M785,31.34l-.32-.05v.09a1.48,1.48,0,0,0,.34.21.37.37,0,0,0,.18,0l0-.06A.91.91,0,0,0,785,31.34Z"/><path class="cls-1" d="M776.42,52.67l-.18.21-.26.3.07.06a.36.36,0,0,0,.37.1.52.52,0,0,0,.17-.13.28.28,0,0,0,0-.39.18.18,0,0,0-.07,0Z"/><path class="cls-1" d="M775.78,53.42l-.46.55-.11.15.09.09a.39.39,0,0,0,.32.1.54.54,0,0,0,.31-.2.39.39,0,0,0,0-.56l-.1-.07Z"/><path class="cls-1" d="M767.25,34.86a.43.43,0,0,1,0,0,.59.59,0,0,0,0,.23.38.38,0,0,0,.14.14.54.54,0,0,0,.25.06.33.33,0,0,0,.32-.18.57.57,0,0,0,0-.26v-.1a4.35,4.35,0,0,0-.51,0h-.36l.08,0Z"/><path class="cls-1" d="M767.26,29.05a.36.36,0,0,0,0,.11.24.24,0,0,0,.1.22.5.5,0,0,0,.29.09c.25,0,.41-.09.41-.36,0-.05,0-.1,0-.15s-.39,0-.49,0h-.31l0,.05Z"/><path class="cls-1" d="M797.2,38.44a.32.32,0,0,0-.06-.24.42.42,0,0,0-.28-.14c-.25,0-.41,0-.46.28,0,0,0,.1,0,.15s.39.07.48.09l.31.06,0-.06,0,0Z"/><path class="cls-1" d="M800.86,11.12a82,82,0,0,0-37.08,0l.06,23.68c-.07,12.61,6.8,20,16.16,25.47,1.88,1.1,2.44.87,4.37-.13,9.15-4.75,15.37-12,16.49-23.46Zm-4.47,13.46h0a1,1,0,0,0,.24,0H797l.06,0v.16l0,.06h0l-.23,0s0,0,0,.06a1.5,1.5,0,0,0,0,.3v.17h.4l1,0a2.19,2.19,0,0,0,.51,0h0a1.09,1.09,0,0,0,0-.18v0l0-.06h.17l.06.05v0a4.51,4.51,0,0,0,0,.52,4.35,4.35,0,0,0,0,.51v0l-.06.06h-.17l0-.05v0a1.1,1.1,0,0,0,0-.18s0,0,0,0a2.9,2.9,0,0,0-.51,0h-1.36v.18c0,.11,0,.22,0,.33H797l.05.05v.16l-.06.06h-.31l-.24,0h0l-.07-.06v0a5.77,5.77,0,0,0,0-.72v-.68q0-.36,0-.72v0Zm-30.47.35v0l.08,0h0a2.47,2.47,0,0,0,.54.05h0l.06,0v.17l-.06.05h-.06l-.23,0a.54.54,0,0,0-.15.18.67.67,0,0,0-.07.31.41.41,0,0,0,.2.4.39.39,0,0,0,.21.06.25.25,0,0,0,.25-.14.9.9,0,0,0,.07-.27,1.66,1.66,0,0,1,.19-.62.65.65,0,0,1,.54-.24.75.75,0,0,1,.6.25,1.08,1.08,0,0,1,.23.73,1.54,1.54,0,0,1-.13.67l0,0-.08,0h0a2.56,2.56,0,0,0-.47,0h0l0-.05v-.16l0-.06h.26a.42.42,0,0,0,.11-.15.75.75,0,0,0,0-.26.45.45,0,0,0-.11-.31.28.28,0,0,0-.24-.1.24.24,0,0,0-.23.11,1.38,1.38,0,0,0-.1.4,1.42,1.42,0,0,1,0,.2.73.73,0,0,1-.05.2.6.6,0,0,1-.22.28.77.77,0,0,1-.39.11.85.85,0,0,1-.53-.18.89.89,0,0,1-.3-.39,1.44,1.44,0,0,1-.09-.51A1.62,1.62,0,0,1,765.92,24.93Zm-.09,3.21v0l0-.06h.17l.05.06v0c0,.06,0,.12,0,.18s0,0,0,0a2.9,2.9,0,0,0,.51,0h.89a2.9,2.9,0,0,0,.51,0h0a1.37,1.37,0,0,0,0-.19v0l0-.05h.17l.05.06v0c0,.17,0,.34,0,.5s0,.27,0,.41v.31a.73.73,0,0,1-.26.65.64.64,0,0,1-.33.08.73.73,0,0,1-.59-.26.86.86,0,0,1-.21-.58.76.76,0,0,1,0-.21v0h0l.07,0h-.45a2.9,2.9,0,0,0-.51,0h0c0,.06,0,.15,0,.22v0l-.05.06h-.17l0-.06v0c0-.18,0-.37,0-.55S765.84,28.31,765.83,28.14Zm0,3.33v0l.06-.05h.17l.05.05v0a1.1,1.1,0,0,0,0,.18s0,0,0,0a2.9,2.9,0,0,0,.51,0h.89a2.9,2.9,0,0,0,.51,0s0,0,0,0a1.09,1.09,0,0,0,0-.18v0l0-.05h.17l.05.06v0c0,.17,0,.34,0,.51s0,.34,0,.51v0l-.05.06h-.17l0-.06v0a1.09,1.09,0,0,0,0-.18h0a2.9,2.9,0,0,0-.51,0h-.89a2.9,2.9,0,0,0-.51,0h0a1.1,1.1,0,0,0,0,.18v0l-.05.06h-.17l-.06-.05v0c0-.17,0-.34,0-.51S765.85,31.64,765.84,31.47Zm0,4.79v-.1c0-.09,0-.19,0-.28s0-.18,0-.27v-.06h0l.12,0,.69-.42.29-.19.08-.08v0h-.43a4.35,4.35,0,0,0-.51,0h0a1.21,1.21,0,0,0,0,.19v0l-.06.06h-.16l-.06-.06v0c0-.17,0-.34,0-.51s0-.35,0-.52v0l0-.06h.17l.05,0v0a1.09,1.09,0,0,0,0,.18h0a2.9,2.9,0,0,0,.51,0h.89a2.9,2.9,0,0,0,.51,0h0a1.1,1.1,0,0,0,0-.18v0l0,0h.17l.06.06v0a4.52,4.52,0,0,0,0,.52c0,.11,0,.22,0,.33s0,.25,0,.38a1.14,1.14,0,0,1-.06.45.46.46,0,0,1-.27.29.83.83,0,0,1-.22,0,.71.71,0,0,1-.68-.49l-.22.14-.4.26a1.82,1.82,0,0,0-.38.29.14.14,0,0,0,0,.07v0l-.05.05h-.16Zm.49,2.36v0l-.05.06-.16,0-.07,0v0a4.38,4.38,0,0,0,0-.51l-.06-.51v0l0-.06.17,0,.06.05v0l0,.18h0a4.36,4.36,0,0,0,.51,0l.88-.09a4.5,4.5,0,0,0,.51-.08h0a1.09,1.09,0,0,0,0-.18v0l.05-.06.17,0,.06.06v0a4.56,4.56,0,0,0,0,.51l.06.51v0l0,.07-.17,0-.06-.05v0l0-.18h0a2.92,2.92,0,0,0-.51,0l-.88.09a4.46,4.46,0,0,0-.51.07h0a1.15,1.15,0,0,0,0,.19Zm.56,2.93v0l0,.06-.17,0-.07,0v0c0-.17-.07-.34-.11-.51a4.37,4.37,0,0,0-.12-.49v0l0-.07.17,0,.06,0v0a.84.84,0,0,0,.05.17h0l.5-.09.93-.22c.12,0,.27,0,.39-.09l0-.18a1.81,1.81,0,0,0-.09-.31h-.08l-.18,0h0l-.07,0,0-.16,0-.07.3-.07.24-.08h0l.08,0v0c0,.24.09.47.15.7l.15.66c.05.24.11.47.18.7v0l-.05.07h0a1.07,1.07,0,0,0-.25,0l-.3.07-.06,0,0-.16,0-.06h0l.23-.07s0,0,0-.06,0-.2-.06-.3l0-.16c-.13,0-.27.06-.39.09l-.93.21a4.1,4.1,0,0,0-.5.14h0a1.1,1.1,0,0,0,0,.18Zm1.26,3.75a1,1,0,0,1-.58-.62,1.36,1.36,0,0,1-.12-.72.65.65,0,0,1,.24-.43,3.5,3.5,0,0,1,.71-.33l.41-.17a2.11,2.11,0,0,0,.46-.21h0a1.27,1.27,0,0,0-.06-.18v0l0-.07.16-.06.07,0v0c.06.16.12.32.19.48a3.9,3.9,0,0,0,.2.47v0l0,.07-.16.06-.07,0v0a.8.8,0,0,0-.08-.16h0a3.39,3.39,0,0,0-.48.17l-.33.13a4.73,4.73,0,0,0-.68.33.5.5,0,0,0,0,.56.65.65,0,0,0,.27.34.42.42,0,0,0,.15,0,.51.51,0,0,0,.2,0l.26-.08.32-.13.56-.23.15-.08a0,0,0,0,0,0,0,1.21,1.21,0,0,0,0-.18v0l0-.07.15-.07.08,0v0a2.31,2.31,0,0,0,.1.28c0,.14.11.28.17.41l0,0,0,.07-.16.06-.07,0v0s-.06-.14-.11-.13l-.24.07-.39.15-.48.2a1.11,1.11,0,0,1-.78.08Zm3.47,1.94h0a1.83,1.83,0,0,0-.42.21h0l-.07,0-.08-.14v-.07l0,0a1.37,1.37,0,0,0,.2-.13.37.37,0,0,0,0-.18.77.77,0,0,0-.1-.25.44.44,0,0,0-.25-.21.3.3,0,0,0-.26,0,.28.28,0,0,0-.14.22,1.63,1.63,0,0,0,.13.39c0,.07,0,.13.08.19l.06.19a.63.63,0,0,1,0,.36.68.68,0,0,1-.28.3.85.85,0,0,1-.54.13.89.89,0,0,1-.46-.17,1.28,1.28,0,0,1-.34-.39,1.47,1.47,0,0,1-.24-.7v0l0-.07h0a2.73,2.73,0,0,0,.48-.25h0l.08,0,.08.13,0,.08,0,0a.86.86,0,0,0-.18.14.45.45,0,0,0,0,.23.63.63,0,0,0,.1.3.42.42,0,0,0,.38.24.43.43,0,0,0,.22-.06.26.26,0,0,0,.13-.26,1.12,1.12,0,0,0-.08-.26,1.56,1.56,0,0,1-.17-.63.61.61,0,0,1,.33-.49.76.76,0,0,1,.64-.1,1,1,0,0,1,.58.49,1.47,1.47,0,0,1,.24.64v0Zm2.29,4.84a1.14,1.14,0,0,1-.7.36,1,1,0,0,1-.77-.37,1.49,1.49,0,0,1-.37-.63.64.64,0,0,1,.08-.49,3.64,3.64,0,0,1,.54-.57l.32-.29a3.06,3.06,0,0,0,.36-.36v0l-.12-.14v-.1l.12-.11h.08l0,0,.34.39.36.36,0,0v.08l-.12.12H774l0,0-.13-.13h0a4.17,4.17,0,0,0-.38.34l-.26.23a3.39,3.39,0,0,0-.51.56.47.47,0,0,0,.16.53.64.64,0,0,0,.38.22.39.39,0,0,0,.15,0,.59.59,0,0,0,.17-.1l.21-.18.26-.24.43-.41a.49.49,0,0,0,.12-.13s0,0,0,0l-.11-.15h0v-.08l.13-.12h.08v0l.2.23c.1.1.2.21.31.31l0,0v.08l-.13.12H775l0,0s-.11-.1-.15-.08l-.19.16-.31.28Zm2.54,2.41a.79.79,0,0,1-.79.26,1,1,0,0,1-.5-.26l-.13-.11-.3-.27-.26-.2,0,0v-.08l0-.06,0,0h0l.14,0,.13-.14.25-.29.55-.65a4.4,4.4,0,0,0,.31-.41h0l-.13-.13,0,0V52l.11-.13H776l0,0c.12.12.25.23.38.34l.33.26.2.16a.75.75,0,0,1,.35.61.5.5,0,0,1-.12.29.59.59,0,0,1-.45.21.64.64,0,0,1-.2,0,.57.57,0,0,1,0,.75Zm2.9.32h-.09l-.16-.1h0a3,3,0,0,0-.31.4l-.53.72a3.07,3.07,0,0,0-.28.42v0l.14.12h0v.08l-.09.13-.08,0,0,0c-.13-.11-.27-.21-.41-.31l-.42-.3h0v-.08l.09-.14h.08l0,0,.16.09h0a4,4,0,0,0,.32-.4l.52-.72a2.87,2.87,0,0,0,.28-.43s0,0,0,0a.81.81,0,0,0-.14-.12l0,0v-.07l.1-.14h.08l0,0c.13.11.27.21.41.31l.42.29,0,0,0,.07Zm2.76,0c-.78-.47-1.53-1-2.25-1.46-6.41-4.44-10.3-9.92-10.28-18.58,0-6.32,0-12.65-.05-19a75.79,75.79,0,0,1,25.63,0c.09,6.86.31,13.73,0,20.58-.44,8.91-5.51,14.45-13,18.45Zm5.56,1-1.76-1.08a2.38,2.38,0,0,0-.31-.17.71.71,0,0,0-.15.08l0,0-.08,0-.09-.13v-.08l0,0,.37-.25.48-.36,0,0h.08l.09.13V54l0,0a.81.81,0,0,0-.14.12h0l.26.17.18.12.83.51-.21-.82a2.76,2.76,0,0,0-.08-.27,2,2,0,0,0-.11-.35h0l-.17.1,0,0h-.08l-.1-.14,0-.08,0,0a3.62,3.62,0,0,0,.32-.22l.28-.21,0,0h.08l.1.14,0,.07h0a.47.47,0,0,0-.1.1v.06a2.72,2.72,0,0,0,.07.33l.07.31.14.57c.08.34.16.7.26,1l0,0Zm3.2-2.46a1.41,1.41,0,0,1-.63.38.61.61,0,0,1-.49-.07,3.17,3.17,0,0,1-.57-.53l-.3-.31a3,3,0,0,0-.37-.35h0l-.14.12,0,0h-.07l-.12-.12v-.08l0,0,.38-.35c.12-.12.25-.24.36-.37l0,0H789l.12.12v.08l0,0A.81.81,0,0,0,789,52s0,0,0,0a2.43,2.43,0,0,0,.34.38l.24.25a3.39,3.39,0,0,0,.56.51.47.47,0,0,0,.53-.18.63.63,0,0,0,.21-.38.38.38,0,0,0,0-.15,1,1,0,0,0-.11-.17l-.18-.21-.25-.25-.41-.43-.14-.11h0l-.14.12h-.1l-.11-.12v-.08l0,0a2.09,2.09,0,0,0,.22-.2c.11-.1.21-.21.31-.31l0,0H790l.12.12v.08l0,0s-.11.1-.08.15a1.37,1.37,0,0,0,.16.18c.09.11.19.21.28.31l.36.37a1.14,1.14,0,0,1,.38.7,1.1,1.1,0,0,1-.36.77ZM793,51c-.09.11-.18.22-.26.34v0h-.09l-.06-.06,0-.05v0a.57.57,0,0,0,0-.13.93.93,0,0,0-.15-.13l-.29-.23-.67-.53A3.19,3.19,0,0,0,791,50h0l-.13.14v0h-.08l-.13-.11v-.08l0,0c.11-.12.22-.26.32-.39a3.25,3.25,0,0,0,.31-.42l0,0h.08l.13.1v.1l-.11.15v0a3.09,3.09,0,0,0,.39.33l.79.62.29.21.1-.13a2.21,2.21,0,0,0,.33-.47l0-.06-.16-.18v-.07l.1-.12h.08l0,0a4.73,4.73,0,0,0,.4.37h0V50Zm2.32-3.23c-.1.14-.18.29-.27.43s-.18.3-.26.45v0l-.08,0-.14-.08,0-.08v0a1.19,1.19,0,0,0,.08-.16s0,0,0,0a4,4,0,0,0-.43-.28l-.82-.49-.34-.21-.1.16a1.51,1.51,0,0,0-.15.28h0a.1.1,0,0,0,.06,0L793,48h0l0,.08-.08.13-.08,0-.27-.16-.22-.1,0,0,0-.08,0,0a4.67,4.67,0,0,0,.38-.6l.35-.59a6.27,6.27,0,0,0,.36-.62v0l.09,0,0,0a1.3,1.3,0,0,0,.2.15l.27.16,0,.08-.09.13-.07,0,0,0-.21-.11a.09.09,0,0,0-.06,0l-.16.26-.09.14a3.24,3.24,0,0,0,.35.21l.82.49a2.46,2.46,0,0,0,.45.25h0l.11-.15v0l.07,0,.15.08,0,.08Zm2.55-5.67a1.65,1.65,0,0,1-.35.65v0l-.09,0h0a2.21,2.21,0,0,0-.51-.18h0l0-.07,0-.16.07,0,.06,0,.23,0a.52.52,0,0,0,.19-.14.76.76,0,0,0,.15-.28.42.42,0,0,0-.09-.44.39.39,0,0,0-.19-.12.27.27,0,0,0-.28.08,1,1,0,0,0-.14.24,1.58,1.58,0,0,1-.34.55.6.6,0,0,1-.58.09.81.81,0,0,1-.52-.4,1.1,1.1,0,0,1,0-.76,1.45,1.45,0,0,1,.3-.61l0,0h.1a3.29,3.29,0,0,0,.44.16h0l0,.07,0,.15-.06,0h0a1,1,0,0,0-.23,0,.3.3,0,0,0-.14.11.9.9,0,0,0-.12.24.53.53,0,0,0,0,.33.31.31,0,0,0,.21.16.25.25,0,0,0,.25,0,1.27,1.27,0,0,0,.2-.36l.09-.18a1.62,1.62,0,0,1,.1-.18.58.58,0,0,1,.29-.22.68.68,0,0,1,.4,0,.89.89,0,0,1,.47.31,1,1,0,0,1,.19.45,1.3,1.3,0,0,1,0,.52Zm.71-3.48c0,.18-.07.36-.1.54s-.06.34-.08.5v0l-.07,0-.16,0,0-.06v0c0-.06,0-.12,0-.18h0a2.78,2.78,0,0,0-.5-.11l-.87-.15a3,3,0,0,0-.51-.07h0a1.21,1.21,0,0,0,0,.18v0l-.07,0-.16,0,0-.07v0c0-.17.07-.33.1-.5l.06-.4c0-.1,0-.2,0-.3a.75.75,0,0,1,.38-.6.53.53,0,0,1,.33,0,.71.71,0,0,1,.54.36.89.89,0,0,1,.11.6,1.72,1.72,0,0,1-.07.21v0h0l-.07,0,.44.08a4.43,4.43,0,0,0,.51.06s0,0,0,0a1.42,1.42,0,0,0,.05-.22v0l.06,0,.16,0,.05.07Zm.23-2.15h-.17l0-.05v0a1.1,1.1,0,0,0,0-.18h0a2.9,2.9,0,0,0-.51,0h-.89l-.51,0h0a1.15,1.15,0,0,0,0,.19v0l-.06.06h-.17l0-.06v0c0-.17,0-.34,0-.51a4.26,4.26,0,0,0,0-.51v0l0-.06h.17l.06.05v0a1.11,1.11,0,0,0,0,.19h0a4.34,4.34,0,0,0,.51,0l.89,0a2.19,2.19,0,0,0,.51,0s0,0,0,0a1.09,1.09,0,0,0,0-.18v0l0-.06h.17l.06.05v0a4.51,4.51,0,0,0,0,.52,4.35,4.35,0,0,0,0,.51v0Zm0-2.49h-.17l0,0v0a1.09,1.09,0,0,0,0-.18h0a2.88,2.88,0,0,0-.51,0h-.89l-.51,0s0,0,0,0,0,.13,0,.19v0l0,.06h-.17l-.06-.06v-.54c0-.11,0-.22,0-.33s0-.25,0-.38a1.35,1.35,0,0,1,0-.45.44.44,0,0,1,.27-.29.54.54,0,0,1,.22,0,.72.72,0,0,1,.69.47l.21-.14.4-.26a3.57,3.57,0,0,0,.38-.3.15.15,0,0,0,0-.07v0l0-.05h.16l.06.06v.09a2.81,2.81,0,0,0,0,.29,2.44,2.44,0,0,0,0,.27v0l-.05,0-.11,0-.69.43-.28.19a.76.76,0,0,0-.09.09h.42a4.36,4.36,0,0,0,.51,0h0a1.28,1.28,0,0,0,0-.19v0l0-.06h.16l.06.05v0c0,.17,0,.35,0,.52a4.35,4.35,0,0,0,0,.51v0Zm0-3.63h-.17l0-.05v0s0-.14,0-.16l-.2-.08-.5-.2-1.1-.42-.39-.14h0V29l2.12-.95a.21.21,0,0,0,.1-.06.29.29,0,0,0,0-.13v0l.06-.05h.16l.06.05v0c0,.14,0,.3,0,.44s0,.39,0,.58v0l-.06.05h-.16l0-.05,0-.17v0l-.13,0-.31.13v.43c0,.12,0,.23,0,.34l.16.06.28.08v0c0-.05,0-.11,0-.16v0l0-.05h.16l.06.06v0c0,.13,0,.26,0,.4s0,.22,0,.33v0Z"/><path class="cls-1" d="M797.83,29l-.64.27.65.24a2.35,2.35,0,0,0,0-.26Z"/><path class="cls-1" d="M797.46,33v0a.46.46,0,0,0-.05-.23.29.29,0,0,0-.14-.13.54.54,0,0,0-.25-.06.33.33,0,0,0-.32.18.84.84,0,0,0,0,.27.38.38,0,0,0,0,.1c.16,0,.34,0,.5,0h.37l-.08,0Z"/><path class="cls-2" d="M807.15,25.51h1.4v3.2a5.55,5.55,0,0,0,0,.91.71.71,0,0,0,.3.48,1.07,1.07,0,0,0,.67.19,1.19,1.19,0,0,0,.66-.17.62.62,0,0,0,.24-.41,4.94,4.94,0,0,0,0-.94V25.51h1.4v3.1a7.22,7.22,0,0,1-.09,1.47,1.84,1.84,0,0,1-.37.77,2.06,2.06,0,0,1-.71.49,3,3,0,0,1-1.14.18,3.27,3.27,0,0,1-1.28-.2,1.75,1.75,0,0,1-.71-.52,1.58,1.58,0,0,1-.35-.68,6.49,6.49,0,0,1-.11-1.46V25.51ZM816.29,29V25.51h1.32v5.92h-1.35l-2.07-3.36v3.36h-1.32V25.51h1.31L816.29,29Zm2.23,2.47V25.51h1.4v5.92Zm4.45-2,1.29-3.91h1.49l-2.12,5.92h-1.4l-2.11-5.92h1.52Zm4.45-2.69v1h2.84v1.22h-2.84v1.27h3.16v1.22H826V25.51h4.45v1.22Zm7.47,2.14a2.73,2.73,0,0,1,.37.32,6.79,6.79,0,0,1,.66.93l.81,1.31h-1.66l-.87-1.29a5.24,5.24,0,0,0-.59-.81.86.86,0,0,0-.29-.21,1.87,1.87,0,0,0-.53-.05h-.1v2.36h-1.4V25.51h2.53a4.45,4.45,0,0,1,1.36.17,1.4,1.4,0,0,1,.72.59,1.72,1.72,0,0,1,.27,1,1.65,1.65,0,0,1-.41,1.14,1.74,1.74,0,0,1-.87.5Zm-2.2-1h.71a4.12,4.12,0,0,0,1-.06.47.47,0,0,0,.25-.19.53.53,0,0,0,.09-.35.5.5,0,0,0-.46-.55h0a7.3,7.3,0,0,0-.81,0h-.76V27.9Zm4,1.44,0,.13a2.29,2.29,0,0,0,.73,1.53,2.62,2.62,0,0,0,1.73.53,3.48,3.48,0,0,0,1.28-.22,1.71,1.71,0,0,0,.82-.68,1.79,1.79,0,0,0,.29-1,1.84,1.84,0,0,0-.24-1,1.76,1.76,0,0,0-.68-.62,5.49,5.49,0,0,0-1.26-.42,3.16,3.16,0,0,1-1-.35.31.31,0,0,1-.13-.24.31.31,0,0,1,.13-.25,1.24,1.24,0,0,1,.7-.18,1.1,1.1,0,0,1,.64.17.81.81,0,0,1,.27.54l0,.12,1.39-.06v-.13a1.75,1.75,0,0,0-.61-1.34,2.54,2.54,0,0,0-1.69-.5,2.91,2.91,0,0,0-1.16.21,1.59,1.59,0,0,0-.76.62,1.52,1.52,0,0,0-.27.88,1.6,1.6,0,0,0,.57,1.23,3.38,3.38,0,0,0,1.34.59,9.17,9.17,0,0,1,.9.24.84.84,0,0,1,.35.21.38.38,0,0,1,.09.25.56.56,0,0,1-.23.45,1.17,1.17,0,0,1-.75.2,1,1,0,0,1-.74-.23,1.24,1.24,0,0,1-.36-.74l0-.12-1.37.13Zm5.54,2.09V25.51h1.4v5.92Zm2.22-5.92h2.22a4.15,4.15,0,0,1,1.11.12,2,2,0,0,1,.91.55,2.65,2.65,0,0,1,.57,1,4.26,4.26,0,0,1,.19,1.38,3.73,3.73,0,0,1-.18,1.24,2.71,2.71,0,0,1-.64,1.05,2.11,2.11,0,0,1-.85.48,3.4,3.4,0,0,1-1,.13h-2.28V25.52Zm1.4,1.22v3.48h.72a2.85,2.85,0,0,0,.66-.05.93.93,0,0,0,.41-.2,1.06,1.06,0,0,0,.26-.49,3.7,3.7,0,0,0,.11-1,3.45,3.45,0,0,0-.11-1,1,1,0,0,0-.29-.49,1,1,0,0,0-.47-.24,5.43,5.43,0,0,0-.9-.05Zm7.71,3.41h-2.08L851,31.43h-1.49l2.31-5.92h1.38l2.37,5.92H854Zm-.46-1.21-.6-1.59-.57,1.59Zm2.76-3.42h2.21a4.11,4.11,0,0,1,1.11.12,2,2,0,0,1,.91.55,2.65,2.65,0,0,1,.57,1,4.26,4.26,0,0,1,.19,1.38,3.73,3.73,0,0,1-.18,1.24,2.49,2.49,0,0,1-.64,1.05,2.11,2.11,0,0,1-.85.48,3.36,3.36,0,0,1-1,.13h-2.27V25.52Zm1.4,1.22v3.48H858a2.94,2.94,0,0,0,.66-.05.84.84,0,0,0,.4-.2,1.06,1.06,0,0,0,.26-.49,3.34,3.34,0,0,0,.11-1,3.12,3.12,0,0,0-.11-1A1.09,1.09,0,0,0,859,27a1.11,1.11,0,0,0-.47-.24,5.56,5.56,0,0,0-.91-.05Zm7.9,2.57v2.13h-1.41V25.51h2a8.12,8.12,0,0,1,1.39.09,1.69,1.69,0,0,1,.88.6,1.86,1.86,0,0,1,.35,1.18,2,2,0,0,1-.2.94,1.59,1.59,0,0,1-.52.6,1.69,1.69,0,0,1-.64.29,5.47,5.47,0,0,1-1.21.08Zm0-2.57v1.34h.49a2.7,2.7,0,0,0,.85-.08.61.61,0,0,0,.3-.22.7.7,0,0,0,.11-.37.62.62,0,0,0-.15-.42.65.65,0,0,0-.39-.21,4.19,4.19,0,0,0-.79,0Zm5.26,0v1h2.84v1.22h-2.84v1.27h3.16v1.22H869V25.51h4.45v1.22Zm7.47,2.14a2.24,2.24,0,0,1,.37.32,6,6,0,0,1,.66.93l.82,1.31h-1.67l-.87-1.29a5.94,5.94,0,0,0-.58-.81.81.81,0,0,0-.3-.21,1.87,1.87,0,0,0-.53-.05h-.1v2.36h-1.4V25.51h2.53a4.45,4.45,0,0,1,1.36.17,1.46,1.46,0,0,1,.73.59,1.72,1.72,0,0,1,.26,1,1.64,1.64,0,0,1-.4,1.14,1.81,1.81,0,0,1-.88.5Zm-2.2-1h.72a4,4,0,0,0,1-.06.47.47,0,0,0,.25-.19.6.6,0,0,0,.1-.35.51.51,0,0,0-.47-.55h0a7.48,7.48,0,0,0-.82,0h-.76V27.9ZM880,25.51h1.4v3.2a5.55,5.55,0,0,0,0,.91.78.78,0,0,0,.3.48,1.1,1.1,0,0,0,.68.19,1.13,1.13,0,0,0,.65-.17.68.68,0,0,0,.25-.41,5.93,5.93,0,0,0,.05-.94V25.51h1.4v3.1a8,8,0,0,1-.1,1.47,1.73,1.73,0,0,1-.37.77,2,2,0,0,1-.71.49,2.93,2.93,0,0,1-1.14.18,3.3,3.3,0,0,1-1.28-.2,1.82,1.82,0,0,1-.71-.52,1.68,1.68,0,0,1-.34-.68,7.14,7.14,0,0,1-.12-1.46V25.51Zm9.11,4.63H887l-.46,1.29h-1.49l2.3-5.92h1.38l2.37,5.92h-1.52l-.5-1.29Zm-.46-1.21L888,27.34l-.58,1.59Zm6.2,0V25.51h1.32v5.92h-1.35l-2.08-3.36v3.36h-1.32V25.51h1.32L894.82,29Zm5.67,1.18h-2.08l-.47,1.29h-1.49l2.3-5.92h1.39l2.36,5.92H901l-.49-1.29ZM900,28.93l-.59-1.59-.58,1.59Z"/><path class="cls-2" d="M813.21,40.63l2,.63,0,.12a4.06,4.06,0,0,1-1.38,2.23,4.33,4.33,0,0,1-5.45-.51,4.81,4.81,0,0,1-1.17-3.4,5.07,5.07,0,0,1,1.18-3.54,4.1,4.1,0,0,1,3.11-1.27,3.85,3.85,0,0,1,2.74,1,3.73,3.73,0,0,1,.95,1.7l0,.13-2,.49,0-.13a1.7,1.7,0,0,0-1.75-1.39,1.9,1.9,0,0,0-1.51.66,3.53,3.53,0,0,0-.58,2.21,3.79,3.79,0,0,0,.58,2.32,1.82,1.82,0,0,0,1.47.67,1.69,1.69,0,0,0,1.15-.42,2.62,2.62,0,0,0,.7-1.36l0-.14Zm8.57,1.55h-3.37l-.73,2h-2.19L819.06,35h2.07l3.67,9.16h-2.24Zm-.67-1.76-1-2.79-1,2.79Zm5.51-.06V44.2h2V40.37L832.05,35h-2.38l-2,3.39-2-3.39h-2.41l3.36,5.32Zm8-3.55v1.71h4.46v1.76h-4.46v2.16h5V44.2h-7V35h6.85v1.77Zm8.23,0h-2.64V35h7.33v1.77h-2.64V44.2h-2V36.81Zm10,5.37.78,2h2.23L852.2,35h-2.08l-3.56,9.16h2.19l.73-2Zm-.67-1.76h-2l1-2.79Zm9.72.23V35h1.93V44.2h-2l-3.38-5.47V44.2h-1.93V35h2l3.44,5.61Zm3.2-1a5.83,5.83,0,0,1,.42-2.33,4.31,4.31,0,0,1,.85-1.26,3.81,3.81,0,0,1,1.19-.83,5.13,5.13,0,0,1,2-.36,4.35,4.35,0,0,1,3.24,1.26A4.84,4.84,0,0,1,874,39.63a4.87,4.87,0,0,1-1.21,3.46,4.31,4.31,0,0,1-3.22,1.26,4.37,4.37,0,0,1-3.25-1.25,4.75,4.75,0,0,1-1.21-3.43Zm2.11-.06a3.31,3.31,0,0,0,.66,2.21,2.15,2.15,0,0,0,1.68.73,2.1,2.1,0,0,0,1.66-.73,3.36,3.36,0,0,0,.66-2.23,3.35,3.35,0,0,0-.64-2.2,2.35,2.35,0,0,0-3.33,0l0,0A3.26,3.26,0,0,0,867.21,39.61Zm13.43-1.07h3.26V35H886V44.2H883.9V40.31h-3.26V44.2h-2.06V35h2.06Zm9-1.73v1.71h4.47v1.76H889.6v2.16h5V44.2h-7V35h6.85v1.77Zm11.65,3.4a4,4,0,0,1,.7.59,9.42,9.42,0,0,1,1,1.46l1.21,1.94h-2.45l-1.34-2-.58-.84a3.87,3.87,0,0,0-.35-.45,1.18,1.18,0,0,0-.49-.33,2.78,2.78,0,0,0-.86-.1h-.23V44.2h-2.06V35h3.91a6.92,6.92,0,0,1,2.12.25,2.26,2.26,0,0,1,1.1.9,2.77,2.77,0,0,1,.4,1.48,2.53,2.53,0,0,1-.62,1.74,2.73,2.73,0,0,1-1.5.8ZM897.9,38.8h1.19a7,7,0,0,0,1.58-.1.81.81,0,0,0,.43-.32,1,1,0,0,0,.16-.6.87.87,0,0,0-.8-.94,2,2,0,0,0-.42,0H897.9v2Zm9-2v1.71h4.46v1.76h-4.46v2.16h5V44.2h-7V35h6.85v1.77ZM913.08,35h3.42a6.21,6.21,0,0,1,1.72.18,3.07,3.07,0,0,1,1.4.85,4,4,0,0,1,.88,1.49,6.5,6.5,0,0,1,.3,2.15,6.06,6.06,0,0,1-.28,1.93,4.1,4.1,0,0,1-1,1.62,3.17,3.17,0,0,1-1.31.74,5.61,5.61,0,0,1-1.63.2h-3.51V35Zm2.06,1.77v5.63h1.21a5.25,5.25,0,0,0,1-.08,1.64,1.64,0,0,0,.67-.34,1.91,1.91,0,0,0,.44-.8,5.73,5.73,0,0,0,.17-1.6,5.39,5.39,0,0,0-.17-1.54,1.93,1.93,0,0,0-.48-.8,1.57,1.57,0,0,0-.77-.39,7.73,7.73,0,0,0-1.44-.08ZM922,44.2V35h2V44.2Zm8.83-2h-3.37l-.74,2h-2.18L928.11,35h2.08l3.66,9.16h-2.23l-.78-2Zm-.67-1.76-1-2.79-1,2.79Z"/></g></g></svg>